solid OpenSCAD_Model
  facet normal -1 0 0
    outer loop
      vertex -27 0 0
      vertex -27 0 10
      vertex -27 4 0
    endloop
  endfacet
  facet normal -1 0 0
    outer loop
      vertex -27 4 0
      vertex -27 0 10
      vertex -27 4 10
    endloop
  endfacet
  facet normal 0 -1 0
    outer loop
      vertex -23.4438 0 3.2881
      vertex -27 0 0
      vertex 23.3 0 0
    endloop
  endfacet
  facet normal 0 -1 0
    outer loop
      vertex -25.8 0 5
      vertex -27 0 0
      vertex -25.4562 0 3.94199
    endloop
  endfacet
  facet normal 0 -1 0
    outer loop
      vertex -5.8 0 5
      vertex -5.45623 0 6.05801
      vertex -27 0 10
    endloop
  endfacet
  facet normal 0 -1 0
    outer loop
      vertex -27 0 10
      vertex -27 0 0
      vertex -25.8 0 5
    endloop
  endfacet
  facet normal 0 -1 0
    outer loop
      vertex -4.55623 0 3.2881
      vertex -22.5438 0 6.05801
      vertex -22.2 0 5
    endloop
  endfacet
  facet normal 0 -1 0
    outer loop
      vertex -5.45623 0 3.94199
      vertex -5.8 0 5
      vertex -23.4438 0 6.7119
    endloop
  endfacet
  facet normal 0 -1 0
    outer loop
      vertex -27 0 10
      vertex -25.4562 0 6.05801
      vertex -24.5562 0 6.7119
    endloop
  endfacet
  facet normal 0 -1 0
    outer loop
      vertex -27 0 10
      vertex -24.5562 0 6.7119
      vertex -23.4438 0 6.7119
    endloop
  endfacet
  facet normal 0 -1 0
    outer loop
      vertex 16.4438 0 6.7119
      vertex 17.5562 0 6.7119
      vertex 23.3 0 10
    endloop
  endfacet
  facet normal 0 -1 0
    outer loop
      vertex -4.55623 0 3.2881
      vertex -22.2 0 5
      vertex 23.3 0 0
    endloop
  endfacet
  facet normal 0 -1 0
    outer loop
      vertex -22.2 0 5
      vertex -22.5438 0 3.94199
      vertex 23.3 0 0
    endloop
  endfacet
  facet normal 0 -1 0
    outer loop
      vertex -24.5562 0 3.2881
      vertex -27 0 0
      vertex -23.4438 0 3.2881
    endloop
  endfacet
  facet normal 0 -1 0
    outer loop
      vertex -25.4562 0 3.94199
      vertex -27 0 0
      vertex -24.5562 0 3.2881
    endloop
  endfacet
  facet normal 0 -1 0
    outer loop
      vertex -2.54377 0 3.94199
      vertex -3.44377 0 3.2881
      vertex 23.3 0 0
    endloop
  endfacet
  facet normal 0 -1 0
    outer loop
      vertex -27 0 10
      vertex -23.4438 0 6.7119
      vertex -5.8 0 5
    endloop
  endfacet
  facet normal 0 -1 0
    outer loop
      vertex -2.2 0 5
      vertex -2.54377 0 3.94199
      vertex 23.3 0 0
    endloop
  endfacet
  facet normal 0 -1 0
    outer loop
      vertex -4.55623 0 6.7119
      vertex -27 0 10
      vertex -5.45623 0 6.05801
    endloop
  endfacet
  facet normal 0 -1 0
    outer loop
      vertex 23.3 0 10
      vertex -27 0 10
      vertex -4.55623 0 6.7119
    endloop
  endfacet
  facet normal 0 -1 0
    outer loop
      vertex -2.54377 0 6.05801
      vertex -2.2 0 5
      vertex 23.3 0 0
    endloop
  endfacet
  facet normal 0 -1 0
    outer loop
      vertex 23.3 0 10
      vertex -4.55623 0 6.7119
      vertex -3.44377 0 6.7119
    endloop
  endfacet
  facet normal 0 -1 0
    outer loop
      vertex 16.4438 0 3.2881
      vertex -2.54377 0 6.05801
      vertex 23.3 0 0
    endloop
  endfacet
  facet normal 0 -1 0
    outer loop
      vertex -3.44377 0 6.7119
      vertex -2.54377 0 6.05801
      vertex 23.3 0 10
    endloop
  endfacet
  facet normal 0 -1 0
    outer loop
      vertex 17.5562 0 6.7119
      vertex 18.4562 0 6.05801
      vertex 23.3 0 10
    endloop
  endfacet
  facet normal 0 -1 0
    outer loop
      vertex -22.5438 0 3.94199
      vertex -23.4438 0 3.2881
      vertex 23.3 0 0
    endloop
  endfacet
  facet normal 0 -1 0
    outer loop
      vertex -3.44377 0 3.2881
      vertex -4.55623 0 3.2881
      vertex 23.3 0 0
    endloop
  endfacet
  facet normal 0 -1 0
    outer loop
      vertex 15.2 0 5
      vertex -2.54377 0 6.05801
      vertex 15.5438 0 3.94199
    endloop
  endfacet
  facet normal 0 -1 0
    outer loop
      vertex 17.5562 0 3.2881
      vertex 16.4438 0 3.2881
      vertex 23.3 0 0
    endloop
  endfacet
  facet normal 0 -1 0
    outer loop
      vertex 15.5438 0 6.05801
      vertex -2.54377 0 6.05801
      vertex 15.2 0 5
    endloop
  endfacet
  facet normal 0 -1 0
    outer loop
      vertex 16.4438 0 6.7119
      vertex -2.54377 0 6.05801
      vertex 15.5438 0 6.05801
    endloop
  endfacet
  facet normal 0 -1 0
    outer loop
      vertex 23.3 0 10
      vertex -2.54377 0 6.05801
      vertex 16.4438 0 6.7119
    endloop
  endfacet
  facet normal 0 -1 0
    outer loop
      vertex 23.3 0 10
      vertex 18.4562 0 6.05801
      vertex 23.3 0 0
    endloop
  endfacet
  facet normal 0 -1 0
    outer loop
      vertex 18.4562 0 6.05801
      vertex 18.8 0 5
      vertex 23.3 0 0
    endloop
  endfacet
  facet normal 0 -1 0
    outer loop
      vertex 18.8 0 5
      vertex 18.4562 0 3.94199
      vertex 23.3 0 0
    endloop
  endfacet
  facet normal 0 -1 0
    outer loop
      vertex 18.4562 0 3.94199
      vertex 17.5562 0 3.2881
      vertex 23.3 0 0
    endloop
  endfacet
  facet normal 0 -1 0
    outer loop
      vertex 15.5438 0 3.94199
      vertex -2.54377 0 6.05801
      vertex 16.4438 0 3.2881
    endloop
  endfacet
  facet normal 0 -1 0
    outer loop
      vertex -25.8 0 5
      vertex -25.4562 0 6.05801
      vertex -27 0 10
    endloop
  endfacet
  facet normal 0 -1 0
    outer loop
      vertex -23.4438 0 6.7119
      vertex -22.5438 0 6.05801
      vertex -5.45623 0 3.94199
    endloop
  endfacet
  facet normal 0 -1 0
    outer loop
      vertex -4.55623 0 3.2881
      vertex -5.45623 0 3.94199
      vertex -22.5438 0 6.05801
    endloop
  endfacet
  facet normal 0 0 -1
    outer loop
      vertex -27 0 0
      vertex -27 4 0
      vertex 23.3 0 0
    endloop
  endfacet
  facet normal 0 0 -1
    outer loop
      vertex 23.3 0 0
      vertex -27 4 0
      vertex 1.08983 4 0
    endloop
  endfacet
  facet normal 0 0 -1
    outer loop
      vertex 5.55 3.90289 0
      vertex 1.08983 4 0
      vertex 0.381759 5.38967 0
    endloop
  endfacet
  facet normal 0 0 -1
    outer loop
      vertex 3.57138 6.26091 0
      vertex 0.381759 5.38967 0
      vertex 0 7.8 0
    endloop
  endfacet
  facet normal 0 0 -1
    outer loop
      vertex 3.3 7.8 0
      vertex 0 7.8 0
      vertex 0.381759 10.2103 0
    endloop
  endfacet
  facet normal 0 0 -1
    outer loop
      vertex 4.3528 10.6925 0
      vertex 0.381759 10.2103 0
      vertex 1.48967 12.3847 0
    endloop
  endfacet
  facet normal 0 0 -1
    outer loop
      vertex 5.55 11.6971 0
      vertex 1.48967 12.3847 0
      vertex 3.21528 14.1103 0
    endloop
  endfacet
  facet normal 0 0 -1
    outer loop
      vertex 8.58142 12.2316 0
      vertex 3.21528 14.1103 0
      vertex 5.38967 15.2182 0
    endloop
  endfacet
  facet normal 0 0 -1
    outer loop
      vertex 10.05 11.6971 0
      vertex 5.38967 15.2182 0
      vertex 7.8 15.6 0
    endloop
  endfacet
  facet normal 0 0 -1
    outer loop
      vertex 23.3 11.55 0
      vertex 7.8 15.6 0
      vertex 23.3 15.6 0
    endloop
  endfacet
  facet normal 0 0 -1
    outer loop
      vertex 8.58142 12.2316 0
      vertex 5.38967 15.2182 0
      vertex 10.05 11.6971 0
    endloop
  endfacet
  facet normal 0 0 -1
    outer loop
      vertex 10.2253 11.55 0
      vertex 10.05 11.6971 0
      vertex 7.8 15.6 0
    endloop
  endfacet
  facet normal 0 0 -1
    outer loop
      vertex 7.01858 12.2316 0
      vertex 3.21528 14.1103 0
      vertex 8.58142 12.2316 0
    endloop
  endfacet
  facet normal 0 0 -1
    outer loop
      vertex 5.55 11.6971 0
      vertex 3.21528 14.1103 0
      vertex 7.01858 12.2316 0
    endloop
  endfacet
  facet normal 0 0 -1
    outer loop
      vertex 4.3528 10.6925 0
      vertex 1.48967 12.3847 0
      vertex 5.55 11.6971 0
    endloop
  endfacet
  facet normal 0 0 -1
    outer loop
      vertex 3.57138 9.33909 0
      vertex 0.381759 10.2103 0
      vertex 4.3528 10.6925 0
    endloop
  endfacet
  facet normal 0 0 -1
    outer loop
      vertex 3.3 7.8 0
      vertex 0.381759 10.2103 0
      vertex 3.57138 9.33909 0
    endloop
  endfacet
  facet normal 0 0 -1
    outer loop
      vertex 3.57138 6.26091 0
      vertex 0 7.8 0
      vertex 3.3 7.8 0
    endloop
  endfacet
  facet normal 0 0 -1
    outer loop
      vertex 4.3528 4.90746 0
      vertex 0.381759 5.38967 0
      vertex 3.57138 6.26091 0
    endloop
  endfacet
  facet normal 0 0 -1
    outer loop
      vertex 5.55 3.90289 0
      vertex 0.381759 5.38967 0
      vertex 4.3528 4.90746 0
    endloop
  endfacet
  facet normal 0 0 -1
    outer loop
      vertex 7.01858 3.36836 0
      vertex 1.08983 4 0
      vertex 5.55 3.90289 0
    endloop
  endfacet
  facet normal 0 0 -1
    outer loop
      vertex 8.58142 3.36836 0
      vertex 23.3 0 0
      vertex 7.01858 3.36836 0
    endloop
  endfacet
  facet normal 0 0 -1
    outer loop
      vertex 23.3 0 0
      vertex 1.08983 4 0
      vertex 7.01858 3.36836 0
    endloop
  endfacet
  facet normal 0 0 -1
    outer loop
      vertex 10.05 3.90289 0
      vertex 23.3 0 0
      vertex 8.58142 3.36836 0
    endloop
  endfacet
  facet normal 0 0 -1
    outer loop
      vertex 23.3 4.05 0
      vertex 23.3 0 0
      vertex 10.2253 4.05 0
    endloop
  endfacet
  facet normal 0 0 -1
    outer loop
      vertex 23.3 0 0
      vertex 10.05 3.90289 0
      vertex 10.2253 4.05 0
    endloop
  endfacet
  facet normal 0 0 -1
    outer loop
      vertex 10.2253 11.55 0
      vertex 7.8 15.6 0
      vertex 23.3 11.55 0
    endloop
  endfacet
  facet normal 0 1 0
    outer loop
      vertex -22.5438 4 6.05801
      vertex -27 4 10
      vertex 1.08983 4 0
    endloop
  endfacet
  facet normal 0 1 0
    outer loop
      vertex -3.44377 4 6.7119
      vertex -27 4 10
      vertex 1.08983 4 10
    endloop
  endfacet
  facet normal 0 1 0
    outer loop
      vertex -27 4 0
      vertex -27 4 10
      vertex -25.8 4 5
    endloop
  endfacet
  facet normal 0 1 0
    outer loop
      vertex -27 4 0
      vertex -25.8 4 5
      vertex -25.4562 4 3.94199
    endloop
  endfacet
  facet normal 0 1 0
    outer loop
      vertex -27 4 0
      vertex -25.4562 4 3.94199
      vertex -24.5562 4 3.2881
    endloop
  endfacet
  facet normal 0 1 0
    outer loop
      vertex -27 4 0
      vertex -24.5562 4 3.2881
      vertex 1.08983 4 0
    endloop
  endfacet
  facet normal 0 1 0
    outer loop
      vertex -24.5562 4 3.2881
      vertex -23.4438 4 3.2881
      vertex 1.08983 4 0
    endloop
  endfacet
  facet normal 0 1 0
    outer loop
      vertex -22.2 4 5
      vertex 1.08983 4 0
      vertex -22.5438 4 3.94199
    endloop
  endfacet
  facet normal 0 1 0
    outer loop
      vertex -3.44377 4 3.2881
      vertex 1.08983 4 0
      vertex -4.55623 4 3.2881
    endloop
  endfacet
  facet normal 0 1 0
    outer loop
      vertex -24.5562 4 6.7119
      vertex -27 4 10
      vertex -23.4438 4 6.7119
    endloop
  endfacet
  facet normal 0 1 0
    outer loop
      vertex -23.4438 4 6.7119
      vertex -27 4 10
      vertex -22.5438 4 6.05801
    endloop
  endfacet
  facet normal 0 1 0
    outer loop
      vertex -22.2 4 5
      vertex -22.5438 4 6.05801
      vertex 1.08983 4 0
    endloop
  endfacet
  facet normal 0 1 0
    outer loop
      vertex -25.4562 4 6.05801
      vertex -27 4 10
      vertex -24.5562 4 6.7119
    endloop
  endfacet
  facet normal 0 1 0
    outer loop
      vertex -25.8 4 5
      vertex -27 4 10
      vertex -25.4562 4 6.05801
    endloop
  endfacet
  facet normal 0 1 0
    outer loop
      vertex -5.45623 4 3.94199
      vertex -27 4 10
      vertex -5.8 4 5
    endloop
  endfacet
  facet normal 0 1 0
    outer loop
      vertex -4.55623 4 3.2881
      vertex -27 4 10
      vertex -5.45623 4 3.94199
    endloop
  endfacet
  facet normal 0 1 0
    outer loop
      vertex 1.08983 4 0
      vertex -27 4 10
      vertex -4.55623 4 3.2881
    endloop
  endfacet
  facet normal 0 1 0
    outer loop
      vertex -2.54377 4 3.94199
      vertex 1.08983 4 0
      vertex -3.44377 4 3.2881
    endloop
  endfacet
  facet normal 0 1 0
    outer loop
      vertex -3.44377 4 6.7119
      vertex 1.08983 4 10
      vertex -2.54377 4 6.05801
    endloop
  endfacet
  facet normal 0 1 0
    outer loop
      vertex 1.08983 4 0
      vertex -2.54377 4 3.94199
      vertex 1.08983 4 10
    endloop
  endfacet
  facet normal 0 1 0
    outer loop
      vertex -2.54377 4 3.94199
      vertex -2.2 4 5
      vertex 1.08983 4 10
    endloop
  endfacet
  facet normal 0 1 0
    outer loop
      vertex -2.2 4 5
      vertex -2.54377 4 6.05801
      vertex 1.08983 4 10
    endloop
  endfacet
  facet normal 0 1 0
    outer loop
      vertex -4.55623 4 6.7119
      vertex -27 4 10
      vertex -3.44377 4 6.7119
    endloop
  endfacet
  facet normal 0 1 0
    outer loop
      vertex -5.45623 4 6.05801
      vertex -27 4 10
      vertex -4.55623 4 6.7119
    endloop
  endfacet
  facet normal 0 1 0
    outer loop
      vertex -5.8 4 5
      vertex -27 4 10
      vertex -5.45623 4 6.05801
    endloop
  endfacet
  facet normal 0 1 0
    outer loop
      vertex -22.5438 4 3.94199
      vertex 1.08983 4 0
      vertex -23.4438 4 3.2881
    endloop
  endfacet
  facet normal 0 0 1
    outer loop
      vertex -27 4 10
      vertex -27 0 10
      vertex 23.3 0 10
    endloop
  endfacet
  facet normal 0 0 1
    outer loop
      vertex 5.55 3.90289 10
      vertex 1.08983 4 10
      vertex -27 4 10
    endloop
  endfacet
  facet normal 0 0 1
    outer loop
      vertex 7.01858 3.36836 10
      vertex -27 4 10
      vertex 23.3 0 10
    endloop
  endfacet
  facet normal 0 0 1
    outer loop
      vertex 23.3 4.05 10
      vertex 10.05 3.90289 10
      vertex 23.3 0 10
    endloop
  endfacet
  facet normal 0 0 1
    outer loop
      vertex 10.05 3.90289 10
      vertex 8.58142 3.36836 10
      vertex 23.3 0 10
    endloop
  endfacet
  facet normal 0 0 1
    outer loop
      vertex 8.58142 3.36836 10
      vertex 7.01858 3.36836 10
      vertex 23.3 0 10
    endloop
  endfacet
  facet normal 0 0 1
    outer loop
      vertex 0.381759 5.38967 10
      vertex 1.08983 4 10
      vertex 4.3528 4.90746 10
    endloop
  endfacet
  facet normal 0 0 1
    outer loop
      vertex 0 7.8 10
      vertex 3.57138 6.26091 10
      vertex 3.3 7.8 10
    endloop
  endfacet
  facet normal 0 0 1
    outer loop
      vertex 0 7.8 10
      vertex 0.381759 5.38967 10
      vertex 3.57138 6.26091 10
    endloop
  endfacet
  facet normal 0 0 1
    outer loop
      vertex 0.381759 10.2103 10
      vertex 3.57138 9.33909 10
      vertex 4.3528 10.6925 10
    endloop
  endfacet
  facet normal 0 0 1
    outer loop
      vertex 0.381759 10.2103 10
      vertex 0 7.8 10
      vertex 3.57138 9.33909 10
    endloop
  endfacet
  facet normal 0 0 1
    outer loop
      vertex 23.3 15.6 10
      vertex 7.01858 12.2316 10
      vertex 8.58142 12.2316 10
    endloop
  endfacet
  facet normal 0 0 1
    outer loop
      vertex 23.3 11.55 10
      vertex 8.58142 12.2316 10
      vertex 10.05 11.6971 10
    endloop
  endfacet
  facet normal 0 0 1
    outer loop
      vertex 3.21528 14.1103 10
      vertex 1.48967 12.3847 10
      vertex 7.8 15.6 10
    endloop
  endfacet
  facet normal 0 0 1
    outer loop
      vertex 23.3 15.6 10
      vertex 8.58142 12.2316 10
      vertex 23.3 11.55 10
    endloop
  endfacet
  facet normal 0 0 1
    outer loop
      vertex 7.8 15.6 10
      vertex 7.01858 12.2316 10
      vertex 23.3 15.6 10
    endloop
  endfacet
  facet normal 0 0 1
    outer loop
      vertex 1.48967 12.3847 10
      vertex 5.55 11.6971 10
      vertex 7.01858 12.2316 10
    endloop
  endfacet
  facet normal 0 0 1
    outer loop
      vertex 5.38967 15.2182 10
      vertex 3.21528 14.1103 10
      vertex 7.8 15.6 10
    endloop
  endfacet
  facet normal 0 0 1
    outer loop
      vertex 7.8 15.6 10
      vertex 1.48967 12.3847 10
      vertex 7.01858 12.2316 10
    endloop
  endfacet
  facet normal 0 0 1
    outer loop
      vertex 5.55 11.6971 10
      vertex 0.381759 10.2103 10
      vertex 4.3528 10.6925 10
    endloop
  endfacet
  facet normal 0 0 1
    outer loop
      vertex 3.57138 9.33909 10
      vertex 0 7.8 10
      vertex 3.3 7.8 10
    endloop
  endfacet
  facet normal 0 0 1
    outer loop
      vertex 3.57138 6.26091 10
      vertex 0.381759 5.38967 10
      vertex 4.3528 4.90746 10
    endloop
  endfacet
  facet normal 0 0 1
    outer loop
      vertex 7.01858 3.36836 10
      vertex 5.55 3.90289 10
      vertex -27 4 10
    endloop
  endfacet
  facet normal 0 0 1
    outer loop
      vertex 10.2253 11.55 10
      vertex 23.3 11.55 10
      vertex 10.05 11.6971 10
    endloop
  endfacet
  facet normal 0 0 1
    outer loop
      vertex 1.48967 12.3847 10
      vertex 0.381759 10.2103 10
      vertex 5.55 11.6971 10
    endloop
  endfacet
  facet normal 0 0 1
    outer loop
      vertex 10.2253 4.05 10
      vertex 10.05 3.90289 10
      vertex 23.3 4.05 10
    endloop
  endfacet
  facet normal 0 0 1
    outer loop
      vertex 5.55 3.90289 10
      vertex 4.3528 4.90746 10
      vertex 1.08983 4 10
    endloop
  endfacet
  facet normal 1 0 0
    outer loop
      vertex 23.3 0 10
      vertex 23.3 0 0
      vertex 23.3 4.05 0
    endloop
  endfacet
  facet normal 1 0 0
    outer loop
      vertex 23.3 4.05 10
      vertex 23.3 0 10
      vertex 23.3 4.05 0
    endloop
  endfacet
  facet normal 0.951057 6.86155e-17 0.309017
    outer loop
      vertex -25.4562 0 3.94199
      vertex -25.4562 4 3.94199
      vertex -25.8 4 5
    endloop
  endfacet
  facet normal 0.951057 6.86155e-17 0.309017
    outer loop
      vertex -25.8 0 5
      vertex -25.4562 0 3.94199
      vertex -25.8 4 5
    endloop
  endfacet
  facet normal 0.587786 1.79638e-16 0.809017
    outer loop
      vertex -24.5562 0 3.2881
      vertex -24.5562 4 3.2881
      vertex -25.4562 4 3.94199
    endloop
  endfacet
  facet normal 0.587786 1.79638e-16 0.809017
    outer loop
      vertex -25.4562 0 3.94199
      vertex -24.5562 0 3.2881
      vertex -25.4562 4 3.94199
    endloop
  endfacet
  facet normal 0 2.22045e-16 1
    outer loop
      vertex -23.4438 0 3.2881
      vertex -23.4438 4 3.2881
      vertex -24.5562 4 3.2881
    endloop
  endfacet
  facet normal 0 2.22045e-16 1
    outer loop
      vertex -24.5562 0 3.2881
      vertex -23.4438 0 3.2881
      vertex -24.5562 4 3.2881
    endloop
  endfacet
  facet normal -0.587786 1.79638e-16 0.809017
    outer loop
      vertex -22.5438 0 3.94199
      vertex -22.5438 4 3.94199
      vertex -23.4438 4 3.2881
    endloop
  endfacet
  facet normal -0.587786 1.79638e-16 0.809017
    outer loop
      vertex -23.4438 0 3.2881
      vertex -22.5438 0 3.94199
      vertex -23.4438 4 3.2881
    endloop
  endfacet
  facet normal -0.951057 6.86155e-17 0.309017
    outer loop
      vertex -22.2 4 5
      vertex -22.5438 4 3.94199
      vertex -22.2 0 5
    endloop
  endfacet
  facet normal -0.951057 6.86155e-17 0.309017
    outer loop
      vertex -22.2 0 5
      vertex -22.5438 4 3.94199
      vertex -22.5438 0 3.94199
    endloop
  endfacet
  facet normal -0.951057 -6.86155e-17 -0.309017
    outer loop
      vertex -22.2 4 5
      vertex -22.2 0 5
      vertex -22.5438 4 6.05801
    endloop
  endfacet
  facet normal -0.951057 -6.86155e-17 -0.309017
    outer loop
      vertex -22.5438 4 6.05801
      vertex -22.2 0 5
      vertex -22.5438 0 6.05801
    endloop
  endfacet
  facet normal -0.587786 -1.79638e-16 -0.809017
    outer loop
      vertex -22.5438 4 6.05801
      vertex -22.5438 0 6.05801
      vertex -23.4438 4 6.7119
    endloop
  endfacet
  facet normal -0.587786 -1.79638e-16 -0.809017
    outer loop
      vertex -23.4438 4 6.7119
      vertex -22.5438 0 6.05801
      vertex -23.4438 0 6.7119
    endloop
  endfacet
  facet normal 0 -2.22045e-16 -1
    outer loop
      vertex -23.4438 4 6.7119
      vertex -23.4438 0 6.7119
      vertex -24.5562 4 6.7119
    endloop
  endfacet
  facet normal 0 -2.22045e-16 -1
    outer loop
      vertex -24.5562 4 6.7119
      vertex -23.4438 0 6.7119
      vertex -24.5562 0 6.7119
    endloop
  endfacet
  facet normal 0.587786 -1.79638e-16 -0.809017
    outer loop
      vertex -24.5562 4 6.7119
      vertex -24.5562 0 6.7119
      vertex -25.4562 4 6.05801
    endloop
  endfacet
  facet normal 0.587786 -1.79638e-16 -0.809017
    outer loop
      vertex -25.4562 4 6.05801
      vertex -24.5562 0 6.7119
      vertex -25.4562 0 6.05801
    endloop
  endfacet
  facet normal 0.951057 -6.86155e-17 -0.309017
    outer loop
      vertex -25.8 4 5
      vertex -25.4562 4 6.05801
      vertex -25.4562 0 6.05801
    endloop
  endfacet
  facet normal 0.951057 -6.86155e-17 -0.309017
    outer loop
      vertex -25.8 0 5
      vertex -25.8 4 5
      vertex -25.4562 0 6.05801
    endloop
  endfacet
  facet normal 0.951057 6.86155e-17 0.309017
    outer loop
      vertex -5.45623 0 3.94199
      vertex -5.45623 4 3.94199
      vertex -5.8 4 5
    endloop
  endfacet
  facet normal 0.951057 6.86155e-17 0.309017
    outer loop
      vertex -5.8 0 5
      vertex -5.45623 0 3.94199
      vertex -5.8 4 5
    endloop
  endfacet
  facet normal 0.587786 1.79638e-16 0.809017
    outer loop
      vertex -4.55623 0 3.2881
      vertex -4.55623 4 3.2881
      vertex -5.45623 4 3.94199
    endloop
  endfacet
  facet normal 0.587786 1.79638e-16 0.809017
    outer loop
      vertex -5.45623 0 3.94199
      vertex -4.55623 0 3.2881
      vertex -5.45623 4 3.94199
    endloop
  endfacet
  facet normal 0 2.22045e-16 1
    outer loop
      vertex -3.44377 0 3.2881
      vertex -3.44377 4 3.2881
      vertex -4.55623 4 3.2881
    endloop
  endfacet
  facet normal 0 2.22045e-16 1
    outer loop
      vertex -4.55623 0 3.2881
      vertex -3.44377 0 3.2881
      vertex -4.55623 4 3.2881
    endloop
  endfacet
  facet normal -0.587786 1.79638e-16 0.809017
    outer loop
      vertex -2.54377 0 3.94199
      vertex -2.54377 4 3.94199
      vertex -3.44377 4 3.2881
    endloop
  endfacet
  facet normal -0.587786 1.79638e-16 0.809017
    outer loop
      vertex -3.44377 0 3.2881
      vertex -2.54377 0 3.94199
      vertex -3.44377 4 3.2881
    endloop
  endfacet
  facet normal -0.951057 6.86155e-17 0.309017
    outer loop
      vertex -2.2 4 5
      vertex -2.54377 4 3.94199
      vertex -2.2 0 5
    endloop
  endfacet
  facet normal -0.951057 6.86155e-17 0.309017
    outer loop
      vertex -2.2 0 5
      vertex -2.54377 4 3.94199
      vertex -2.54377 0 3.94199
    endloop
  endfacet
  facet normal -0.951057 -6.86155e-17 -0.309017
    outer loop
      vertex -2.2 4 5
      vertex -2.2 0 5
      vertex -2.54377 4 6.05801
    endloop
  endfacet
  facet normal -0.951057 -6.86155e-17 -0.309017
    outer loop
      vertex -2.54377 4 6.05801
      vertex -2.2 0 5
      vertex -2.54377 0 6.05801
    endloop
  endfacet
  facet normal -0.587786 -1.79638e-16 -0.809017
    outer loop
      vertex -2.54377 4 6.05801
      vertex -2.54377 0 6.05801
      vertex -3.44377 4 6.7119
    endloop
  endfacet
  facet normal -0.587786 -1.79638e-16 -0.809017
    outer loop
      vertex -3.44377 4 6.7119
      vertex -2.54377 0 6.05801
      vertex -3.44377 0 6.7119
    endloop
  endfacet
  facet normal 0 -2.22045e-16 -1
    outer loop
      vertex -3.44377 4 6.7119
      vertex -3.44377 0 6.7119
      vertex -4.55623 4 6.7119
    endloop
  endfacet
  facet normal 0 -2.22045e-16 -1
    outer loop
      vertex -4.55623 4 6.7119
      vertex -3.44377 0 6.7119
      vertex -4.55623 0 6.7119
    endloop
  endfacet
  facet normal 0.587786 -1.79638e-16 -0.809017
    outer loop
      vertex -4.55623 4 6.7119
      vertex -4.55623 0 6.7119
      vertex -5.45623 4 6.05801
    endloop
  endfacet
  facet normal 0.587786 -1.79638e-16 -0.809017
    outer loop
      vertex -5.45623 4 6.05801
      vertex -4.55623 0 6.7119
      vertex -5.45623 0 6.05801
    endloop
  endfacet
  facet normal 0.951057 -6.86155e-17 -0.309017
    outer loop
      vertex -5.8 4 5
      vertex -5.45623 4 6.05801
      vertex -5.45623 0 6.05801
    endloop
  endfacet
  facet normal 0.951057 -6.86155e-17 -0.309017
    outer loop
      vertex -5.8 0 5
      vertex -5.8 4 5
      vertex -5.45623 0 6.05801
    endloop
  endfacet
  facet normal 0.587786 1.79638e-16 0.809017
    outer loop
      vertex 16.4438 0 3.2881
      vertex 16.4438 4.05 3.2881
      vertex 15.5438 4.05 3.94199
    endloop
  endfacet
  facet normal 0.587786 1.79638e-16 0.809017
    outer loop
      vertex 15.5438 0 3.94199
      vertex 16.4438 0 3.2881
      vertex 15.5438 4.05 3.94199
    endloop
  endfacet
  facet normal 0.951057 6.86155e-17 0.309017
    outer loop
      vertex 15.5438 0 3.94199
      vertex 15.5438 4.05 3.94199
      vertex 15.2 4.05 5
    endloop
  endfacet
  facet normal 0.951057 6.86155e-17 0.309017
    outer loop
      vertex 15.2 0 5
      vertex 15.5438 0 3.94199
      vertex 15.2 4.05 5
    endloop
  endfacet
  facet normal 0 2.22045e-16 1
    outer loop
      vertex 17.5562 0 3.2881
      vertex 17.5562 4.05 3.2881
      vertex 16.4438 4.05 3.2881
    endloop
  endfacet
  facet normal 0 2.22045e-16 1
    outer loop
      vertex 16.4438 0 3.2881
      vertex 17.5562 0 3.2881
      vertex 16.4438 4.05 3.2881
    endloop
  endfacet
  facet normal -0.587786 1.79638e-16 0.809017
    outer loop
      vertex 18.4562 0 3.94199
      vertex 18.4562 4.05 3.94199
      vertex 17.5562 4.05 3.2881
    endloop
  endfacet
  facet normal -0.587786 1.79638e-16 0.809017
    outer loop
      vertex 17.5562 0 3.2881
      vertex 18.4562 0 3.94199
      vertex 17.5562 4.05 3.2881
    endloop
  endfacet
  facet normal -0.951057 6.86155e-17 0.309017
    outer loop
      vertex 18.8 4.05 5
      vertex 18.4562 4.05 3.94199
      vertex 18.8 0 5
    endloop
  endfacet
  facet normal -0.951057 6.86155e-17 0.309017
    outer loop
      vertex 18.8 0 5
      vertex 18.4562 4.05 3.94199
      vertex 18.4562 0 3.94199
    endloop
  endfacet
  facet normal -0.951057 -6.86155e-17 -0.309017
    outer loop
      vertex 18.8 4.05 5
      vertex 18.8 0 5
      vertex 18.4562 4.05 6.05801
    endloop
  endfacet
  facet normal -0.951057 -6.86155e-17 -0.309017
    outer loop
      vertex 18.4562 4.05 6.05801
      vertex 18.8 0 5
      vertex 18.4562 0 6.05801
    endloop
  endfacet
  facet normal -0.587786 -1.79638e-16 -0.809017
    outer loop
      vertex 18.4562 4.05 6.05801
      vertex 18.4562 0 6.05801
      vertex 17.5562 4.05 6.7119
    endloop
  endfacet
  facet normal -0.587786 -1.79638e-16 -0.809017
    outer loop
      vertex 17.5562 4.05 6.7119
      vertex 18.4562 0 6.05801
      vertex 17.5562 0 6.7119
    endloop
  endfacet
  facet normal 0 -2.22045e-16 -1
    outer loop
      vertex 17.5562 4.05 6.7119
      vertex 17.5562 0 6.7119
      vertex 16.4438 4.05 6.7119
    endloop
  endfacet
  facet normal 0 -2.22045e-16 -1
    outer loop
      vertex 16.4438 4.05 6.7119
      vertex 17.5562 0 6.7119
      vertex 16.4438 0 6.7119
    endloop
  endfacet
  facet normal 0.587786 -1.79638e-16 -0.809017
    outer loop
      vertex 16.4438 4.05 6.7119
      vertex 16.4438 0 6.7119
      vertex 15.5438 4.05 6.05801
    endloop
  endfacet
  facet normal 0.587786 -1.79638e-16 -0.809017
    outer loop
      vertex 15.5438 4.05 6.05801
      vertex 16.4438 0 6.7119
      vertex 15.5438 0 6.05801
    endloop
  endfacet
  facet normal 0.951057 -6.86155e-17 -0.309017
    outer loop
      vertex 15.2 4.05 5
      vertex 15.5438 4.05 6.05801
      vertex 15.5438 0 6.05801
    endloop
  endfacet
  facet normal 0.951057 -6.86155e-17 -0.309017
    outer loop
      vertex 15.2 0 5
      vertex 15.2 4.05 5
      vertex 15.5438 0 6.05801
    endloop
  endfacet
  facet normal 0 1 0
    outer loop
      vertex 16.4438 4.05 3.2881
      vertex 23.3 4.05 0
      vertex 10.2253 4.05 0
    endloop
  endfacet
  facet normal 0 1 0
    outer loop
      vertex 18.4562 4.05 3.94199
      vertex 23.3 4.05 0
      vertex 17.5562 4.05 3.2881
    endloop
  endfacet
  facet normal 0 1 0
    outer loop
      vertex 10.2253 4.05 10
      vertex 15.5438 4.05 3.94199
      vertex 10.2253 4.05 0
    endloop
  endfacet
  facet normal 0 1 0
    outer loop
      vertex 15.5438 4.05 3.94199
      vertex 16.4438 4.05 3.2881
      vertex 10.2253 4.05 0
    endloop
  endfacet
  facet normal 0 1 0
    outer loop
      vertex 23.3 4.05 10
      vertex 23.3 4.05 0
      vertex 18.4562 4.05 3.94199
    endloop
  endfacet
  facet normal 0 1 0
    outer loop
      vertex 23.3 4.05 10
      vertex 18.4562 4.05 3.94199
      vertex 18.8 4.05 5
    endloop
  endfacet
  facet normal 0 1 0
    outer loop
      vertex 23.3 4.05 10
      vertex 18.8 4.05 5
      vertex 18.4562 4.05 6.05801
    endloop
  endfacet
  facet normal 0 1 0
    outer loop
      vertex 23.3 4.05 10
      vertex 18.4562 4.05 6.05801
      vertex 17.5562 4.05 6.7119
    endloop
  endfacet
  facet normal 0 1 0
    outer loop
      vertex 23.3 4.05 10
      vertex 17.5562 4.05 6.7119
      vertex 10.2253 4.05 10
    endloop
  endfacet
  facet normal 0 1 0
    outer loop
      vertex 15.5438 4.05 6.05801
      vertex 10.2253 4.05 10
      vertex 16.4438 4.05 6.7119
    endloop
  endfacet
  facet normal 0 1 0
    outer loop
      vertex 16.4438 4.05 6.7119
      vertex 10.2253 4.05 10
      vertex 17.5562 4.05 6.7119
    endloop
  endfacet
  facet normal 0 1 0
    outer loop
      vertex 15.2 4.05 5
      vertex 10.2253 4.05 10
      vertex 15.5438 4.05 6.05801
    endloop
  endfacet
  facet normal 0 1 0
    outer loop
      vertex 10.2253 4.05 10
      vertex 15.2 4.05 5
      vertex 15.5438 4.05 3.94199
    endloop
  endfacet
  facet normal 0 1 0
    outer loop
      vertex 17.5562 4.05 3.2881
      vertex 23.3 4.05 0
      vertex 16.4438 4.05 3.2881
    endloop
  endfacet
  facet normal -0.642788 0.766044 0
    outer loop
      vertex 10.2253 4.05 10
      vertex 10.2253 4.05 0
      vertex 10.05 3.90289 10
    endloop
  endfacet
  facet normal -0.642788 0.766044 0
    outer loop
      vertex 10.05 3.90289 10
      vertex 10.2253 4.05 0
      vertex 10.05 3.90289 0
    endloop
  endfacet
  facet normal -0.34202 0.939693 0
    outer loop
      vertex 10.05 3.90289 10
      vertex 10.05 3.90289 0
      vertex 8.58142 3.36836 10
    endloop
  endfacet
  facet normal -0.34202 0.939693 0
    outer loop
      vertex 8.58142 3.36836 10
      vertex 10.05 3.90289 0
      vertex 8.58142 3.36836 0
    endloop
  endfacet
  facet normal 0 1 0
    outer loop
      vertex 8.58142 3.36836 10
      vertex 8.58142 3.36836 0
      vertex 7.01858 3.36836 10
    endloop
  endfacet
  facet normal 0 1 0
    outer loop
      vertex 7.01858 3.36836 10
      vertex 8.58142 3.36836 0
      vertex 7.01858 3.36836 0
    endloop
  endfacet
  facet normal 0.34202 0.939693 0
    outer loop
      vertex 7.01858 3.36836 10
      vertex 7.01858 3.36836 0
      vertex 5.55 3.90289 10
    endloop
  endfacet
  facet normal 0.34202 0.939693 0
    outer loop
      vertex 5.55 3.90289 10
      vertex 7.01858 3.36836 0
      vertex 5.55 3.90289 0
    endloop
  endfacet
  facet normal 0.642788 0.766044 0
    outer loop
      vertex 5.55 3.90289 10
      vertex 5.55 3.90289 0
      vertex 4.3528 4.90746 10
    endloop
  endfacet
  facet normal 0.642788 0.766044 0
    outer loop
      vertex 4.3528 4.90746 10
      vertex 5.55 3.90289 0
      vertex 4.3528 4.90746 0
    endloop
  endfacet
  facet normal 0.866025 0.5 0
    outer loop
      vertex 3.57138 6.26091 10
      vertex 4.3528 4.90746 10
      vertex 4.3528 4.90746 0
    endloop
  endfacet
  facet normal 0.866025 0.5 0
    outer loop
      vertex 3.57138 6.26091 0
      vertex 3.57138 6.26091 10
      vertex 4.3528 4.90746 0
    endloop
  endfacet
  facet normal 0.984808 0.173648 0
    outer loop
      vertex 3.3 7.8 10
      vertex 3.57138 6.26091 10
      vertex 3.57138 6.26091 0
    endloop
  endfacet
  facet normal 0.984808 0.173648 0
    outer loop
      vertex 3.3 7.8 0
      vertex 3.3 7.8 10
      vertex 3.57138 6.26091 0
    endloop
  endfacet
  facet normal 0.984808 -0.173648 0
    outer loop
      vertex 3.57138 9.33909 0
      vertex 3.57138 9.33909 10
      vertex 3.3 7.8 10
    endloop
  endfacet
  facet normal 0.984808 -0.173648 0
    outer loop
      vertex 3.3 7.8 0
      vertex 3.57138 9.33909 0
      vertex 3.3 7.8 10
    endloop
  endfacet
  facet normal 0.866025 -0.5 0
    outer loop
      vertex 4.3528 10.6925 0
      vertex 4.3528 10.6925 10
      vertex 3.57138 9.33909 10
    endloop
  endfacet
  facet normal 0.866025 -0.5 0
    outer loop
      vertex 3.57138 9.33909 0
      vertex 4.3528 10.6925 0
      vertex 3.57138 9.33909 10
    endloop
  endfacet
  facet normal 0.642788 -0.766044 0
    outer loop
      vertex 5.55 11.6971 0
      vertex 5.55 11.6971 10
      vertex 4.3528 10.6925 10
    endloop
  endfacet
  facet normal 0.642788 -0.766044 0
    outer loop
      vertex 4.3528 10.6925 0
      vertex 5.55 11.6971 0
      vertex 4.3528 10.6925 10
    endloop
  endfacet
  facet normal 0.34202 -0.939693 0
    outer loop
      vertex 7.01858 12.2316 0
      vertex 7.01858 12.2316 10
      vertex 5.55 11.6971 10
    endloop
  endfacet
  facet normal 0.34202 -0.939693 0
    outer loop
      vertex 5.55 11.6971 0
      vertex 7.01858 12.2316 0
      vertex 5.55 11.6971 10
    endloop
  endfacet
  facet normal 0 -1 0
    outer loop
      vertex 8.58142 12.2316 0
      vertex 8.58142 12.2316 10
      vertex 7.01858 12.2316 10
    endloop
  endfacet
  facet normal 0 -1 0
    outer loop
      vertex 7.01858 12.2316 0
      vertex 8.58142 12.2316 0
      vertex 7.01858 12.2316 10
    endloop
  endfacet
  facet normal -0.34202 -0.939693 0
    outer loop
      vertex 10.05 11.6971 0
      vertex 10.05 11.6971 10
      vertex 8.58142 12.2316 10
    endloop
  endfacet
  facet normal -0.34202 -0.939693 0
    outer loop
      vertex 8.58142 12.2316 0
      vertex 10.05 11.6971 0
      vertex 8.58142 12.2316 10
    endloop
  endfacet
  facet normal -0.642788 -0.766044 0
    outer loop
      vertex 10.2253 11.55 0
      vertex 10.2253 11.55 10
      vertex 10.05 11.6971 10
    endloop
  endfacet
  facet normal -0.642788 -0.766044 0
    outer loop
      vertex 10.05 11.6971 0
      vertex 10.2253 11.55 0
      vertex 10.05 11.6971 10
    endloop
  endfacet
  facet normal 0 -1 0
    outer loop
      vertex 16.4438 11.55 6.7119
      vertex 23.3 11.55 10
      vertex 10.2253 11.55 10
    endloop
  endfacet
  facet normal 0 -1 0
    outer loop
      vertex 16.4438 11.55 6.7119
      vertex 17.5562 11.55 6.7119
      vertex 23.3 11.55 10
    endloop
  endfacet
  facet normal 0 -1 0
    outer loop
      vertex 10.2253 11.55 0
      vertex 15.2 11.55 5
      vertex 10.2253 11.55 10
    endloop
  endfacet
  facet normal 0 -1 0
    outer loop
      vertex 15.5438 11.55 6.05801
      vertex 16.4438 11.55 6.7119
      vertex 10.2253 11.55 10
    endloop
  endfacet
  facet normal 0 -1 0
    outer loop
      vertex 18.4562 11.55 6.05801
      vertex 18.8 11.55 5
      vertex 23.3 11.55 0
    endloop
  endfacet
  facet normal 0 -1 0
    outer loop
      vertex 18.4562 11.55 6.05801
      vertex 23.3 11.55 10
      vertex 17.5562 11.55 6.7119
    endloop
  endfacet
  facet normal 0 -1 0
    outer loop
      vertex 23.3 11.55 0
      vertex 23.3 11.55 10
      vertex 18.4562 11.55 6.05801
    endloop
  endfacet
  facet normal 0 -1 0
    outer loop
      vertex 23.3 11.55 0
      vertex 18.8 11.55 5
      vertex 18.4562 11.55 3.94199
    endloop
  endfacet
  facet normal 0 -1 0
    outer loop
      vertex 10.2253 11.55 0
      vertex 23.3 11.55 0
      vertex 17.5562 11.55 3.2881
    endloop
  endfacet
  facet normal 0 -1 0
    outer loop
      vertex 10.2253 11.55 0
      vertex 17.5562 11.55 3.2881
      vertex 16.4438 11.55 3.2881
    endloop
  endfacet
  facet normal 0 -1 0
    outer loop
      vertex 10.2253 11.55 0
      vertex 15.5438 11.55 3.94199
      vertex 15.2 11.55 5
    endloop
  endfacet
  facet normal 0 -1 0
    outer loop
      vertex 10.2253 11.55 0
      vertex 16.4438 11.55 3.2881
      vertex 15.5438 11.55 3.94199
    endloop
  endfacet
  facet normal 0 -1 0
    outer loop
      vertex 15.2 11.55 5
      vertex 15.5438 11.55 6.05801
      vertex 10.2253 11.55 10
    endloop
  endfacet
  facet normal 0 -1 0
    outer loop
      vertex 18.4562 11.55 3.94199
      vertex 17.5562 11.55 3.2881
      vertex 23.3 11.55 0
    endloop
  endfacet
  facet normal 1 0 0
    outer loop
      vertex 23.3 11.55 10
      vertex 23.3 11.55 0
      vertex 23.3 15.6 0
    endloop
  endfacet
  facet normal 1 0 0
    outer loop
      vertex 23.3 15.6 10
      vertex 23.3 11.55 10
      vertex 23.3 15.6 0
    endloop
  endfacet
  facet normal 0 1 0
    outer loop
      vertex 22.77 15.6 5
      vertex 23.3 15.6 0
      vertex 19.885 15.6 0.003033
    endloop
  endfacet
  facet normal 0 1 0
    outer loop
      vertex 19.885 15.6 9.99697
      vertex 7.8 15.6 10
      vertex 23.3 15.6 10
    endloop
  endfacet
  facet normal 0 1 0
    outer loop
      vertex 7.8 15.6 0
      vertex 7.8 15.6 10
      vertex 11.23 15.6 5
    endloop
  endfacet
  facet normal 0 1 0
    outer loop
      vertex 7.8 15.6 0
      vertex 11.23 15.6 5
      vertex 14.115 15.6 0.003033
    endloop
  endfacet
  facet normal 0 1 0
    outer loop
      vertex 7.8 15.6 0
      vertex 14.115 15.6 0.003033
      vertex 23.3 15.6 0
    endloop
  endfacet
  facet normal 0 1 0
    outer loop
      vertex 14.115 15.6 0.003033
      vertex 19.885 15.6 0.003033
      vertex 23.3 15.6 0
    endloop
  endfacet
  facet normal 0 1 0
    outer loop
      vertex 23.3 15.6 0
      vertex 22.77 15.6 5
      vertex 23.3 15.6 10
    endloop
  endfacet
  facet normal 0 1 0
    outer loop
      vertex 14.115 15.6 9.99697
      vertex 7.8 15.6 10
      vertex 19.885 15.6 9.99697
    endloop
  endfacet
  facet normal 0 1 0
    outer loop
      vertex 22.77 15.6 5
      vertex 19.885 15.6 9.99697
      vertex 23.3 15.6 10
    endloop
  endfacet
  facet normal 0 1 0
    outer loop
      vertex 11.23 15.6 5
      vertex 7.8 15.6 10
      vertex 14.115 15.6 9.99697
    endloop
  endfacet
  facet normal -0.156434 0.987688 0
    outer loop
      vertex 5.38967 15.2182 0
      vertex 5.38967 15.2182 10
      vertex 7.8 15.6 0
    endloop
  endfacet
  facet normal -0.156434 0.987688 0
    outer loop
      vertex 7.8 15.6 0
      vertex 5.38967 15.2182 10
      vertex 7.8 15.6 10
    endloop
  endfacet
  facet normal -0.45399 0.891007 0
    outer loop
      vertex 3.21528 14.1103 0
      vertex 3.21528 14.1103 10
      vertex 5.38967 15.2182 0
    endloop
  endfacet
  facet normal -0.45399 0.891007 0
    outer loop
      vertex 5.38967 15.2182 0
      vertex 3.21528 14.1103 10
      vertex 5.38967 15.2182 10
    endloop
  endfacet
  facet normal -0.707107 0.707107 0
    outer loop
      vertex 1.48967 12.3847 0
      vertex 1.48967 12.3847 10
      vertex 3.21528 14.1103 0
    endloop
  endfacet
  facet normal -0.707107 0.707107 0
    outer loop
      vertex 3.21528 14.1103 0
      vertex 1.48967 12.3847 10
      vertex 3.21528 14.1103 10
    endloop
  endfacet
  facet normal -0.891007 0.45399 0
    outer loop
      vertex 0.381759 10.2103 0
      vertex 0.381759 10.2103 10
      vertex 1.48967 12.3847 0
    endloop
  endfacet
  facet normal -0.891007 0.45399 0
    outer loop
      vertex 1.48967 12.3847 0
      vertex 0.381759 10.2103 10
      vertex 1.48967 12.3847 10
    endloop
  endfacet
  facet normal -0.987688 0.156434 0
    outer loop
      vertex 0 7.8 0
      vertex 0 7.8 10
      vertex 0.381759 10.2103 0
    endloop
  endfacet
  facet normal -0.987688 0.156434 0
    outer loop
      vertex 0.381759 10.2103 0
      vertex 0 7.8 10
      vertex 0.381759 10.2103 10
    endloop
  endfacet
  facet normal -0.987688 -0.156434 0
    outer loop
      vertex 0 7.8 0
      vertex 0.381759 5.38967 0
      vertex 0 7.8 10
    endloop
  endfacet
  facet normal -0.987688 -0.156434 0
    outer loop
      vertex 0 7.8 10
      vertex 0.381759 5.38967 0
      vertex 0.381759 5.38967 10
    endloop
  endfacet
  facet normal -0.891007 -0.45399 0
    outer loop
      vertex 0.381759 5.38967 0
      vertex 1.08983 4 0
      vertex 0.381759 5.38967 10
    endloop
  endfacet
  facet normal -0.891007 -0.45399 0
    outer loop
      vertex 0.381759 5.38967 10
      vertex 1.08983 4 0
      vertex 1.08983 4 10
    endloop
  endfacet
  facet normal 0.951057 -6.86155e-17 -0.309017
    outer loop
      vertex 15.2 14.5 5
      vertex 15.5438 14.5 6.05801
      vertex 15.5438 11.55 6.05801
    endloop
  endfacet
  facet normal 0.951057 -6.86155e-17 -0.309017
    outer loop
      vertex 15.2 11.55 5
      vertex 15.2 14.5 5
      vertex 15.5438 11.55 6.05801
    endloop
  endfacet
  facet normal 0.951057 6.86155e-17 0.309017
    outer loop
      vertex 15.5438 11.55 3.94199
      vertex 15.5438 14.5 3.94199
      vertex 15.2 14.5 5
    endloop
  endfacet
  facet normal 0.951057 6.86155e-17 0.309017
    outer loop
      vertex 15.2 11.55 5
      vertex 15.5438 11.55 3.94199
      vertex 15.2 14.5 5
    endloop
  endfacet
  facet normal 0.587786 1.79638e-16 0.809017
    outer loop
      vertex 16.4438 11.55 3.2881
      vertex 16.4438 14.5 3.2881
      vertex 15.5438 14.5 3.94199
    endloop
  endfacet
  facet normal 0.587786 1.79638e-16 0.809017
    outer loop
      vertex 15.5438 11.55 3.94199
      vertex 16.4438 11.55 3.2881
      vertex 15.5438 14.5 3.94199
    endloop
  endfacet
  facet normal 0 2.22045e-16 1
    outer loop
      vertex 17.5562 11.55 3.2881
      vertex 17.5562 14.5 3.2881
      vertex 16.4438 14.5 3.2881
    endloop
  endfacet
  facet normal 0 2.22045e-16 1
    outer loop
      vertex 16.4438 11.55 3.2881
      vertex 17.5562 11.55 3.2881
      vertex 16.4438 14.5 3.2881
    endloop
  endfacet
  facet normal -0.587786 1.79638e-16 0.809017
    outer loop
      vertex 18.4562 11.55 3.94199
      vertex 18.4562 14.5 3.94199
      vertex 17.5562 14.5 3.2881
    endloop
  endfacet
  facet normal -0.587786 1.79638e-16 0.809017
    outer loop
      vertex 17.5562 11.55 3.2881
      vertex 18.4562 11.55 3.94199
      vertex 17.5562 14.5 3.2881
    endloop
  endfacet
  facet normal -0.951057 6.86155e-17 0.309017
    outer loop
      vertex 18.8 14.5 5
      vertex 18.4562 14.5 3.94199
      vertex 18.8 11.55 5
    endloop
  endfacet
  facet normal -0.951057 6.86155e-17 0.309017
    outer loop
      vertex 18.8 11.55 5
      vertex 18.4562 14.5 3.94199
      vertex 18.4562 11.55 3.94199
    endloop
  endfacet
  facet normal -0.951057 -6.86155e-17 -0.309017
    outer loop
      vertex 18.8 14.5 5
      vertex 18.8 11.55 5
      vertex 18.4562 14.5 6.05801
    endloop
  endfacet
  facet normal -0.951057 -6.86155e-17 -0.309017
    outer loop
      vertex 18.4562 14.5 6.05801
      vertex 18.8 11.55 5
      vertex 18.4562 11.55 6.05801
    endloop
  endfacet
  facet normal -0.587786 -1.79638e-16 -0.809017
    outer loop
      vertex 18.4562 14.5 6.05801
      vertex 18.4562 11.55 6.05801
      vertex 17.5562 14.5 6.7119
    endloop
  endfacet
  facet normal -0.587786 -1.79638e-16 -0.809017
    outer loop
      vertex 17.5562 14.5 6.7119
      vertex 18.4562 11.55 6.05801
      vertex 17.5562 11.55 6.7119
    endloop
  endfacet
  facet normal 0 -2.22045e-16 -1
    outer loop
      vertex 17.5562 14.5 6.7119
      vertex 17.5562 11.55 6.7119
      vertex 16.4438 14.5 6.7119
    endloop
  endfacet
  facet normal 0 -2.22045e-16 -1
    outer loop
      vertex 16.4438 14.5 6.7119
      vertex 17.5562 11.55 6.7119
      vertex 16.4438 11.55 6.7119
    endloop
  endfacet
  facet normal 0.587786 -1.79638e-16 -0.809017
    outer loop
      vertex 16.4438 14.5 6.7119
      vertex 16.4438 11.55 6.7119
      vertex 15.5438 14.5 6.05801
    endloop
  endfacet
  facet normal 0.587786 -1.79638e-16 -0.809017
    outer loop
      vertex 15.5438 14.5 6.05801
      vertex 16.4438 11.55 6.7119
      vertex 15.5438 11.55 6.05801
    endloop
  endfacet
  facet normal -0.866025 1.11022e-16 0.5
    outer loop
      vertex 11.23 15.6 5
      vertex 14.115 15.6 9.99697
      vertex 11.23 17.5 5
    endloop
  endfacet
  facet normal -0.866025 1.11022e-16 0.5
    outer loop
      vertex 11.23 17.5 5
      vertex 14.115 15.6 9.99697
      vertex 14.115 17.5 9.99697
    endloop
  endfacet
  facet normal -0.866025 -1.11022e-16 -0.5
    outer loop
      vertex 11.23 15.6 5
      vertex 11.23 17.5 5
      vertex 14.115 15.6 0.003033
    endloop
  endfacet
  facet normal -0.866025 -1.11022e-16 -0.5
    outer loop
      vertex 14.115 15.6 0.003033
      vertex 11.23 17.5 5
      vertex 14.115 17.5 0.003033
    endloop
  endfacet
  facet normal 0 2.22045e-16 1
    outer loop
      vertex 14.115 17.5 9.99697
      vertex 14.115 15.6 9.99697
      vertex 19.885 15.6 9.99697
    endloop
  endfacet
  facet normal 0 2.22045e-16 1
    outer loop
      vertex 19.885 17.5 9.99697
      vertex 14.115 17.5 9.99697
      vertex 19.885 15.6 9.99697
    endloop
  endfacet
  facet normal 0.866025 1.11022e-16 0.5
    outer loop
      vertex 19.885 17.5 9.99697
      vertex 19.885 15.6 9.99697
      vertex 22.77 15.6 5
    endloop
  endfacet
  facet normal 0.866025 1.11022e-16 0.5
    outer loop
      vertex 22.77 17.5 5
      vertex 19.885 17.5 9.99697
      vertex 22.77 15.6 5
    endloop
  endfacet
  facet normal 0.866025 -1.11022e-16 -0.5
    outer loop
      vertex 22.77 15.6 5
      vertex 19.885 15.6 0.003033
      vertex 19.885 17.5 0.003033
    endloop
  endfacet
  facet normal 0.866025 -1.11022e-16 -0.5
    outer loop
      vertex 22.77 17.5 5
      vertex 22.77 15.6 5
      vertex 19.885 17.5 0.003033
    endloop
  endfacet
  facet normal 0 -2.22045e-16 -1
    outer loop
      vertex 14.115 15.6 0.003033
      vertex 14.115 17.5 0.003033
      vertex 19.885 15.6 0.003033
    endloop
  endfacet
  facet normal 0 -2.22045e-16 -1
    outer loop
      vertex 19.885 15.6 0.003033
      vertex 14.115 17.5 0.003033
      vertex 19.885 17.5 0.003033
    endloop
  endfacet
  facet normal 0 1 -2.22045e-16
    outer loop
      vertex 16.4438 14.5 6.7119
      vertex 15.475 14.5 7.64138
      vertex 17.5562 14.5 6.7119
    endloop
  endfacet
  facet normal 0 1 -2.22045e-16
    outer loop
      vertex 18.4562 14.5 3.94199
      vertex 20.05 14.5 5
      vertex 18.525 14.5 2.35862
    endloop
  endfacet
  facet normal 0 1 -2.22045e-16
    outer loop
      vertex 16.4438 14.5 3.2881
      vertex 18.525 14.5 2.35862
      vertex 15.475 14.5 2.35862
    endloop
  endfacet
  facet normal 0 1 -2.22045e-16
    outer loop
      vertex 15.2 14.5 5
      vertex 15.475 14.5 2.35862
      vertex 13.95 14.5 5
    endloop
  endfacet
  facet normal 0 1 -2.22045e-16
    outer loop
      vertex 18.4562 14.5 3.94199
      vertex 18.525 14.5 2.35862
      vertex 17.5562 14.5 3.2881
    endloop
  endfacet
  facet normal 0 1 -2.22045e-16
    outer loop
      vertex 17.5562 14.5 3.2881
      vertex 18.525 14.5 2.35862
      vertex 16.4438 14.5 3.2881
    endloop
  endfacet
  facet normal 0 1 -2.22045e-16
    outer loop
      vertex 15.5438 14.5 3.94199
      vertex 16.4438 14.5 3.2881
      vertex 15.475 14.5 2.35862
    endloop
  endfacet
  facet normal 0 1 -2.22045e-16
    outer loop
      vertex 18.8 14.5 5
      vertex 20.05 14.5 5
      vertex 18.4562 14.5 3.94199
    endloop
  endfacet
  facet normal 0 1 -2.22045e-16
    outer loop
      vertex 18.4562 14.5 6.05801
      vertex 20.05 14.5 5
      vertex 18.8 14.5 5
    endloop
  endfacet
  facet normal 0 1 -2.22045e-16
    outer loop
      vertex 18.525 14.5 7.64138
      vertex 20.05 14.5 5
      vertex 18.4562 14.5 6.05801
    endloop
  endfacet
  facet normal 0 1 -2.22045e-16
    outer loop
      vertex 18.525 14.5 7.64138
      vertex 18.4562 14.5 6.05801
      vertex 17.5562 14.5 6.7119
    endloop
  endfacet
  facet normal 0 1 -2.22045e-16
    outer loop
      vertex 18.525 14.5 7.64138
      vertex 17.5562 14.5 6.7119
      vertex 15.475 14.5 7.64138
    endloop
  endfacet
  facet normal 0 1 -2.22045e-16
    outer loop
      vertex 15.5438 14.5 6.05801
      vertex 15.475 14.5 7.64138
      vertex 16.4438 14.5 6.7119
    endloop
  endfacet
  facet normal 0 1 -2.22045e-16
    outer loop
      vertex 15.2 14.5 5
      vertex 15.475 14.5 7.64138
      vertex 15.5438 14.5 6.05801
    endloop
  endfacet
  facet normal 0 1 -2.22045e-16
    outer loop
      vertex 15.475 14.5 7.64138
      vertex 15.2 14.5 5
      vertex 13.95 14.5 5
    endloop
  endfacet
  facet normal 0 1 -2.22045e-16
    outer loop
      vertex 15.5438 14.5 3.94199
      vertex 15.475 14.5 2.35862
      vertex 15.2 14.5 5
    endloop
  endfacet
  facet normal 0 1 -2.22045e-16
    outer loop
      vertex 15.475 17.5 2.35862
      vertex 14.115 17.5 0.003033
      vertex 13.95 17.5 5
    endloop
  endfacet
  facet normal 0 1 -2.22045e-16
    outer loop
      vertex 15.475 17.5 7.64138
      vertex 14.115 17.5 9.99697
      vertex 19.885 17.5 9.99697
    endloop
  endfacet
  facet normal 0 1 -2.22045e-16
    outer loop
      vertex 20.05 17.5 5
      vertex 19.885 17.5 9.99697
      vertex 22.77 17.5 5
    endloop
  endfacet
  facet normal 0 1 -2.22045e-16
    outer loop
      vertex 18.525 17.5 2.35862
      vertex 22.77 17.5 5
      vertex 19.885 17.5 0.003033
    endloop
  endfacet
  facet normal 0 1 -2.22045e-16
    outer loop
      vertex 11.23 17.5 5
      vertex 14.115 17.5 9.99697
      vertex 13.95 17.5 5
    endloop
  endfacet
  facet normal 0 1 -2.22045e-16
    outer loop
      vertex 11.23 17.5 5
      vertex 13.95 17.5 5
      vertex 14.115 17.5 0.003033
    endloop
  endfacet
  facet normal 0 1 -2.22045e-16
    outer loop
      vertex 20.05 17.5 5
      vertex 22.77 17.5 5
      vertex 18.525 17.5 2.35862
    endloop
  endfacet
  facet normal 0 1 -2.22045e-16
    outer loop
      vertex 14.115 17.5 0.003033
      vertex 18.525 17.5 2.35862
      vertex 19.885 17.5 0.003033
    endloop
  endfacet
  facet normal 0 1 -2.22045e-16
    outer loop
      vertex 18.525 17.5 7.64138
      vertex 19.885 17.5 9.99697
      vertex 20.05 17.5 5
    endloop
  endfacet
  facet normal 0 1 -2.22045e-16
    outer loop
      vertex 13.95 17.5 5
      vertex 14.115 17.5 9.99697
      vertex 15.475 17.5 7.64138
    endloop
  endfacet
  facet normal 0 1 -2.22045e-16
    outer loop
      vertex 18.525 17.5 2.35862
      vertex 14.115 17.5 0.003033
      vertex 15.475 17.5 2.35862
    endloop
  endfacet
  facet normal 0 1 -2.22045e-16
    outer loop
      vertex 15.475 17.5 7.64138
      vertex 19.885 17.5 9.99697
      vertex 18.525 17.5 7.64138
    endloop
  endfacet
  facet normal 0 -2.22045e-16 -1
    outer loop
      vertex 18.525 17.5 7.64138
      vertex 18.525 14.5 7.64138
      vertex 15.475 17.5 7.64138
    endloop
  endfacet
  facet normal 0 -2.22045e-16 -1
    outer loop
      vertex 15.475 17.5 7.64138
      vertex 18.525 14.5 7.64138
      vertex 15.475 14.5 7.64138
    endloop
  endfacet
  facet normal 0.866025 -1.11022e-16 -0.5
    outer loop
      vertex 13.95 17.5 5
      vertex 15.475 17.5 7.64138
      vertex 15.475 14.5 7.64138
    endloop
  endfacet
  facet normal 0.866025 -1.11022e-16 -0.5
    outer loop
      vertex 13.95 14.5 5
      vertex 13.95 17.5 5
      vertex 15.475 14.5 7.64138
    endloop
  endfacet
  facet normal 0.866025 1.11022e-16 0.5
    outer loop
      vertex 15.475 14.5 2.35862
      vertex 15.475 17.5 2.35862
      vertex 13.95 17.5 5
    endloop
  endfacet
  facet normal 0.866025 1.11022e-16 0.5
    outer loop
      vertex 13.95 14.5 5
      vertex 15.475 14.5 2.35862
      vertex 13.95 17.5 5
    endloop
  endfacet
  facet normal 0 2.22045e-16 1
    outer loop
      vertex 18.525 14.5 2.35862
      vertex 18.525 17.5 2.35862
      vertex 15.475 17.5 2.35862
    endloop
  endfacet
  facet normal 0 2.22045e-16 1
    outer loop
      vertex 15.475 14.5 2.35862
      vertex 18.525 14.5 2.35862
      vertex 15.475 17.5 2.35862
    endloop
  endfacet
  facet normal -0.866025 1.11022e-16 0.5
    outer loop
      vertex 20.05 17.5 5
      vertex 18.525 17.5 2.35862
      vertex 20.05 14.5 5
    endloop
  endfacet
  facet normal -0.866025 1.11022e-16 0.5
    outer loop
      vertex 20.05 14.5 5
      vertex 18.525 17.5 2.35862
      vertex 18.525 14.5 2.35862
    endloop
  endfacet
  facet normal -0.866025 -1.11022e-16 -0.5
    outer loop
      vertex 20.05 17.5 5
      vertex 20.05 14.5 5
      vertex 18.525 17.5 7.64138
    endloop
  endfacet
  facet normal -0.866025 -1.11022e-16 -0.5
    outer loop
      vertex 18.525 17.5 7.64138
      vertex 20.05 14.5 5
      vertex 18.525 14.5 7.64138
    endloop
  endfacet
endsolid OpenSCAD_Model
