solid OpenSCAD_Model
  facet normal 0 0 -1
    outer loop
      vertex -16 0 0
      vertex -12.5 6.06218 0
      vertex -12.5 -6.06218 0
    endloop
  endfacet
  facet normal 0 0 -1
    outer loop
      vertex -10.262 1.58245 0
      vertex -12.5 6.06218 0
      vertex -5.5 6.06218 0
    endloop
  endfacet
  facet normal 0 0 -1
    outer loop
      vertex -7.17641 -0.878194 0
      vertex -4.88675 5 0
      vertex 4.88675 5 0
    endloop
  endfacet
  facet normal 0 0 -1
    outer loop
      vertex 4.88675 5 0
      vertex 5.5 6.06218 0
      vertex 12.5 6.06218 0
    endloop
  endfacet
  facet normal 0 0 -1
    outer loop
      vertex 4.88675 5 0
      vertex 12.5 6.06218 0
      vertex -12.5 -6.06218 0
    endloop
  endfacet
  facet normal 0 0 -1
    outer loop
      vertex 10.8236 0.878194 0
      vertex 12.5 6.06218 0
      vertex 16 0 0
    endloop
  endfacet
  facet normal 0 0 -1
    outer loop
      vertex 5.5 -6.06218 0
      vertex 16 0 0
      vertex 12.5 -6.06218 0
    endloop
  endfacet
  facet normal 0 0 -1
    outer loop
      vertex 4.88675 -5 0
      vertex 16 0 0
      vertex 5.5 -6.06218 0
    endloop
  endfacet
  facet normal 0 0 -1
    outer loop
      vertex 9.45039 -1.97328 0
      vertex 16 0 0
      vertex 4.88675 -5 0
    endloop
  endfacet
  facet normal 0 0 -1
    outer loop
      vertex -8.54961 -1.97328 0
      vertex -12.5 -6.06218 0
      vertex -10.262 -1.58245 0
    endloop
  endfacet
  facet normal 0 0 -1
    outer loop
      vertex -12.5 -6.06218 0
      vertex -12.5 6.06218 0
      vertex -11.024 2.47872e-16 0
    endloop
  endfacet
  facet normal 0 0 -1
    outer loop
      vertex 9.45039 -1.97328 0
      vertex -12.5 -6.06218 0
      vertex 7.73804 -1.58245 0
    endloop
  endfacet
  facet normal 0 0 -1
    outer loop
      vertex -12.5 -6.06218 0
      vertex -11.024 2.47872e-16 0
      vertex -10.262 -1.58245 0
    endloop
  endfacet
  facet normal 0 0 -1
    outer loop
      vertex -8.54961 1.97328 0
      vertex -5.5 6.06218 0
      vertex -4.88675 5 0
    endloop
  endfacet
  facet normal 0 0 -1
    outer loop
      vertex -12.5 -6.06218 0
      vertex -8.54961 -1.97328 0
      vertex 4.88675 5 0
    endloop
  endfacet
  facet normal 0 0 -1
    outer loop
      vertex -8.54961 1.97328 0
      vertex -4.88675 5 0
      vertex -7.17641 0.878194 0
    endloop
  endfacet
  facet normal 0 0 -1
    outer loop
      vertex -8.54961 -1.97328 0
      vertex -7.17641 -0.878194 0
      vertex 4.88675 5 0
    endloop
  endfacet
  facet normal 0 0 -1
    outer loop
      vertex -7.17641 0.878194 0
      vertex -4.88675 5 0
      vertex -7.17641 -0.878194 0
    endloop
  endfacet
  facet normal 0 0 -1
    outer loop
      vertex -10.262 1.58245 0
      vertex -5.5 6.06218 0
      vertex -8.54961 1.97328 0
    endloop
  endfacet
  facet normal 0 0 -1
    outer loop
      vertex -11.024 2.47872e-16 0
      vertex -12.5 6.06218 0
      vertex -10.262 1.58245 0
    endloop
  endfacet
  facet normal 0 0 -1
    outer loop
      vertex 9.45039 -1.97328 0
      vertex -4.88675 -5 0
      vertex -12.5 -6.06218 0
    endloop
  endfacet
  facet normal 0 0 -1
    outer loop
      vertex -12.5 -6.06218 0
      vertex 6.97597 2.47872e-16 0
      vertex 7.73804 -1.58245 0
    endloop
  endfacet
  facet normal 0 0 -1
    outer loop
      vertex 10.8236 -0.878194 0
      vertex 16 0 0
      vertex 9.45039 -1.97328 0
    endloop
  endfacet
  facet normal 0 0 -1
    outer loop
      vertex -4.88675 -5 0
      vertex 9.45039 -1.97328 0
      vertex 4.88675 -5 0
    endloop
  endfacet
  facet normal 0 0 -1
    outer loop
      vertex 10.8236 0.878194 0
      vertex 16 0 0
      vertex 10.8236 -0.878194 0
    endloop
  endfacet
  facet normal 0 0 -1
    outer loop
      vertex 9.45039 1.97328 0
      vertex 12.5 6.06218 0
      vertex 10.8236 0.878194 0
    endloop
  endfacet
  facet normal 0 0 -1
    outer loop
      vertex 7.73804 1.58245 0
      vertex 12.5 6.06218 0
      vertex 9.45039 1.97328 0
    endloop
  endfacet
  facet normal 0 0 -1
    outer loop
      vertex -12.5 -6.06218 0
      vertex 12.5 6.06218 0
      vertex 7.73804 1.58245 0
    endloop
  endfacet
  facet normal 0 0 -1
    outer loop
      vertex -12.5 -6.06218 0
      vertex 7.73804 1.58245 0
      vertex 6.97597 2.47872e-16 0
    endloop
  endfacet
  facet normal 0 0 -1
    outer loop
      vertex -5.5 -6.06218 0
      vertex -12.5 -6.06218 0
      vertex -4.88675 -5 0
    endloop
  endfacet
  facet normal -0.866025 0.5 0
    outer loop
      vertex -16 0 0
      vertex -16 0 3
      vertex -12.5 6.06218 0
    endloop
  endfacet
  facet normal -0.866025 0.5 0
    outer loop
      vertex -12.5 6.06218 0
      vertex -16 0 3
      vertex -12.5 6.06218 3
    endloop
  endfacet
  facet normal -0.866025 -0.5 0
    outer loop
      vertex -16 0 0
      vertex -12.5 -6.06218 0
      vertex -16 0 3
    endloop
  endfacet
  facet normal -0.866025 -0.5 0
    outer loop
      vertex -16 0 3
      vertex -12.5 -6.06218 0
      vertex -12.5 -6.06218 3
    endloop
  endfacet
  facet normal 0 -1 0
    outer loop
      vertex -12.5 -6.06218 3
      vertex -12.5 -6.06218 0
      vertex -5.5 -6.06218 0
    endloop
  endfacet
  facet normal 0 -1 0
    outer loop
      vertex -5.5 -6.06218 3
      vertex -12.5 -6.06218 3
      vertex -5.5 -6.06218 0
    endloop
  endfacet
  facet normal 0.866025 -0.5 0
    outer loop
      vertex -5.5 -6.06218 3
      vertex -5.5 -6.06218 0
      vertex -4.88675 -5 0
    endloop
  endfacet
  facet normal 0.866025 -0.5 0
    outer loop
      vertex -4.88675 -5 3
      vertex -5.5 -6.06218 3
      vertex -4.88675 -5 0
    endloop
  endfacet
  facet normal 0 -1 0
    outer loop
      vertex -4.88675 -5 3
      vertex -4.88675 -5 0
      vertex 4.88675 -5 0
    endloop
  endfacet
  facet normal 0 -1 0
    outer loop
      vertex 4.88675 -5 3
      vertex -4.88675 -5 3
      vertex 4.88675 -5 0
    endloop
  endfacet
  facet normal -0.866025 -0.5 0
    outer loop
      vertex 4.88675 -5 0
      vertex 5.5 -6.06218 0
      vertex 4.88675 -5 3
    endloop
  endfacet
  facet normal -0.866025 -0.5 0
    outer loop
      vertex 4.88675 -5 3
      vertex 5.5 -6.06218 0
      vertex 5.5 -6.06218 3
    endloop
  endfacet
  facet normal 0 -1 0
    outer loop
      vertex 5.5 -6.06218 3
      vertex 5.5 -6.06218 0
      vertex 12.5 -6.06218 0
    endloop
  endfacet
  facet normal 0 -1 0
    outer loop
      vertex 12.5 -6.06218 3
      vertex 5.5 -6.06218 3
      vertex 12.5 -6.06218 0
    endloop
  endfacet
  facet normal 0.866025 -0.5 0
    outer loop
      vertex 12.5 -6.06218 3
      vertex 12.5 -6.06218 0
      vertex 16 0 0
    endloop
  endfacet
  facet normal 0.866025 -0.5 0
    outer loop
      vertex 16 0 3
      vertex 12.5 -6.06218 3
      vertex 16 0 0
    endloop
  endfacet
  facet normal 0.866025 0.5 0
    outer loop
      vertex 16 0 0
      vertex 12.5 6.06218 0
      vertex 12.5 6.06218 3
    endloop
  endfacet
  facet normal 0.866025 0.5 0
    outer loop
      vertex 16 0 3
      vertex 16 0 0
      vertex 12.5 6.06218 3
    endloop
  endfacet
  facet normal 0 1 0
    outer loop
      vertex 5.5 6.06218 0
      vertex 5.5 6.06218 3
      vertex 12.5 6.06218 0
    endloop
  endfacet
  facet normal 0 1 0
    outer loop
      vertex 12.5 6.06218 0
      vertex 5.5 6.06218 3
      vertex 12.5 6.06218 3
    endloop
  endfacet
  facet normal -0.866025 0.5 0
    outer loop
      vertex 4.88675 5 0
      vertex 4.88675 5 3
      vertex 5.5 6.06218 0
    endloop
  endfacet
  facet normal -0.866025 0.5 0
    outer loop
      vertex 5.5 6.06218 0
      vertex 4.88675 5 3
      vertex 5.5 6.06218 3
    endloop
  endfacet
  facet normal 0 1 0
    outer loop
      vertex -4.88675 5 0
      vertex -4.88675 5 3
      vertex 4.88675 5 0
    endloop
  endfacet
  facet normal 0 1 0
    outer loop
      vertex 4.88675 5 0
      vertex -4.88675 5 3
      vertex 4.88675 5 3
    endloop
  endfacet
  facet normal 0.866025 0.5 0
    outer loop
      vertex -4.88675 5 0
      vertex -5.5 6.06218 0
      vertex -5.5 6.06218 3
    endloop
  endfacet
  facet normal 0.866025 0.5 0
    outer loop
      vertex -4.88675 5 3
      vertex -4.88675 5 0
      vertex -5.5 6.06218 3
    endloop
  endfacet
  facet normal 0 1 0
    outer loop
      vertex -12.5 6.06218 0
      vertex -12.5 6.06218 3
      vertex -5.5 6.06218 0
    endloop
  endfacet
  facet normal 0 1 0
    outer loop
      vertex -5.5 6.06218 0
      vertex -12.5 6.06218 3
      vertex -5.5 6.06218 3
    endloop
  endfacet
  facet normal 0.900969 0.433884 0
    outer loop
      vertex -11.024 2.47872e-16 0.5
      vertex -10.262 -1.58245 0.5
      vertex -10.262 -1.58245 0
    endloop
  endfacet
  facet normal 0.900969 0.433884 0
    outer loop
      vertex -11.024 2.47872e-16 0
      vertex -11.024 2.47872e-16 0.5
      vertex -10.262 -1.58245 0
    endloop
  endfacet
  facet normal 0.900969 -0.433884 0
    outer loop
      vertex -10.262 1.58245 0
      vertex -10.262 1.58245 0.5
      vertex -11.024 2.47872e-16 0.5
    endloop
  endfacet
  facet normal 0.900969 -0.433884 0
    outer loop
      vertex -11.024 2.47872e-16 0
      vertex -10.262 1.58245 0
      vertex -11.024 2.47872e-16 0.5
    endloop
  endfacet
  facet normal 0.222521 -0.974928 0
    outer loop
      vertex -8.54961 1.97328 0
      vertex -8.54961 1.97328 0.5
      vertex -10.262 1.58245 0.5
    endloop
  endfacet
  facet normal 0.222521 -0.974928 0
    outer loop
      vertex -10.262 1.58245 0
      vertex -8.54961 1.97328 0
      vertex -10.262 1.58245 0.5
    endloop
  endfacet
  facet normal -0.62349 -0.781831 0
    outer loop
      vertex -7.17641 0.878194 0
      vertex -7.17641 0.878194 0.5
      vertex -8.54961 1.97328 0.5
    endloop
  endfacet
  facet normal -0.62349 -0.781831 0
    outer loop
      vertex -8.54961 1.97328 0
      vertex -7.17641 0.878194 0
      vertex -8.54961 1.97328 0.5
    endloop
  endfacet
  facet normal -1 1.22465e-16 0
    outer loop
      vertex -7.17641 0.878194 0.5
      vertex -7.17641 0.878194 0
      vertex -7.17641 -0.878194 0.5
    endloop
  endfacet
  facet normal -1 1.22465e-16 0
    outer loop
      vertex -7.17641 -0.878194 0.5
      vertex -7.17641 0.878194 0
      vertex -7.17641 -0.878194 0
    endloop
  endfacet
  facet normal -0.62349 0.781831 0
    outer loop
      vertex -7.17641 -0.878194 0.5
      vertex -7.17641 -0.878194 0
      vertex -8.54961 -1.97328 0.5
    endloop
  endfacet
  facet normal -0.62349 0.781831 0
    outer loop
      vertex -8.54961 -1.97328 0.5
      vertex -7.17641 -0.878194 0
      vertex -8.54961 -1.97328 0
    endloop
  endfacet
  facet normal 0.222521 0.974928 0
    outer loop
      vertex -8.54961 -1.97328 0.5
      vertex -8.54961 -1.97328 0
      vertex -10.262 -1.58245 0.5
    endloop
  endfacet
  facet normal 0.222521 0.974928 0
    outer loop
      vertex -10.262 -1.58245 0.5
      vertex -8.54961 -1.97328 0
      vertex -10.262 -1.58245 0
    endloop
  endfacet
  facet normal 0.900969 0.433884 0
    outer loop
      vertex 6.97597 2.47872e-16 0.5
      vertex 7.73804 -1.58245 0.5
      vertex 7.73804 -1.58245 0
    endloop
  endfacet
  facet normal 0.900969 0.433884 0
    outer loop
      vertex 6.97597 2.47872e-16 0
      vertex 6.97597 2.47872e-16 0.5
      vertex 7.73804 -1.58245 0
    endloop
  endfacet
  facet normal 0.900969 -0.433884 0
    outer loop
      vertex 7.73804 1.58245 0
      vertex 7.73804 1.58245 0.5
      vertex 6.97597 2.47872e-16 0.5
    endloop
  endfacet
  facet normal 0.900969 -0.433884 0
    outer loop
      vertex 6.97597 2.47872e-16 0
      vertex 7.73804 1.58245 0
      vertex 6.97597 2.47872e-16 0.5
    endloop
  endfacet
  facet normal 0.222521 -0.974928 0
    outer loop
      vertex 9.45039 1.97328 0
      vertex 9.45039 1.97328 0.5
      vertex 7.73804 1.58245 0.5
    endloop
  endfacet
  facet normal 0.222521 -0.974928 0
    outer loop
      vertex 7.73804 1.58245 0
      vertex 9.45039 1.97328 0
      vertex 7.73804 1.58245 0.5
    endloop
  endfacet
  facet normal -0.62349 -0.781831 0
    outer loop
      vertex 10.8236 0.878194 0
      vertex 10.8236 0.878194 0.5
      vertex 9.45039 1.97328 0.5
    endloop
  endfacet
  facet normal -0.62349 -0.781831 0
    outer loop
      vertex 9.45039 1.97328 0
      vertex 10.8236 0.878194 0
      vertex 9.45039 1.97328 0.5
    endloop
  endfacet
  facet normal -1 1.22465e-16 0
    outer loop
      vertex 10.8236 0.878194 0.5
      vertex 10.8236 0.878194 0
      vertex 10.8236 -0.878194 0.5
    endloop
  endfacet
  facet normal -1 1.22465e-16 0
    outer loop
      vertex 10.8236 -0.878194 0.5
      vertex 10.8236 0.878194 0
      vertex 10.8236 -0.878194 0
    endloop
  endfacet
  facet normal -0.62349 0.781831 0
    outer loop
      vertex 10.8236 -0.878194 0.5
      vertex 10.8236 -0.878194 0
      vertex 9.45039 -1.97328 0.5
    endloop
  endfacet
  facet normal -0.62349 0.781831 0
    outer loop
      vertex 9.45039 -1.97328 0.5
      vertex 10.8236 -0.878194 0
      vertex 9.45039 -1.97328 0
    endloop
  endfacet
  facet normal 0.222521 0.974928 0
    outer loop
      vertex 9.45039 -1.97328 0.5
      vertex 9.45039 -1.97328 0
      vertex 7.73804 -1.58245 0.5
    endloop
  endfacet
  facet normal 0.222521 0.974928 0
    outer loop
      vertex 7.73804 -1.58245 0.5
      vertex 9.45039 -1.97328 0
      vertex 7.73804 -1.58245 0
    endloop
  endfacet
  facet normal 0 0 1
    outer loop
      vertex -12.6244 -0.473205 3
      vertex -16 0 3
      vertex -12.5 -6.06218 3
    endloop
  endfacet
  facet normal 0 0 1
    outer loop
      vertex 5.3756 0.473205 3
      vertex -4.88675 5 3
      vertex -12.5 6.06218 3
    endloop
  endfacet
  facet normal 0 0 1
    outer loop
      vertex -12.6244 0.473205 3
      vertex -11.222 2.90222 3
      vertex -12.5 6.06218 3
    endloop
  endfacet
  facet normal 0 0 1
    outer loop
      vertex -4.90239 -5.01812e-16 3
      vertex -5.3756 -0.473205 3
      vertex -4.88675 -5 3
    endloop
  endfacet
  facet normal 0 0 1
    outer loop
      vertex 12.5 -6.06218 3
      vertex 4.88675 -5 3
      vertex 5.5 -6.06218 3
    endloop
  endfacet
  facet normal 0 0 1
    outer loop
      vertex 7.59761 3.37543 3
      vertex 5.5 6.06218 3
      vertex 4.88675 5 3
    endloop
  endfacet
  facet normal 0 0 1
    outer loop
      vertex -13.0976 1.00362e-15 3
      vertex -16 0 3
      vertex -12.6244 -0.473205 3
    endloop
  endfacet
  facet normal 0 0 1
    outer loop
      vertex -12.5 6.06218 3
      vertex -16 0 3
      vertex -13.0976 1.00362e-15 3
    endloop
  endfacet
  facet normal 0 0 1
    outer loop
      vertex -12.5 6.06218 3
      vertex -13.0976 1.00362e-15 3
      vertex -12.6244 0.473205 3
    endloop
  endfacet
  facet normal 0 0 1
    outer loop
      vertex 5.3756 0.473205 3
      vertex -12.5 6.06218 3
      vertex -6.9512 3.54863 3
    endloop
  endfacet
  facet normal 0 0 1
    outer loop
      vertex -11.0488 3.54863 3
      vertex -12.5 6.06218 3
      vertex -11.222 2.90222 3
    endloop
  endfacet
  facet normal 0 0 1
    outer loop
      vertex 5.3756 0.473205 3
      vertex 6.77799 2.90222 3
      vertex -4.88675 5 3
    endloop
  endfacet
  facet normal 0 0 1
    outer loop
      vertex -7.59761 3.37543 3
      vertex -6.9512 3.54863 3
      vertex -12.5 6.06218 3
    endloop
  endfacet
  facet normal 0 0 1
    outer loop
      vertex -6.9512 -3.54863 3
      vertex -7.59761 -3.37543 3
      vertex -5.5 -6.06218 3
    endloop
  endfacet
  facet normal 0 0 1
    outer loop
      vertex 6.9512 -3.54863 3
      vertex 6.77799 -2.90222 3
      vertex -6.9512 3.54863 3
    endloop
  endfacet
  facet normal 0 0 1
    outer loop
      vertex 7.59761 3.37543 3
      vertex 10.4024 3.37543 3
      vertex 5.5 6.06218 3
    endloop
  endfacet
  facet normal 0 0 1
    outer loop
      vertex 6.9512 -3.54863 3
      vertex -6.77799 2.90222 3
      vertex 4.88675 -5 3
    endloop
  endfacet
  facet normal 0 0 1
    outer loop
      vertex -5.3756 -0.473205 3
      vertex -6.77799 -2.90222 3
      vertex -4.88675 -5 3
    endloop
  endfacet
  facet normal 0 0 1
    outer loop
      vertex 4.88675 -5 3
      vertex -4.90239 -5.01812e-16 3
      vertex -4.88675 -5 3
    endloop
  endfacet
  facet normal 0 0 1
    outer loop
      vertex 4.88675 -5 3
      vertex -5.3756 0.473205 3
      vertex -4.90239 -5.01812e-16 3
    endloop
  endfacet
  facet normal 0 0 1
    outer loop
      vertex -4.88675 -5 3
      vertex -6.77799 -2.90222 3
      vertex -5.5 -6.06218 3
    endloop
  endfacet
  facet normal 0 0 1
    outer loop
      vertex -10.4024 3.37543 3
      vertex -7.59761 3.37543 3
      vertex -12.5 6.06218 3
    endloop
  endfacet
  facet normal 0 0 1
    outer loop
      vertex -6.77799 -2.90222 3
      vertex -6.9512 -3.54863 3
      vertex -5.5 -6.06218 3
    endloop
  endfacet
  facet normal 0 0 1
    outer loop
      vertex -6.77799 2.90222 3
      vertex -5.3756 0.473205 3
      vertex 4.88675 -5 3
    endloop
  endfacet
  facet normal 0 0 1
    outer loop
      vertex -5.5 -6.06218 3
      vertex -7.59761 -3.37543 3
      vertex -12.5 -6.06218 3
    endloop
  endfacet
  facet normal 0 0 1
    outer loop
      vertex -7.59761 -3.37543 3
      vertex -10.4024 -3.37543 3
      vertex -12.5 -6.06218 3
    endloop
  endfacet
  facet normal 0 0 1
    outer loop
      vertex -10.4024 -3.37543 3
      vertex -11.0488 -3.54863 3
      vertex -12.5 -6.06218 3
    endloop
  endfacet
  facet normal 0 0 1
    outer loop
      vertex -11.0488 -3.54863 3
      vertex -11.222 -2.90222 3
      vertex -12.5 -6.06218 3
    endloop
  endfacet
  facet normal 0 0 1
    outer loop
      vertex 4.90239 1.00362e-15 3
      vertex -6.9512 3.54863 3
      vertex 5.3756 -0.473205 3
    endloop
  endfacet
  facet normal 0 0 1
    outer loop
      vertex 5.3756 0.473205 3
      vertex -6.9512 3.54863 3
      vertex 4.90239 1.00362e-15 3
    endloop
  endfacet
  facet normal 0 0 1
    outer loop
      vertex 13.0976 -5.01812e-16 3
      vertex 12.6244 -0.473205 3
      vertex 16 0 3
    endloop
  endfacet
  facet normal 0 0 1
    outer loop
      vertex 11.222 2.90222 3
      vertex 12.6244 0.473205 3
      vertex 16 0 3
    endloop
  endfacet
  facet normal 0 0 1
    outer loop
      vertex 4.88675 5 3
      vertex -4.88675 5 3
      vertex 6.77799 2.90222 3
    endloop
  endfacet
  facet normal 0 0 1
    outer loop
      vertex 12.6244 0.473205 3
      vertex 13.0976 -5.01812e-16 3
      vertex 16 0 3
    endloop
  endfacet
  facet normal 0 0 1
    outer loop
      vertex 4.88675 5 3
      vertex 6.77799 2.90222 3
      vertex 6.9512 3.54863 3
    endloop
  endfacet
  facet normal 0 0 1
    outer loop
      vertex 4.88675 5 3
      vertex 6.9512 3.54863 3
      vertex 7.59761 3.37543 3
    endloop
  endfacet
  facet normal 0 0 1
    outer loop
      vertex 12.5 6.06218 3
      vertex 5.5 6.06218 3
      vertex 10.4024 3.37543 3
    endloop
  endfacet
  facet normal 0 0 1
    outer loop
      vertex 12.5 6.06218 3
      vertex 11.0488 3.54863 3
      vertex 16 0 3
    endloop
  endfacet
  facet normal 0 0 1
    outer loop
      vertex 12.5 6.06218 3
      vertex 10.4024 3.37543 3
      vertex 11.0488 3.54863 3
    endloop
  endfacet
  facet normal 0 0 1
    outer loop
      vertex 11.0488 3.54863 3
      vertex 11.222 2.90222 3
      vertex 16 0 3
    endloop
  endfacet
  facet normal 0 0 1
    outer loop
      vertex 7.59761 -3.37543 3
      vertex 6.9512 -3.54863 3
      vertex 12.5 -6.06218 3
    endloop
  endfacet
  facet normal 0 0 1
    outer loop
      vertex 10.4024 -3.37543 3
      vertex 7.59761 -3.37543 3
      vertex 12.5 -6.06218 3
    endloop
  endfacet
  facet normal 0 0 1
    outer loop
      vertex 16 0 3
      vertex 12.6244 -0.473205 3
      vertex 12.5 -6.06218 3
    endloop
  endfacet
  facet normal 0 0 1
    outer loop
      vertex 12.6244 -0.473205 3
      vertex 11.222 -2.90222 3
      vertex 12.5 -6.06218 3
    endloop
  endfacet
  facet normal 0 0 1
    outer loop
      vertex 11.222 -2.90222 3
      vertex 11.0488 -3.54863 3
      vertex 12.5 -6.06218 3
    endloop
  endfacet
  facet normal 0 0 1
    outer loop
      vertex 11.0488 -3.54863 3
      vertex 10.4024 -3.37543 3
      vertex 12.5 -6.06218 3
    endloop
  endfacet
  facet normal 0 0 1
    outer loop
      vertex 6.9512 -3.54863 3
      vertex -6.9512 3.54863 3
      vertex -6.77799 2.90222 3
    endloop
  endfacet
  facet normal 0 0 1
    outer loop
      vertex 12.5 -6.06218 3
      vertex 6.9512 -3.54863 3
      vertex 4.88675 -5 3
    endloop
  endfacet
  facet normal 0 0 1
    outer loop
      vertex 5.3756 -0.473205 3
      vertex -6.9512 3.54863 3
      vertex 6.77799 -2.90222 3
    endloop
  endfacet
  facet normal 0 0 1
    outer loop
      vertex -4.88675 5 3
      vertex -5.5 6.06218 3
      vertex -12.5 6.06218 3
    endloop
  endfacet
  facet normal 0 0 1
    outer loop
      vertex -11.222 -2.90222 3
      vertex -12.6244 -0.473205 3
      vertex -12.5 -6.06218 3
    endloop
  endfacet
  facet normal 0 0 1
    outer loop
      vertex -11.0488 3.54863 3
      vertex -10.4024 3.37543 3
      vertex -12.5 6.06218 3
    endloop
  endfacet
  facet normal 0 0 1
    outer loop
      vertex -12.6244 -0.473205 0.5
      vertex -11.222 -2.90222 0.5
      vertex -10.4024 -3.37543 0.5
    endloop
  endfacet
  facet normal 0 0 1
    outer loop
      vertex -10.4024 -3.37543 0.5
      vertex -11.222 -2.90222 0.5
      vertex -11.0488 -3.54863 0.5
    endloop
  endfacet
  facet normal 0 0 1
    outer loop
      vertex -12.6244 -0.473205 0.5
      vertex -7.59761 -3.37543 0.5
      vertex -6.9512 -3.54863 0.5
    endloop
  endfacet
  facet normal 0 0 1
    outer loop
      vertex -12.6244 -0.473205 0.5
      vertex -10.4024 -3.37543 0.5
      vertex -7.59761 -3.37543 0.5
    endloop
  endfacet
  facet normal 0 0 1
    outer loop
      vertex -10.262 -1.58245 0.5
      vertex -12.6244 -0.473205 0.5
      vertex -6.9512 -3.54863 0.5
    endloop
  endfacet
  facet normal 0 0 1
    outer loop
      vertex -7.17641 0.878194 0.5
      vertex -4.90239 -5.01812e-16 0.5
      vertex -5.3756 0.473205 0.5
    endloop
  endfacet
  facet normal 0 0 1
    outer loop
      vertex -10.262 1.58245 0.5
      vertex -8.54961 1.97328 0.5
      vertex -6.9512 3.54863 0.5
    endloop
  endfacet
  facet normal 0 0 1
    outer loop
      vertex -10.262 1.58245 0.5
      vertex -6.9512 3.54863 0.5
      vertex -7.59761 3.37543 0.5
    endloop
  endfacet
  facet normal 0 0 1
    outer loop
      vertex -7.17641 0.878194 0.5
      vertex -7.17641 -0.878194 0.5
      vertex -5.3756 -0.473205 0.5
    endloop
  endfacet
  facet normal 0 0 1
    outer loop
      vertex -8.54961 1.97328 0.5
      vertex -7.17641 0.878194 0.5
      vertex -6.77799 2.90222 0.5
    endloop
  endfacet
  facet normal 0 0 1
    outer loop
      vertex -11.222 2.90222 0.5
      vertex -12.6244 -0.473205 0.5
      vertex -10.4024 3.37543 0.5
    endloop
  endfacet
  facet normal 0 0 1
    outer loop
      vertex -11.0488 3.54863 0.5
      vertex -11.222 2.90222 0.5
      vertex -10.4024 3.37543 0.5
    endloop
  endfacet
  facet normal 0 0 1
    outer loop
      vertex -13.0976 1.00362e-15 0.5
      vertex -12.6244 -0.473205 0.5
      vertex -12.6244 0.473205 0.5
    endloop
  endfacet
  facet normal 0 0 1
    outer loop
      vertex -10.4024 3.37543 0.5
      vertex -10.262 1.58245 0.5
      vertex -7.59761 3.37543 0.5
    endloop
  endfacet
  facet normal 0 0 1
    outer loop
      vertex -10.4024 3.37543 0.5
      vertex -12.6244 -0.473205 0.5
      vertex -10.262 1.58245 0.5
    endloop
  endfacet
  facet normal 0 0 1
    outer loop
      vertex -6.9512 3.54863 0.5
      vertex -8.54961 1.97328 0.5
      vertex -6.77799 2.90222 0.5
    endloop
  endfacet
  facet normal 0 0 1
    outer loop
      vertex -7.17641 0.878194 0.5
      vertex -5.3756 -0.473205 0.5
      vertex -4.90239 -5.01812e-16 0.5
    endloop
  endfacet
  facet normal 0 0 1
    outer loop
      vertex -6.77799 2.90222 0.5
      vertex -7.17641 0.878194 0.5
      vertex -5.3756 0.473205 0.5
    endloop
  endfacet
  facet normal 0 0 1
    outer loop
      vertex -5.3756 -0.473205 0.5
      vertex -7.17641 -0.878194 0.5
      vertex -6.77799 -2.90222 0.5
    endloop
  endfacet
  facet normal 0 0 1
    outer loop
      vertex -7.17641 -0.878194 0.5
      vertex -8.54961 -1.97328 0.5
      vertex -6.77799 -2.90222 0.5
    endloop
  endfacet
  facet normal 0 0 1
    outer loop
      vertex -11.024 2.47872e-16 0.5
      vertex -10.262 1.58245 0.5
      vertex -12.6244 -0.473205 0.5
    endloop
  endfacet
  facet normal 0 0 1
    outer loop
      vertex -6.77799 -2.90222 0.5
      vertex -10.262 -1.58245 0.5
      vertex -6.9512 -3.54863 0.5
    endloop
  endfacet
  facet normal 0 0 1
    outer loop
      vertex -11.222 2.90222 0.5
      vertex -12.6244 0.473205 0.5
      vertex -12.6244 -0.473205 0.5
    endloop
  endfacet
  facet normal 0 0 1
    outer loop
      vertex -8.54961 -1.97328 0.5
      vertex -10.262 -1.58245 0.5
      vertex -6.77799 -2.90222 0.5
    endloop
  endfacet
  facet normal 0 0 1
    outer loop
      vertex -10.262 -1.58245 0.5
      vertex -11.024 2.47872e-16 0.5
      vertex -12.6244 -0.473205 0.5
    endloop
  endfacet
  facet normal 0 0 1
    outer loop
      vertex 5.3756 -0.473205 0.5
      vertex 6.77799 -2.90222 0.5
      vertex 7.59761 -3.37543 0.5
    endloop
  endfacet
  facet normal 0 0 1
    outer loop
      vertex 7.59761 -3.37543 0.5
      vertex 6.77799 -2.90222 0.5
      vertex 6.9512 -3.54863 0.5
    endloop
  endfacet
  facet normal 0 0 1
    outer loop
      vertex 5.3756 -0.473205 0.5
      vertex 10.4024 -3.37543 0.5
      vertex 11.0488 -3.54863 0.5
    endloop
  endfacet
  facet normal 0 0 1
    outer loop
      vertex 5.3756 -0.473205 0.5
      vertex 7.59761 -3.37543 0.5
      vertex 10.4024 -3.37543 0.5
    endloop
  endfacet
  facet normal 0 0 1
    outer loop
      vertex 7.73804 -1.58245 0.5
      vertex 5.3756 -0.473205 0.5
      vertex 11.0488 -3.54863 0.5
    endloop
  endfacet
  facet normal 0 0 1
    outer loop
      vertex 10.8236 0.878194 0.5
      vertex 13.0976 -5.01812e-16 0.5
      vertex 12.6244 0.473205 0.5
    endloop
  endfacet
  facet normal 0 0 1
    outer loop
      vertex 7.73804 1.58245 0.5
      vertex 9.45039 1.97328 0.5
      vertex 11.0488 3.54863 0.5
    endloop
  endfacet
  facet normal 0 0 1
    outer loop
      vertex 7.73804 1.58245 0.5
      vertex 11.0488 3.54863 0.5
      vertex 10.4024 3.37543 0.5
    endloop
  endfacet
  facet normal 0 0 1
    outer loop
      vertex 10.8236 0.878194 0.5
      vertex 10.8236 -0.878194 0.5
      vertex 12.6244 -0.473205 0.5
    endloop
  endfacet
  facet normal 0 0 1
    outer loop
      vertex 9.45039 1.97328 0.5
      vertex 10.8236 0.878194 0.5
      vertex 11.222 2.90222 0.5
    endloop
  endfacet
  facet normal 0 0 1
    outer loop
      vertex 6.77799 2.90222 0.5
      vertex 5.3756 -0.473205 0.5
      vertex 7.59761 3.37543 0.5
    endloop
  endfacet
  facet normal 0 0 1
    outer loop
      vertex 6.9512 3.54863 0.5
      vertex 6.77799 2.90222 0.5
      vertex 7.59761 3.37543 0.5
    endloop
  endfacet
  facet normal 0 0 1
    outer loop
      vertex 4.90239 1.00362e-15 0.5
      vertex 5.3756 -0.473205 0.5
      vertex 5.3756 0.473205 0.5
    endloop
  endfacet
  facet normal 0 0 1
    outer loop
      vertex 7.59761 3.37543 0.5
      vertex 7.73804 1.58245 0.5
      vertex 10.4024 3.37543 0.5
    endloop
  endfacet
  facet normal 0 0 1
    outer loop
      vertex 7.59761 3.37543 0.5
      vertex 5.3756 -0.473205 0.5
      vertex 7.73804 1.58245 0.5
    endloop
  endfacet
  facet normal 0 0 1
    outer loop
      vertex 11.0488 3.54863 0.5
      vertex 9.45039 1.97328 0.5
      vertex 11.222 2.90222 0.5
    endloop
  endfacet
  facet normal 0 0 1
    outer loop
      vertex 10.8236 0.878194 0.5
      vertex 12.6244 -0.473205 0.5
      vertex 13.0976 -5.01812e-16 0.5
    endloop
  endfacet
  facet normal 0 0 1
    outer loop
      vertex 11.222 2.90222 0.5
      vertex 10.8236 0.878194 0.5
      vertex 12.6244 0.473205 0.5
    endloop
  endfacet
  facet normal 0 0 1
    outer loop
      vertex 12.6244 -0.473205 0.5
      vertex 10.8236 -0.878194 0.5
      vertex 11.222 -2.90222 0.5
    endloop
  endfacet
  facet normal 0 0 1
    outer loop
      vertex 10.8236 -0.878194 0.5
      vertex 9.45039 -1.97328 0.5
      vertex 11.222 -2.90222 0.5
    endloop
  endfacet
  facet normal 0 0 1
    outer loop
      vertex 6.97597 2.47872e-16 0.5
      vertex 7.73804 1.58245 0.5
      vertex 5.3756 -0.473205 0.5
    endloop
  endfacet
  facet normal 0 0 1
    outer loop
      vertex 11.222 -2.90222 0.5
      vertex 7.73804 -1.58245 0.5
      vertex 11.0488 -3.54863 0.5
    endloop
  endfacet
  facet normal 0 0 1
    outer loop
      vertex 6.77799 2.90222 0.5
      vertex 5.3756 0.473205 0.5
      vertex 5.3756 -0.473205 0.5
    endloop
  endfacet
  facet normal 0 0 1
    outer loop
      vertex 9.45039 -1.97328 0.5
      vertex 7.73804 -1.58245 0.5
      vertex 11.222 -2.90222 0.5
    endloop
  endfacet
  facet normal 0 0 1
    outer loop
      vertex 7.73804 -1.58245 0.5
      vertex 6.97597 2.47872e-16 0.5
      vertex 5.3756 -0.473205 0.5
    endloop
  endfacet
  facet normal 0.866025 0.5 0
    outer loop
      vertex -12.6244 -0.473205 3
      vertex -11.222 -2.90222 3
      vertex -11.222 -2.90222 0.5
    endloop
  endfacet
  facet normal 0.866025 0.5 0
    outer loop
      vertex -12.6244 -0.473205 0.5
      vertex -12.6244 -0.473205 3
      vertex -11.222 -2.90222 0.5
    endloop
  endfacet
  facet normal 0.707107 0.707107 0
    outer loop
      vertex -13.0976 1.00362e-15 3
      vertex -12.6244 -0.473205 3
      vertex -12.6244 -0.473205 0.5
    endloop
  endfacet
  facet normal 0.707107 0.707107 0
    outer loop
      vertex -13.0976 1.00362e-15 0.5
      vertex -13.0976 1.00362e-15 3
      vertex -12.6244 -0.473205 0.5
    endloop
  endfacet
  facet normal 0.965926 0.258819 0
    outer loop
      vertex -11.222 -2.90222 3
      vertex -11.0488 -3.54863 3
      vertex -11.0488 -3.54863 0.5
    endloop
  endfacet
  facet normal 0.965926 0.258819 0
    outer loop
      vertex -11.222 -2.90222 0.5
      vertex -11.222 -2.90222 3
      vertex -11.0488 -3.54863 0.5
    endloop
  endfacet
  facet normal -0.258819 0.965926 0
    outer loop
      vertex -10.4024 -3.37543 3
      vertex -10.4024 -3.37543 0.5
      vertex -11.0488 -3.54863 3
    endloop
  endfacet
  facet normal -0.258819 0.965926 0
    outer loop
      vertex -11.0488 -3.54863 3
      vertex -10.4024 -3.37543 0.5
      vertex -11.0488 -3.54863 0.5
    endloop
  endfacet
  facet normal 0 1 0
    outer loop
      vertex -7.59761 -3.37543 3
      vertex -7.59761 -3.37543 0.5
      vertex -10.4024 -3.37543 3
    endloop
  endfacet
  facet normal 0 1 0
    outer loop
      vertex -10.4024 -3.37543 3
      vertex -7.59761 -3.37543 0.5
      vertex -10.4024 -3.37543 0.5
    endloop
  endfacet
  facet normal 0.258819 0.965926 0
    outer loop
      vertex -6.9512 -3.54863 3
      vertex -6.9512 -3.54863 0.5
      vertex -7.59761 -3.37543 3
    endloop
  endfacet
  facet normal 0.258819 0.965926 0
    outer loop
      vertex -7.59761 -3.37543 3
      vertex -6.9512 -3.54863 0.5
      vertex -7.59761 -3.37543 0.5
    endloop
  endfacet
  facet normal -0.965926 0.258819 0
    outer loop
      vertex -6.77799 -2.90222 3
      vertex -6.77799 -2.90222 0.5
      vertex -6.9512 -3.54863 3
    endloop
  endfacet
  facet normal -0.965926 0.258819 0
    outer loop
      vertex -6.9512 -3.54863 3
      vertex -6.77799 -2.90222 0.5
      vertex -6.9512 -3.54863 0.5
    endloop
  endfacet
  facet normal -0.866025 0.5 0
    outer loop
      vertex -5.3756 -0.473205 3
      vertex -5.3756 -0.473205 0.5
      vertex -6.77799 -2.90222 3
    endloop
  endfacet
  facet normal -0.866025 0.5 0
    outer loop
      vertex -6.77799 -2.90222 3
      vertex -5.3756 -0.473205 0.5
      vertex -6.77799 -2.90222 0.5
    endloop
  endfacet
  facet normal -0.707107 0.707107 0
    outer loop
      vertex -4.90239 -5.01812e-16 3
      vertex -4.90239 -5.01812e-16 0.5
      vertex -5.3756 -0.473205 3
    endloop
  endfacet
  facet normal -0.707107 0.707107 0
    outer loop
      vertex -5.3756 -0.473205 3
      vertex -4.90239 -5.01812e-16 0.5
      vertex -5.3756 -0.473205 0.5
    endloop
  endfacet
  facet normal -0.707107 -0.707107 0
    outer loop
      vertex -4.90239 -5.01812e-16 3
      vertex -5.3756 0.473205 3
      vertex -4.90239 -5.01812e-16 0.5
    endloop
  endfacet
  facet normal -0.707107 -0.707107 0
    outer loop
      vertex -4.90239 -5.01812e-16 0.5
      vertex -5.3756 0.473205 3
      vertex -5.3756 0.473205 0.5
    endloop
  endfacet
  facet normal -0.866025 -0.5 0
    outer loop
      vertex -5.3756 0.473205 3
      vertex -6.77799 2.90222 3
      vertex -5.3756 0.473205 0.5
    endloop
  endfacet
  facet normal -0.866025 -0.5 0
    outer loop
      vertex -5.3756 0.473205 0.5
      vertex -6.77799 2.90222 3
      vertex -6.77799 2.90222 0.5
    endloop
  endfacet
  facet normal -0.965926 -0.258819 0
    outer loop
      vertex -6.77799 2.90222 3
      vertex -6.9512 3.54863 3
      vertex -6.77799 2.90222 0.5
    endloop
  endfacet
  facet normal -0.965926 -0.258819 0
    outer loop
      vertex -6.77799 2.90222 0.5
      vertex -6.9512 3.54863 3
      vertex -6.9512 3.54863 0.5
    endloop
  endfacet
  facet normal 0.258819 -0.965926 0
    outer loop
      vertex -6.9512 3.54863 0.5
      vertex -6.9512 3.54863 3
      vertex -7.59761 3.37543 3
    endloop
  endfacet
  facet normal 0.258819 -0.965926 0
    outer loop
      vertex -7.59761 3.37543 0.5
      vertex -6.9512 3.54863 0.5
      vertex -7.59761 3.37543 3
    endloop
  endfacet
  facet normal 0 -1 0
    outer loop
      vertex -7.59761 3.37543 0.5
      vertex -7.59761 3.37543 3
      vertex -10.4024 3.37543 3
    endloop
  endfacet
  facet normal 0 -1 0
    outer loop
      vertex -10.4024 3.37543 0.5
      vertex -7.59761 3.37543 0.5
      vertex -10.4024 3.37543 3
    endloop
  endfacet
  facet normal -0.258819 -0.965926 0
    outer loop
      vertex -10.4024 3.37543 0.5
      vertex -10.4024 3.37543 3
      vertex -11.0488 3.54863 3
    endloop
  endfacet
  facet normal -0.258819 -0.965926 0
    outer loop
      vertex -11.0488 3.54863 0.5
      vertex -10.4024 3.37543 0.5
      vertex -11.0488 3.54863 3
    endloop
  endfacet
  facet normal 0.965926 -0.258819 0
    outer loop
      vertex -11.0488 3.54863 0.5
      vertex -11.0488 3.54863 3
      vertex -11.222 2.90222 3
    endloop
  endfacet
  facet normal 0.965926 -0.258819 0
    outer loop
      vertex -11.222 2.90222 0.5
      vertex -11.0488 3.54863 0.5
      vertex -11.222 2.90222 3
    endloop
  endfacet
  facet normal 0.866025 -0.5 0
    outer loop
      vertex -11.222 2.90222 0.5
      vertex -11.222 2.90222 3
      vertex -12.6244 0.473205 3
    endloop
  endfacet
  facet normal 0.866025 -0.5 0
    outer loop
      vertex -12.6244 0.473205 0.5
      vertex -11.222 2.90222 0.5
      vertex -12.6244 0.473205 3
    endloop
  endfacet
  facet normal 0.707107 -0.707107 0
    outer loop
      vertex -12.6244 0.473205 0.5
      vertex -12.6244 0.473205 3
      vertex -13.0976 1.00362e-15 3
    endloop
  endfacet
  facet normal 0.707107 -0.707107 0
    outer loop
      vertex -13.0976 1.00362e-15 0.5
      vertex -12.6244 0.473205 0.5
      vertex -13.0976 1.00362e-15 3
    endloop
  endfacet
  facet normal 0.866025 0.5 0
    outer loop
      vertex 5.3756 -0.473205 3
      vertex 6.77799 -2.90222 3
      vertex 6.77799 -2.90222 0.5
    endloop
  endfacet
  facet normal 0.866025 0.5 0
    outer loop
      vertex 5.3756 -0.473205 0.5
      vertex 5.3756 -0.473205 3
      vertex 6.77799 -2.90222 0.5
    endloop
  endfacet
  facet normal 0.707107 0.707107 0
    outer loop
      vertex 4.90239 1.00362e-15 3
      vertex 5.3756 -0.473205 3
      vertex 5.3756 -0.473205 0.5
    endloop
  endfacet
  facet normal 0.707107 0.707107 0
    outer loop
      vertex 4.90239 1.00362e-15 0.5
      vertex 4.90239 1.00362e-15 3
      vertex 5.3756 -0.473205 0.5
    endloop
  endfacet
  facet normal 0.965926 0.258819 0
    outer loop
      vertex 6.77799 -2.90222 3
      vertex 6.9512 -3.54863 3
      vertex 6.9512 -3.54863 0.5
    endloop
  endfacet
  facet normal 0.965926 0.258819 0
    outer loop
      vertex 6.77799 -2.90222 0.5
      vertex 6.77799 -2.90222 3
      vertex 6.9512 -3.54863 0.5
    endloop
  endfacet
  facet normal -0.258819 0.965926 0
    outer loop
      vertex 7.59761 -3.37543 3
      vertex 7.59761 -3.37543 0.5
      vertex 6.9512 -3.54863 3
    endloop
  endfacet
  facet normal -0.258819 0.965926 0
    outer loop
      vertex 6.9512 -3.54863 3
      vertex 7.59761 -3.37543 0.5
      vertex 6.9512 -3.54863 0.5
    endloop
  endfacet
  facet normal 0 1 0
    outer loop
      vertex 10.4024 -3.37543 3
      vertex 10.4024 -3.37543 0.5
      vertex 7.59761 -3.37543 3
    endloop
  endfacet
  facet normal 0 1 0
    outer loop
      vertex 7.59761 -3.37543 3
      vertex 10.4024 -3.37543 0.5
      vertex 7.59761 -3.37543 0.5
    endloop
  endfacet
  facet normal 0.258819 0.965926 0
    outer loop
      vertex 11.0488 -3.54863 3
      vertex 11.0488 -3.54863 0.5
      vertex 10.4024 -3.37543 3
    endloop
  endfacet
  facet normal 0.258819 0.965926 0
    outer loop
      vertex 10.4024 -3.37543 3
      vertex 11.0488 -3.54863 0.5
      vertex 10.4024 -3.37543 0.5
    endloop
  endfacet
  facet normal -0.965926 0.258819 0
    outer loop
      vertex 11.222 -2.90222 3
      vertex 11.222 -2.90222 0.5
      vertex 11.0488 -3.54863 3
    endloop
  endfacet
  facet normal -0.965926 0.258819 0
    outer loop
      vertex 11.0488 -3.54863 3
      vertex 11.222 -2.90222 0.5
      vertex 11.0488 -3.54863 0.5
    endloop
  endfacet
  facet normal -0.866025 0.5 0
    outer loop
      vertex 12.6244 -0.473205 3
      vertex 12.6244 -0.473205 0.5
      vertex 11.222 -2.90222 3
    endloop
  endfacet
  facet normal -0.866025 0.5 0
    outer loop
      vertex 11.222 -2.90222 3
      vertex 12.6244 -0.473205 0.5
      vertex 11.222 -2.90222 0.5
    endloop
  endfacet
  facet normal -0.707107 0.707107 0
    outer loop
      vertex 13.0976 -5.01812e-16 3
      vertex 13.0976 -5.01812e-16 0.5
      vertex 12.6244 -0.473205 3
    endloop
  endfacet
  facet normal -0.707107 0.707107 0
    outer loop
      vertex 12.6244 -0.473205 3
      vertex 13.0976 -5.01812e-16 0.5
      vertex 12.6244 -0.473205 0.5
    endloop
  endfacet
  facet normal -0.707107 -0.707107 0
    outer loop
      vertex 13.0976 -5.01812e-16 3
      vertex 12.6244 0.473205 3
      vertex 13.0976 -5.01812e-16 0.5
    endloop
  endfacet
  facet normal -0.707107 -0.707107 0
    outer loop
      vertex 13.0976 -5.01812e-16 0.5
      vertex 12.6244 0.473205 3
      vertex 12.6244 0.473205 0.5
    endloop
  endfacet
  facet normal -0.866025 -0.5 0
    outer loop
      vertex 12.6244 0.473205 3
      vertex 11.222 2.90222 3
      vertex 12.6244 0.473205 0.5
    endloop
  endfacet
  facet normal -0.866025 -0.5 0
    outer loop
      vertex 12.6244 0.473205 0.5
      vertex 11.222 2.90222 3
      vertex 11.222 2.90222 0.5
    endloop
  endfacet
  facet normal -0.965926 -0.258819 0
    outer loop
      vertex 11.222 2.90222 3
      vertex 11.0488 3.54863 3
      vertex 11.222 2.90222 0.5
    endloop
  endfacet
  facet normal -0.965926 -0.258819 0
    outer loop
      vertex 11.222 2.90222 0.5
      vertex 11.0488 3.54863 3
      vertex 11.0488 3.54863 0.5
    endloop
  endfacet
  facet normal 0.258819 -0.965926 0
    outer loop
      vertex 11.0488 3.54863 0.5
      vertex 11.0488 3.54863 3
      vertex 10.4024 3.37543 3
    endloop
  endfacet
  facet normal 0.258819 -0.965926 0
    outer loop
      vertex 10.4024 3.37543 0.5
      vertex 11.0488 3.54863 0.5
      vertex 10.4024 3.37543 3
    endloop
  endfacet
  facet normal 0 -1 0
    outer loop
      vertex 10.4024 3.37543 0.5
      vertex 10.4024 3.37543 3
      vertex 7.59761 3.37543 3
    endloop
  endfacet
  facet normal 0 -1 0
    outer loop
      vertex 7.59761 3.37543 0.5
      vertex 10.4024 3.37543 0.5
      vertex 7.59761 3.37543 3
    endloop
  endfacet
  facet normal -0.258819 -0.965926 0
    outer loop
      vertex 7.59761 3.37543 0.5
      vertex 7.59761 3.37543 3
      vertex 6.9512 3.54863 3
    endloop
  endfacet
  facet normal -0.258819 -0.965926 0
    outer loop
      vertex 6.9512 3.54863 0.5
      vertex 7.59761 3.37543 0.5
      vertex 6.9512 3.54863 3
    endloop
  endfacet
  facet normal 0.965926 -0.258819 0
    outer loop
      vertex 6.9512 3.54863 0.5
      vertex 6.9512 3.54863 3
      vertex 6.77799 2.90222 3
    endloop
  endfacet
  facet normal 0.965926 -0.258819 0
    outer loop
      vertex 6.77799 2.90222 0.5
      vertex 6.9512 3.54863 0.5
      vertex 6.77799 2.90222 3
    endloop
  endfacet
  facet normal 0.866025 -0.5 0
    outer loop
      vertex 6.77799 2.90222 0.5
      vertex 6.77799 2.90222 3
      vertex 5.3756 0.473205 3
    endloop
  endfacet
  facet normal 0.866025 -0.5 0
    outer loop
      vertex 5.3756 0.473205 0.5
      vertex 6.77799 2.90222 0.5
      vertex 5.3756 0.473205 3
    endloop
  endfacet
  facet normal 0.707107 -0.707107 0
    outer loop
      vertex 5.3756 0.473205 0.5
      vertex 5.3756 0.473205 3
      vertex 4.90239 1.00362e-15 3
    endloop
  endfacet
  facet normal 0.707107 -0.707107 0
    outer loop
      vertex 4.90239 1.00362e-15 0.5
      vertex 5.3756 0.473205 0.5
      vertex 4.90239 1.00362e-15 3
    endloop
  endfacet
endsolid OpenSCAD_Model
