solid OpenSCAD_Model
  facet normal -1 0 0
    outer loop
      vertex -11 -5 0.25
      vertex -11 -5 0.75
      vertex -11 5 0.25
    endloop
  endfacet
  facet normal -1 0 0
    outer loop
      vertex -11 5 0.25
      vertex -11 -5 0.75
      vertex -11 5 0.75
    endloop
  endfacet
  facet normal 0 -1 0
    outer loop
      vertex -11 -5 0.75
      vertex -11 -5 0.25
      vertex 11 -5 0.25
    endloop
  endfacet
  facet normal 0 -1 0
    outer loop
      vertex -10 -5 0.75
      vertex -11 -5 0.75
      vertex 11 -5 0.25
    endloop
  endfacet
  facet normal 0 -1 0
    outer loop
      vertex 10 -5 0.75
      vertex -10 -5 0.75
      vertex 11 -5 0.25
    endloop
  endfacet
  facet normal 0 -1 0
    outer loop
      vertex 11 -5 0.75
      vertex 10 -5 0.75
      vertex 11 -5 0.25
    endloop
  endfacet
  facet normal 0 -1 0
    outer loop
      vertex 10 -5 1.25
      vertex -10 -5 0.75
      vertex 10 -5 0.75
    endloop
  endfacet
  facet normal 0 -1 0
    outer loop
      vertex -10 -5 1.25
      vertex -10 -5 0.75
      vertex 10 -5 1.25
    endloop
  endfacet
  facet normal 0 0 -1
    outer loop
      vertex -11 -5 0.25
      vertex -11 5 0.25
      vertex 11 -5 0.25
    endloop
  endfacet
  facet normal 0 0 -1
    outer loop
      vertex 11 -5 0.25
      vertex -11 5 0.25
      vertex 11 5 0.25
    endloop
  endfacet
  facet normal 0 1 0
    outer loop
      vertex -11 5 0.25
      vertex -11 5 0.75
      vertex 11 5 0.25
    endloop
  endfacet
  facet normal 0 1 0
    outer loop
      vertex 11 5 0.25
      vertex -11 5 0.75
      vertex -10 5 0.75
    endloop
  endfacet
  facet normal 0 1 0
    outer loop
      vertex 11 5 0.25
      vertex -10 5 0.75
      vertex -10 5 1.25
    endloop
  endfacet
  facet normal 0 1 0
    outer loop
      vertex 10 5 0.75
      vertex -10 5 1.25
      vertex 10 5 1.25
    endloop
  endfacet
  facet normal 0 1 0
    outer loop
      vertex 11 5 0.25
      vertex -10 5 1.25
      vertex 10 5 0.75
    endloop
  endfacet
  facet normal 0 1 0
    outer loop
      vertex 11 5 0.75
      vertex 11 5 0.25
      vertex 10 5 0.75
    endloop
  endfacet
  facet normal 0 0 1
    outer loop
      vertex -11 5 0.75
      vertex -11 -5 0.75
      vertex -10 -5 0.75
    endloop
  endfacet
  facet normal 0 0 1
    outer loop
      vertex -10 -1 0.75
      vertex -11 5 0.75
      vertex -10 -3 0.75
    endloop
  endfacet
  facet normal 0 0 1
    outer loop
      vertex -10 -3 0.75
      vertex -11 5 0.75
      vertex -10 -5 0.75
    endloop
  endfacet
  facet normal 0 0 1
    outer loop
      vertex -10 3 0.75
      vertex -10 5 0.75
      vertex -11 5 0.75
    endloop
  endfacet
  facet normal 0 0 1
    outer loop
      vertex 11 -5 0.75
      vertex 10 -3 0.75
      vertex 10 -5 0.75
    endloop
  endfacet
  facet normal 0 0 1
    outer loop
      vertex 11 5 0.75
      vertex 10 -3 0.75
      vertex 11 -5 0.75
    endloop
  endfacet
  facet normal 0 0 1
    outer loop
      vertex 11 5 0.75
      vertex 10 5 0.75
      vertex 10 3 0.75
    endloop
  endfacet
  facet normal 0 0 1
    outer loop
      vertex -10 -1 0.75
      vertex -10 1 0.75
      vertex -11 5 0.75
    endloop
  endfacet
  facet normal 0 0 1
    outer loop
      vertex 10 -3 0.75
      vertex -10 -1 0.75
      vertex -10 -3 0.75
    endloop
  endfacet
  facet normal 0 0 1
    outer loop
      vertex -10 1 0.75
      vertex -10 3 0.75
      vertex -11 5 0.75
    endloop
  endfacet
  facet normal 0 0 1
    outer loop
      vertex -10 1 0.75
      vertex 10 1 0.75
      vertex -10 3 0.75
    endloop
  endfacet
  facet normal 0 0 1
    outer loop
      vertex 10 -1 0.75
      vertex -10 -1 0.75
      vertex 10 -3 0.75
    endloop
  endfacet
  facet normal 0 0 1
    outer loop
      vertex 11 5 0.75
      vertex 10 3 0.75
      vertex 10 1 0.75
    endloop
  endfacet
  facet normal 0 0 1
    outer loop
      vertex 11 5 0.75
      vertex 10 -1 0.75
      vertex 10 -3 0.75
    endloop
  endfacet
  facet normal 0 0 1
    outer loop
      vertex 11 5 0.75
      vertex 10 1 0.75
      vertex 10 -1 0.75
    endloop
  endfacet
  facet normal 0 0 1
    outer loop
      vertex 10 3 0.75
      vertex -10 3 0.75
      vertex 10 1 0.75
    endloop
  endfacet
  facet normal -1 0 0
    outer loop
      vertex -10 -5 0.75
      vertex -10 -5 1.25
      vertex -10 -3 0.75
    endloop
  endfacet
  facet normal -1 0 0
    outer loop
      vertex -10 -3 0.75
      vertex -10 -5 1.25
      vertex -10 -3 1.25
    endloop
  endfacet
  facet normal 0 0 1
    outer loop
      vertex -10 -3 1.25
      vertex -10 -5 1.25
      vertex 10 -5 1.25
    endloop
  endfacet
  facet normal 0 0 1
    outer loop
      vertex 10 -3 1.25
      vertex -10 -3 1.25
      vertex 10 -5 1.25
    endloop
  endfacet
  facet normal 1 0 0
    outer loop
      vertex 10 -5 1.25
      vertex 10 -5 0.75
      vertex 10 -3 0.75
    endloop
  endfacet
  facet normal 1 0 0
    outer loop
      vertex 10 -3 1.25
      vertex 10 -5 1.25
      vertex 10 -3 0.75
    endloop
  endfacet
  facet normal 1 0 0
    outer loop
      vertex 11 -5 0.75
      vertex 11 -5 0.25
      vertex 11 5 0.25
    endloop
  endfacet
  facet normal 1 0 0
    outer loop
      vertex 11 5 0.75
      vertex 11 -5 0.75
      vertex 11 5 0.25
    endloop
  endfacet
  facet normal 1 0 0
    outer loop
      vertex 10 3 1.25
      vertex 10 3 0.75
      vertex 10 5 0.75
    endloop
  endfacet
  facet normal 1 0 0
    outer loop
      vertex 10 5 1.25
      vertex 10 3 1.25
      vertex 10 5 0.75
    endloop
  endfacet
  facet normal 0 0 1
    outer loop
      vertex -10 5 1.25
      vertex -10 3 1.25
      vertex 10 3 1.25
    endloop
  endfacet
  facet normal 0 0 1
    outer loop
      vertex 10 5 1.25
      vertex -10 5 1.25
      vertex 10 3 1.25
    endloop
  endfacet
  facet normal -1 0 0
    outer loop
      vertex -10 3 0.75
      vertex -10 3 1.25
      vertex -10 5 0.75
    endloop
  endfacet
  facet normal -1 0 0
    outer loop
      vertex -10 5 0.75
      vertex -10 3 1.25
      vertex -10 5 1.25
    endloop
  endfacet
  facet normal 0 -1 0
    outer loop
      vertex -10 3 1.25
      vertex -10 3 0.75
      vertex 10 3 0.75
    endloop
  endfacet
  facet normal 0 -1 0
    outer loop
      vertex 10 3 1.25
      vertex -10 3 1.25
      vertex 10 3 0.75
    endloop
  endfacet
  facet normal 0 1 0
    outer loop
      vertex -10 -3 0.75
      vertex -10 -3 1.25
      vertex 10 -3 0.75
    endloop
  endfacet
  facet normal 0 1 0
    outer loop
      vertex 10 -3 0.75
      vertex -10 -3 1.25
      vertex 10 -3 1.25
    endloop
  endfacet
  facet normal -1 0 0
    outer loop
      vertex -10 -1 0.75
      vertex -10 -1 1.25
      vertex -10 1 0.75
    endloop
  endfacet
  facet normal -1 0 0
    outer loop
      vertex -10 1 0.75
      vertex -10 -1 1.25
      vertex -10 1 1.25
    endloop
  endfacet
  facet normal 0 -1 0
    outer loop
      vertex -10 -1 1.25
      vertex -10 -1 0.75
      vertex 10 -1 0.75
    endloop
  endfacet
  facet normal 0 -1 0
    outer loop
      vertex 10 -1 1.25
      vertex -10 -1 1.25
      vertex 10 -1 0.75
    endloop
  endfacet
  facet normal 1 0 0
    outer loop
      vertex 10 -1 1.25
      vertex 10 -1 0.75
      vertex 10 1 0.75
    endloop
  endfacet
  facet normal 1 0 0
    outer loop
      vertex 10 1 1.25
      vertex 10 -1 1.25
      vertex 10 1 0.75
    endloop
  endfacet
  facet normal 0 1 0
    outer loop
      vertex -10 1 0.75
      vertex -10 1 1.25
      vertex 10 1 0.75
    endloop
  endfacet
  facet normal 0 1 0
    outer loop
      vertex 10 1 0.75
      vertex -10 1 1.25
      vertex 10 1 1.25
    endloop
  endfacet
  facet normal 0 0 1
    outer loop
      vertex -10 1 1.25
      vertex -10 -1 1.25
      vertex 10 -1 1.25
    endloop
  endfacet
  facet normal 0 0 1
    outer loop
      vertex 10 1 1.25
      vertex -10 1 1.25
      vertex 10 -1 1.25
    endloop
  endfacet
endsolid OpenSCAD_Model
