solid OpenSCAD_Model
  facet normal 0 -1 2.22045e-16
    outer loop
      vertex -52 2 6.33368
      vertex -52.77 2 5
      vertex -52 2 3.66632
    endloop
  endfacet
  facet normal -0.866025 -1.11022e-16 -0.5
    outer loop
      vertex -52.77 2 5
      vertex -52.77 7 5
      vertex -52 2 3.66632
    endloop
  endfacet
  facet normal -0.866025 -1.11022e-16 -0.5
    outer loop
      vertex -52 4 3.66632
      vertex -52.77 7 5
      vertex -49.885 7 0.003033
    endloop
  endfacet
  facet normal -0.866025 -1.11022e-16 -0.5
    outer loop
      vertex -52 2 3.66632
      vertex -52.77 7 5
      vertex -52 4 3.66632
    endloop
  endfacet
  facet normal -0.866025 -1.11022e-16 -0.5
    outer loop
      vertex -52 4 3.66632
      vertex -49.885 7 0.003033
      vertex -49.885 4 0.003033
    endloop
  endfacet
  facet normal -0.866025 1.11022e-16 0.5
    outer loop
      vertex -52.77 2 5
      vertex -52 2 6.33368
      vertex -52.77 7 5
    endloop
  endfacet
  facet normal -0.866025 1.11022e-16 0.5
    outer loop
      vertex -52.77 7 5
      vertex -52 2 6.33368
      vertex -52 4 6.33368
    endloop
  endfacet
  facet normal -0.866025 1.11022e-16 0.5
    outer loop
      vertex -52.77 7 5
      vertex -52 4 6.33368
      vertex -49.885 4 9.99697
    endloop
  endfacet
  facet normal -0.866025 1.11022e-16 0.5
    outer loop
      vertex -52.77 7 5
      vertex -49.885 4 9.99697
      vertex -49.885 7 9.99697
    endloop
  endfacet
  facet normal -1 0 0
    outer loop
      vertex -52 4 3.66632
      vertex -52 4 0
      vertex -52 2 3.66632
    endloop
  endfacet
  facet normal -1 0 0
    outer loop
      vertex -52 4 6.33368
      vertex -52 0 10
      vertex -52 4 10
    endloop
  endfacet
  facet normal -1 0 0
    outer loop
      vertex -52 2 6.33368
      vertex -52 0 10
      vertex -52 4 6.33368
    endloop
  endfacet
  facet normal -1 0 0
    outer loop
      vertex -52 0 0
      vertex -52 0 10
      vertex -52 2 3.66632
    endloop
  endfacet
  facet normal -1 0 0
    outer loop
      vertex -52 0 0
      vertex -52 2 3.66632
      vertex -52 4 0
    endloop
  endfacet
  facet normal -1 0 0
    outer loop
      vertex -52 2 3.66632
      vertex -52 0 10
      vertex -52 2 6.33368
    endloop
  endfacet
  facet normal 0 1 0
    outer loop
      vertex -52 4 0
      vertex -49.885 4 0.003033
      vertex 1.08983 4 0
    endloop
  endfacet
  facet normal 0 1 0
    outer loop
      vertex -52 4 0
      vertex -52 4 3.66632
      vertex -49.885 4 0.003033
    endloop
  endfacet
  facet normal 0 1 0
    outer loop
      vertex -49.885 4 0.003033
      vertex -44.115 4 0.003033
      vertex 1.08983 4 0
    endloop
  endfacet
  facet normal 0 1 0
    outer loop
      vertex -9.77 4 5
      vertex -44.115 4 9.99697
      vertex -6.885 4 9.99697
    endloop
  endfacet
  facet normal 0 1 0
    outer loop
      vertex -49.885 4 9.99697
      vertex -52 4 6.33368
      vertex -52 4 10
    endloop
  endfacet
  facet normal 0 1 0
    outer loop
      vertex -49.885 4 9.99697
      vertex -52 4 10
      vertex -44.115 4 9.99697
    endloop
  endfacet
  facet normal 0 1 0
    outer loop
      vertex -44.115 4 9.99697
      vertex -52 4 10
      vertex 1.08983 4 10
    endloop
  endfacet
  facet normal 0 1 0
    outer loop
      vertex -1.115 4 9.99697
      vertex 1.08983 4 10
      vertex 1.08983 4 6.17809
    endloop
  endfacet
  facet normal 0 1 0
    outer loop
      vertex -6.885 4 9.99697
      vertex 1.08983 4 10
      vertex -1.115 4 9.99697
    endloop
  endfacet
  facet normal 0 1 0
    outer loop
      vertex -44.115 4 9.99697
      vertex 1.08983 4 10
      vertex -6.885 4 9.99697
    endloop
  endfacet
  facet normal 0 1 0
    outer loop
      vertex -6.885 4 0.003033
      vertex -44.115 4 9.99697
      vertex -9.77 4 5
    endloop
  endfacet
  facet normal 0 1 0
    outer loop
      vertex -6.885 4 0.003033
      vertex -41.23 4 5
      vertex -44.115 4 9.99697
    endloop
  endfacet
  facet normal 0 1 0
    outer loop
      vertex -44.115 4 0.003033
      vertex -6.885 4 0.003033
      vertex 1.08983 4 0
    endloop
  endfacet
  facet normal 0 1 0
    outer loop
      vertex -6.885 4 0.003033
      vertex -1.115 4 0.003033
      vertex 1.08983 4 0
    endloop
  endfacet
  facet normal 0 1 0
    outer loop
      vertex 1.08983 4 3.82191
      vertex 1.08983 4 0
      vertex -1.115 4 0.003033
    endloop
  endfacet
  facet normal 0 1 0
    outer loop
      vertex -41.23 4 5
      vertex -6.885 4 0.003033
      vertex -44.115 4 0.003033
    endloop
  endfacet
  facet normal 0 -2.22045e-16 -1
    outer loop
      vertex -49.885 4 0.003033
      vertex -49.885 7 0.003033
      vertex -44.115 4 0.003033
    endloop
  endfacet
  facet normal 0 -2.22045e-16 -1
    outer loop
      vertex -44.115 4 0.003033
      vertex -49.885 7 0.003033
      vertex -44.115 7 0.003033
    endloop
  endfacet
  facet normal 0 1 -2.22045e-16
    outer loop
      vertex -48.6877 7 2.0768
      vertex -49.885 7 0.003033
      vertex -50.3754 7 5
    endloop
  endfacet
  facet normal 0 1 -2.22045e-16
    outer loop
      vertex -45.3123 7 7.9232
      vertex -49.885 7 9.99697
      vertex -44.115 7 9.99697
    endloop
  endfacet
  facet normal 0 1 -2.22045e-16
    outer loop
      vertex -43.6246 7 5
      vertex -44.115 7 9.99697
      vertex -41.23 7 5
    endloop
  endfacet
  facet normal 0 1 -2.22045e-16
    outer loop
      vertex -45.3123 7 2.0768
      vertex -41.23 7 5
      vertex -44.115 7 0.003033
    endloop
  endfacet
  facet normal 0 1 -2.22045e-16
    outer loop
      vertex -52.77 7 5
      vertex -49.885 7 9.99697
      vertex -50.3754 7 5
    endloop
  endfacet
  facet normal 0 1 -2.22045e-16
    outer loop
      vertex -52.77 7 5
      vertex -50.3754 7 5
      vertex -49.885 7 0.003033
    endloop
  endfacet
  facet normal 0 1 -2.22045e-16
    outer loop
      vertex -45.3123 7 2.0768
      vertex -49.885 7 0.003033
      vertex -48.6877 7 2.0768
    endloop
  endfacet
  facet normal 0 1 -2.22045e-16
    outer loop
      vertex -43.6246 7 5
      vertex -41.23 7 5
      vertex -45.3123 7 2.0768
    endloop
  endfacet
  facet normal 0 1 -2.22045e-16
    outer loop
      vertex -49.885 7 0.003033
      vertex -45.3123 7 2.0768
      vertex -44.115 7 0.003033
    endloop
  endfacet
  facet normal 0 1 -2.22045e-16
    outer loop
      vertex -45.3123 7 7.9232
      vertex -44.115 7 9.99697
      vertex -43.6246 7 5
    endloop
  endfacet
  facet normal 0 1 -2.22045e-16
    outer loop
      vertex -48.6877 7 7.9232
      vertex -49.885 7 9.99697
      vertex -45.3123 7 7.9232
    endloop
  endfacet
  facet normal 0 1 -2.22045e-16
    outer loop
      vertex -50.3754 7 5
      vertex -49.885 7 9.99697
      vertex -48.6877 7 7.9232
    endloop
  endfacet
  facet normal 0 2.22045e-16 1
    outer loop
      vertex -49.885 7 9.99697
      vertex -49.885 4 9.99697
      vertex -44.115 4 9.99697
    endloop
  endfacet
  facet normal 0 2.22045e-16 1
    outer loop
      vertex -44.115 7 9.99697
      vertex -49.885 7 9.99697
      vertex -44.115 4 9.99697
    endloop
  endfacet
  facet normal 0 0 -1
    outer loop
      vertex -52 0 0
      vertex -52 4 0
      vertex -50 0 0
    endloop
  endfacet
  facet normal 0 0 -1
    outer loop
      vertex -50 0 0
      vertex -52 4 0
      vertex 1.08983 4 0
    endloop
  endfacet
  facet normal 0 0 -1
    outer loop
      vertex 1.08983 4 0
      vertex 0.381759 5.38967 0
      vertex 0 7.8 0
    endloop
  endfacet
  facet normal 0 0 -1
    outer loop
      vertex 1.08983 4 0
      vertex 0 7.8 0
      vertex 0.381759 10.2103 0
    endloop
  endfacet
  facet normal 0 0 -1
    outer loop
      vertex 1.08983 4 0
      vertex 0.381759 10.2103 0
      vertex 1.48967 12.3847 0
    endloop
  endfacet
  facet normal 0 0 -1
    outer loop
      vertex 1.08983 4 0
      vertex 1.48967 12.3847 0
      vertex 3.21528 14.1103 0
    endloop
  endfacet
  facet normal 0 0 -1
    outer loop
      vertex 1.08983 4 0
      vertex 3.21528 14.1103 0
      vertex 5.38967 15.2182 0
    endloop
  endfacet
  facet normal 0 0 -1
    outer loop
      vertex 4.3528 10.6925 0
      vertex 5.38967 15.2182 0
      vertex 7.8 15.6 0
    endloop
  endfacet
  facet normal 0 0 -1
    outer loop
      vertex 10.2253 11.55 0
      vertex 7.8 15.6 0
      vertex 23.3 15.6 0
    endloop
  endfacet
  facet normal 0 0 -1
    outer loop
      vertex 10.05 11.6971 0
      vertex 7.8 15.6 0
      vertex 10.2253 11.55 0
    endloop
  endfacet
  facet normal 0 0 -1
    outer loop
      vertex 4.3528 10.6925 0
      vertex 7.8 15.6 0
      vertex 5.55 11.6971 0
    endloop
  endfacet
  facet normal 0 0 -1
    outer loop
      vertex 8.58142 12.2316 0
      vertex 7.8 15.6 0
      vertex 10.05 11.6971 0
    endloop
  endfacet
  facet normal 0 0 -1
    outer loop
      vertex 7.01858 12.2316 0
      vertex 7.8 15.6 0
      vertex 8.58142 12.2316 0
    endloop
  endfacet
  facet normal 0 0 -1
    outer loop
      vertex 5.55 11.6971 0
      vertex 7.8 15.6 0
      vertex 7.01858 12.2316 0
    endloop
  endfacet
  facet normal 0 0 -1
    outer loop
      vertex 3.57138 9.33909 0
      vertex 5.38967 15.2182 0
      vertex 4.3528 10.6925 0
    endloop
  endfacet
  facet normal 0 0 -1
    outer loop
      vertex 3.3 7.8 0
      vertex 1.08983 4 0
      vertex 3.57138 9.33909 0
    endloop
  endfacet
  facet normal 0 0 -1
    outer loop
      vertex 1.08983 4 0
      vertex 5.38967 15.2182 0
      vertex 3.57138 9.33909 0
    endloop
  endfacet
  facet normal 0 0 -1
    outer loop
      vertex 3.57138 6.26091 0
      vertex 1.08983 4 0
      vertex 3.3 7.8 0
    endloop
  endfacet
  facet normal 0 0 -1
    outer loop
      vertex 4.3528 4.90746 0
      vertex 1.08983 4 0
      vertex 3.57138 6.26091 0
    endloop
  endfacet
  facet normal 0 0 -1
    outer loop
      vertex 23.3 4.05 0
      vertex 10.05 3.90289 0
      vertex 10.2253 4.05 0
    endloop
  endfacet
  facet normal 0 0 -1
    outer loop
      vertex 1.08983 4 0
      vertex 4.3528 4.90746 0
      vertex 5.55 3.90289 0
    endloop
  endfacet
  facet normal 0 0 -1
    outer loop
      vertex 1.08983 4 0
      vertex 5.55 3.90289 0
      vertex -50 0 0
    endloop
  endfacet
  facet normal 0 0 -1
    outer loop
      vertex 5.55 3.90289 0
      vertex 7.01858 3.36836 0
      vertex -50 0 0
    endloop
  endfacet
  facet normal 0 0 -1
    outer loop
      vertex 7.01858 3.36836 0
      vertex 8.58142 3.36836 0
      vertex -50 0 0
    endloop
  endfacet
  facet normal 0 0 -1
    outer loop
      vertex 8.58142 3.36836 0
      vertex 23.3 4.05 0
      vertex -50 0 0
    endloop
  endfacet
  facet normal 0 0 -1
    outer loop
      vertex -7 0 0
      vertex -1 -3 0
      vertex -7 -3 0
    endloop
  endfacet
  facet normal 0 0 -1
    outer loop
      vertex 10.05 3.90289 0
      vertex 23.3 4.05 0
      vertex 8.58142 3.36836 0
    endloop
  endfacet
  facet normal 0 0 -1
    outer loop
      vertex -1 0 0
      vertex 23.3 4.05 0
      vertex 23.3 0 0
    endloop
  endfacet
  facet normal 0 0 -1
    outer loop
      vertex -50 0 0
      vertex 23.3 4.05 0
      vertex -44 0 0
    endloop
  endfacet
  facet normal 0 0 -1
    outer loop
      vertex 10.2253 11.55 0
      vertex 23.3 15.6 0
      vertex 23.3 11.55 0
    endloop
  endfacet
  facet normal 0 0 -1
    outer loop
      vertex -1 0 0
      vertex -1 -3 0
      vertex -7 0 0
    endloop
  endfacet
  facet normal 0 0 -1
    outer loop
      vertex -1 0 0
      vertex -7 0 0
      vertex 23.3 4.05 0
    endloop
  endfacet
  facet normal 0 0 -1
    outer loop
      vertex -44 -3 0
      vertex -50 0 0
      vertex -44 0 0
    endloop
  endfacet
  facet normal 0 0 -1
    outer loop
      vertex -7 0 0
      vertex -44 0 0
      vertex 23.3 4.05 0
    endloop
  endfacet
  facet normal 0 0 -1
    outer loop
      vertex -50 0 0
      vertex -44 -3 0
      vertex -50 -3 0
    endloop
  endfacet
  facet normal 0 0 1
    outer loop
      vertex -44 0 10
      vertex -7 0 10
      vertex -52 4 10
    endloop
  endfacet
  facet normal 0 0 1
    outer loop
      vertex -52 4 10
      vertex -52 0 10
      vertex -50 0 10
    endloop
  endfacet
  facet normal 0 0 1
    outer loop
      vertex -44 -3 10
      vertex -52 4 10
      vertex -50 0 10
    endloop
  endfacet
  facet normal 0 0 1
    outer loop
      vertex -50 -3 10
      vertex -44 -3 10
      vertex -50 0 10
    endloop
  endfacet
  facet normal 0 0 1
    outer loop
      vertex -44 -3 10
      vertex -44 0 10
      vertex -52 4 10
    endloop
  endfacet
  facet normal 0 0 1
    outer loop
      vertex -7 0 10
      vertex -1 0 10
      vertex -52 4 10
    endloop
  endfacet
  facet normal 0 0 1
    outer loop
      vertex -7 -3 10
      vertex -1 -3 10
      vertex -7 0 10
    endloop
  endfacet
  facet normal 0 0 1
    outer loop
      vertex -1 -3 10
      vertex -1 0 10
      vertex -7 0 10
    endloop
  endfacet
  facet normal 0 0 1
    outer loop
      vertex -1 0 10
      vertex 23.3 0 10
      vertex -52 4 10
    endloop
  endfacet
  facet normal 0 0 1
    outer loop
      vertex 7.01858 3.36836 10
      vertex 5.55 3.90289 10
      vertex -52 4 10
    endloop
  endfacet
  facet normal 0 0 1
    outer loop
      vertex 5.55 3.90289 10
      vertex 1.08983 4 10
      vertex -52 4 10
    endloop
  endfacet
  facet normal 0 0 1
    outer loop
      vertex 1.48967 12.3847 10
      vertex 0.381759 10.2103 10
      vertex 4.3528 10.6925 10
    endloop
  endfacet
  facet normal 0 0 1
    outer loop
      vertex 23.3 0 10
      vertex 23.3 4.05 10
      vertex 10.05 3.90289 10
    endloop
  endfacet
  facet normal 0 0 1
    outer loop
      vertex 23.3 0 10
      vertex 10.05 3.90289 10
      vertex 8.58142 3.36836 10
    endloop
  endfacet
  facet normal 0 0 1
    outer loop
      vertex 23.3 0 10
      vertex 7.01858 3.36836 10
      vertex -52 4 10
    endloop
  endfacet
  facet normal 0 0 1
    outer loop
      vertex 23.3 0 10
      vertex 8.58142 3.36836 10
      vertex 7.01858 3.36836 10
    endloop
  endfacet
  facet normal 0 0 1
    outer loop
      vertex 0.381759 5.38967 10
      vertex 1.08983 4 10
      vertex 4.3528 4.90746 10
    endloop
  endfacet
  facet normal 0 0 1
    outer loop
      vertex 0.381759 10.2103 10
      vertex 0 7.8 10
      vertex 3.57138 9.33909 10
    endloop
  endfacet
  facet normal 0 0 1
    outer loop
      vertex 0 7.8 10
      vertex 0.381759 5.38967 10
      vertex 3.57138 6.26091 10
    endloop
  endfacet
  facet normal 0 0 1
    outer loop
      vertex 8.58142 12.2316 10
      vertex 23.3 15.6 10
      vertex 7.01858 12.2316 10
    endloop
  endfacet
  facet normal 0 0 1
    outer loop
      vertex 10.05 11.6971 10
      vertex 23.3 11.55 10
      vertex 8.58142 12.2316 10
    endloop
  endfacet
  facet normal 0 0 1
    outer loop
      vertex 5.38967 15.2182 10
      vertex 3.21528 14.1103 10
      vertex 7.8 15.6 10
    endloop
  endfacet
  facet normal 0 0 1
    outer loop
      vertex 23.3 11.55 10
      vertex 23.3 15.6 10
      vertex 8.58142 12.2316 10
    endloop
  endfacet
  facet normal 0 0 1
    outer loop
      vertex 1.48967 12.3847 10
      vertex 7.01858 12.2316 10
      vertex 23.3 15.6 10
    endloop
  endfacet
  facet normal 0 0 1
    outer loop
      vertex 23.3 15.6 10
      vertex 7.8 15.6 10
      vertex 3.21528 14.1103 10
    endloop
  endfacet
  facet normal 0 0 1
    outer loop
      vertex 23.3 15.6 10
      vertex 3.21528 14.1103 10
      vertex 1.48967 12.3847 10
    endloop
  endfacet
  facet normal 0 0 1
    outer loop
      vertex 0 7.8 10
      vertex 3.57138 6.26091 10
      vertex 3.3 7.8 10
    endloop
  endfacet
  facet normal 0 0 1
    outer loop
      vertex 3.57138 9.33909 10
      vertex 4.3528 10.6925 10
      vertex 0.381759 10.2103 10
    endloop
  endfacet
  facet normal 0 0 1
    outer loop
      vertex 3.3 7.8 10
      vertex 3.57138 9.33909 10
      vertex 0 7.8 10
    endloop
  endfacet
  facet normal 0 0 1
    outer loop
      vertex 4.3528 4.90746 10
      vertex 3.57138 6.26091 10
      vertex 0.381759 5.38967 10
    endloop
  endfacet
  facet normal 0 0 1
    outer loop
      vertex 1.48967 12.3847 10
      vertex 4.3528 10.6925 10
      vertex 5.55 11.6971 10
    endloop
  endfacet
  facet normal 0 0 1
    outer loop
      vertex 10.2253 11.55 10
      vertex 23.3 11.55 10
      vertex 10.05 11.6971 10
    endloop
  endfacet
  facet normal 0 0 1
    outer loop
      vertex 1.48967 12.3847 10
      vertex 5.55 11.6971 10
      vertex 7.01858 12.2316 10
    endloop
  endfacet
  facet normal 0 0 1
    outer loop
      vertex 10.2253 4.05 10
      vertex 10.05 3.90289 10
      vertex 23.3 4.05 10
    endloop
  endfacet
  facet normal 0 0 1
    outer loop
      vertex 5.55 3.90289 10
      vertex 4.3528 4.90746 10
      vertex 1.08983 4 10
    endloop
  endfacet
  facet normal 0 -1 0
    outer loop
      vertex -52 0 10
      vertex -52 0 0
      vertex -50 0 0
    endloop
  endfacet
  facet normal 0 -1 0
    outer loop
      vertex -50 0 10
      vertex -52 0 10
      vertex -50 0 0
    endloop
  endfacet
  facet normal -0.891007 -0.45399 0
    outer loop
      vertex 0.381759 5.38967 0
      vertex 1.08983 4 0
      vertex 0.381759 5.38967 2.5955
    endloop
  endfacet
  facet normal -0.891007 -0.45399 0
    outer loop
      vertex 0.381759 5.38967 2.5955
      vertex 1.08983 4 0
      vertex 1.08983 4 3.82191
    endloop
  endfacet
  facet normal 0.866025 -1.11022e-16 -0.5
    outer loop
      vertex 1.08983 4 3.82191
      vertex -1.115 4 0.003033
      vertex -1.115 7 0.003033
    endloop
  endfacet
  facet normal 0.866025 -1.11022e-16 -0.5
    outer loop
      vertex 0.381759 5.38967 2.5955
      vertex 1.08983 4 3.82191
      vertex -1.115 7 0.003033
    endloop
  endfacet
  facet normal 0.866025 -1.11022e-16 -0.5
    outer loop
      vertex 0.126707 7 2.15373
      vertex 0.381759 5.38967 2.5955
      vertex -1.115 7 0.003033
    endloop
  endfacet
  facet normal 0 -2.22045e-16 -1
    outer loop
      vertex -6.885 4 0.003033
      vertex -6.885 7 0.003033
      vertex -1.115 4 0.003033
    endloop
  endfacet
  facet normal 0 -2.22045e-16 -1
    outer loop
      vertex -1.115 4 0.003033
      vertex -6.885 7 0.003033
      vertex -1.115 7 0.003033
    endloop
  endfacet
  facet normal -0.866025 -1.11022e-16 -0.5
    outer loop
      vertex -9.77 4 5
      vertex -9.77 7 5
      vertex -6.885 4 0.003033
    endloop
  endfacet
  facet normal -0.866025 -1.11022e-16 -0.5
    outer loop
      vertex -6.885 4 0.003033
      vertex -9.77 7 5
      vertex -6.885 7 0.003033
    endloop
  endfacet
  facet normal -0.866025 1.11022e-16 0.5
    outer loop
      vertex -9.77 4 5
      vertex -6.885 4 9.99697
      vertex -9.77 7 5
    endloop
  endfacet
  facet normal -0.866025 1.11022e-16 0.5
    outer loop
      vertex -9.77 7 5
      vertex -6.885 4 9.99697
      vertex -6.885 7 9.99697
    endloop
  endfacet
  facet normal 0 2.22045e-16 1
    outer loop
      vertex -6.885 7 9.99697
      vertex -6.885 4 9.99697
      vertex -1.115 4 9.99697
    endloop
  endfacet
  facet normal 0 2.22045e-16 1
    outer loop
      vertex -1.115 7 9.99697
      vertex -6.885 7 9.99697
      vertex -1.115 4 9.99697
    endloop
  endfacet
  facet normal 0.866025 1.11022e-16 0.5
    outer loop
      vertex -1.115 7 9.99697
      vertex -1.115 4 9.99697
      vertex 1.08983 4 6.17809
    endloop
  endfacet
  facet normal 0.866025 1.11022e-16 0.5
    outer loop
      vertex 0.126707 7 7.84627
      vertex -1.115 7 9.99697
      vertex 0.381759 5.38967 7.4045
    endloop
  endfacet
  facet normal 0.866025 1.11022e-16 0.5
    outer loop
      vertex 0.381759 5.38967 7.4045
      vertex -1.115 7 9.99697
      vertex 1.08983 4 6.17809
    endloop
  endfacet
  facet normal -0.891007 -0.45399 0
    outer loop
      vertex 0.381759 5.38967 7.4045
      vertex 1.08983 4 6.17809
      vertex 0.381759 5.38967 10
    endloop
  endfacet
  facet normal -0.891007 -0.45399 0
    outer loop
      vertex 0.381759 5.38967 10
      vertex 1.08983 4 6.17809
      vertex 1.08983 4 10
    endloop
  endfacet
  facet normal 0.866025 1.11022e-16 0.5
    outer loop
      vertex -44.115 7 9.99697
      vertex -44.115 4 9.99697
      vertex -41.23 4 5
    endloop
  endfacet
  facet normal 0.866025 1.11022e-16 0.5
    outer loop
      vertex -41.23 7 5
      vertex -44.115 7 9.99697
      vertex -41.23 4 5
    endloop
  endfacet
  facet normal 0.866025 -1.11022e-16 -0.5
    outer loop
      vertex -41.23 4 5
      vertex -44.115 4 0.003033
      vertex -44.115 7 0.003033
    endloop
  endfacet
  facet normal 0.866025 -1.11022e-16 -0.5
    outer loop
      vertex -41.23 7 5
      vertex -41.23 4 5
      vertex -44.115 7 0.003033
    endloop
  endfacet
  facet normal 0.866025 -1.11022e-16 -0.5
    outer loop
      vertex -50.3754 7 5
      vertex -48.6877 7 7.9232
      vertex -48.6877 4 7.92321
    endloop
  endfacet
  facet normal 0.866025 -1.11022e-16 -0.5
    outer loop
      vertex -50.3754 4 5
      vertex -50.3754 7 5
      vertex -48.6877 4 7.92321
    endloop
  endfacet
  facet normal 0.866025 1.11022e-16 0.5
    outer loop
      vertex -48.6877 4 2.0768
      vertex -48.6877 7 2.0768
      vertex -50.3754 7 5
    endloop
  endfacet
  facet normal 0.866025 1.11022e-16 0.5
    outer loop
      vertex -50.3754 4 5
      vertex -48.6877 4 2.0768
      vertex -50.3754 7 5
    endloop
  endfacet
  facet normal 0 -2.22045e-16 -1
    outer loop
      vertex -45.3123 7 7.9232
      vertex -45.3123 4 7.92321
      vertex -48.6877 7 7.9232
    endloop
  endfacet
  facet normal 0 -2.22045e-16 -1
    outer loop
      vertex -48.6877 7 7.9232
      vertex -45.3123 4 7.92321
      vertex -48.6877 4 7.92321
    endloop
  endfacet
  facet normal -0.866025 -1.11022e-16 -0.5
    outer loop
      vertex -43.6246 7 5
      vertex -43.6246 4 5
      vertex -45.3123 7 7.9232
    endloop
  endfacet
  facet normal -0.866025 -1.11022e-16 -0.5
    outer loop
      vertex -45.3123 7 7.9232
      vertex -43.6246 4 5
      vertex -45.3123 4 7.92321
    endloop
  endfacet
  facet normal -0.866025 1.11022e-16 0.5
    outer loop
      vertex -43.6246 7 5
      vertex -45.3123 7 2.0768
      vertex -43.6246 4 5
    endloop
  endfacet
  facet normal -0.866025 1.11022e-16 0.5
    outer loop
      vertex -43.6246 4 5
      vertex -45.3123 7 2.0768
      vertex -45.3123 4 2.0768
    endloop
  endfacet
  facet normal 0 2.22045e-16 1
    outer loop
      vertex -45.3123 4 2.0768
      vertex -45.3123 7 2.0768
      vertex -48.6877 7 2.0768
    endloop
  endfacet
  facet normal 0 2.22045e-16 1
    outer loop
      vertex -48.6877 4 2.0768
      vertex -45.3123 4 2.0768
      vertex -48.6877 7 2.0768
    endloop
  endfacet
  facet normal -1 0 0
    outer loop
      vertex -50 -3 0
      vertex -50 -3 10
      vertex -50 0 0
    endloop
  endfacet
  facet normal -1 0 0
    outer loop
      vertex -50 0 0
      vertex -50 -3 10
      vertex -50 0 10
    endloop
  endfacet
  facet normal 0 -1 0
    outer loop
      vertex -48.4753 -3 3.92812
      vertex -50 -3 0
      vertex -44 -3 0
    endloop
  endfacet
  facet normal 0 -1 0
    outer loop
      vertex -47.5635 -3 3.26566
      vertex -48.4753 -3 3.92812
      vertex -44 -3 0
    endloop
  endfacet
  facet normal 0 -1 0
    outer loop
      vertex -48.8236 -3 5
      vertex -50 -3 0
      vertex -48.4753 -3 3.92812
    endloop
  endfacet
  facet normal 0 -1 0
    outer loop
      vertex -50 -3 10
      vertex -50 -3 0
      vertex -48.8236 -3 5
    endloop
  endfacet
  facet normal 0 -1 0
    outer loop
      vertex -44 -3 10
      vertex -45.1764 -3 5
      vertex -44 -3 0
    endloop
  endfacet
  facet normal 0 -1 0
    outer loop
      vertex -44 -3 10
      vertex -50 -3 10
      vertex -45.1764 -3 5
    endloop
  endfacet
  facet normal 0 -1 0
    outer loop
      vertex -45.1764 -3 5
      vertex -45.5247 -3 3.92812
      vertex -44 -3 0
    endloop
  endfacet
  facet normal 0 -1 0
    outer loop
      vertex -46.4365 -3 3.26566
      vertex -47.5635 -3 3.26566
      vertex -44 -3 0
    endloop
  endfacet
  facet normal 0 -1 0
    outer loop
      vertex -45.5247 -3 3.92812
      vertex -46.4365 -3 3.26566
      vertex -44 -3 0
    endloop
  endfacet
  facet normal 0 -1 0
    outer loop
      vertex -48.8236 -3 5
      vertex -45.1764 -3 5
      vertex -50 -3 10
    endloop
  endfacet
  facet normal 1 0 0
    outer loop
      vertex -44 -3 10
      vertex -44 -3 0
      vertex -44 0 0
    endloop
  endfacet
  facet normal 1 0 0
    outer loop
      vertex -44 0 10
      vertex -44 -3 10
      vertex -44 0 0
    endloop
  endfacet
  facet normal 0 -1 0
    outer loop
      vertex -44 0 10
      vertex -44 0 0
      vertex -7 0 0
    endloop
  endfacet
  facet normal 0 -1 0
    outer loop
      vertex -7 0 10
      vertex -44 0 10
      vertex -7 0 0
    endloop
  endfacet
  facet normal -1 0 0
    outer loop
      vertex -7 -3 0
      vertex -7 -3 10
      vertex -7 0 0
    endloop
  endfacet
  facet normal -1 0 0
    outer loop
      vertex -7 0 0
      vertex -7 -3 10
      vertex -7 0 10
    endloop
  endfacet
  facet normal 0 -1 0
    outer loop
      vertex -5.47531 -3 3.92812
      vertex -7 -3 0
      vertex -1 -3 0
    endloop
  endfacet
  facet normal 0 -1 0
    outer loop
      vertex -4.56352 -3 3.26566
      vertex -5.47531 -3 3.92812
      vertex -1 -3 0
    endloop
  endfacet
  facet normal 0 -1 0
    outer loop
      vertex -5.82359 -3 5
      vertex -7 -3 0
      vertex -5.47531 -3 3.92812
    endloop
  endfacet
  facet normal 0 -1 0
    outer loop
      vertex -7 -3 10
      vertex -7 -3 0
      vertex -5.82359 -3 5
    endloop
  endfacet
  facet normal 0 -1 0
    outer loop
      vertex -1 -3 10
      vertex -2.17641 -3 5
      vertex -1 -3 0
    endloop
  endfacet
  facet normal 0 -1 0
    outer loop
      vertex -1 -3 10
      vertex -7 -3 10
      vertex -2.17641 -3 5
    endloop
  endfacet
  facet normal 0 -1 0
    outer loop
      vertex -2.17641 -3 5
      vertex -2.52469 -3 3.92812
      vertex -1 -3 0
    endloop
  endfacet
  facet normal 0 -1 0
    outer loop
      vertex -3.43648 -3 3.26566
      vertex -4.56352 -3 3.26566
      vertex -1 -3 0
    endloop
  endfacet
  facet normal 0 -1 0
    outer loop
      vertex -2.52469 -3 3.92812
      vertex -3.43648 -3 3.26566
      vertex -1 -3 0
    endloop
  endfacet
  facet normal 0 -1 0
    outer loop
      vertex -5.82359 -3 5
      vertex -2.17641 -3 5
      vertex -7 -3 10
    endloop
  endfacet
  facet normal 1 0 0
    outer loop
      vertex -1 -3 10
      vertex -1 -3 0
      vertex -1 0 0
    endloop
  endfacet
  facet normal 1 0 0
    outer loop
      vertex -1 0 10
      vertex -1 -3 10
      vertex -1 0 0
    endloop
  endfacet
  facet normal 0 -1 0
    outer loop
      vertex -1 0 10
      vertex -1 0 0
      vertex 23.3 0 0
    endloop
  endfacet
  facet normal 0 -1 0
    outer loop
      vertex 16.4365 0 3.26566
      vertex -1 0 10
      vertex 23.3 0 0
    endloop
  endfacet
  facet normal 0 -1 0
    outer loop
      vertex 15.1764 0 5
      vertex -1 0 10
      vertex 15.5247 0 3.92812
    endloop
  endfacet
  facet normal 0 -1 0
    outer loop
      vertex 17.5635 0 3.26566
      vertex 16.4365 0 3.26566
      vertex 23.3 0 0
    endloop
  endfacet
  facet normal 0 -1 0
    outer loop
      vertex 15.5247 0 6.07188
      vertex -1 0 10
      vertex 15.1764 0 5
    endloop
  endfacet
  facet normal 0 -1 0
    outer loop
      vertex 16.4365 0 6.73434
      vertex -1 0 10
      vertex 15.5247 0 6.07188
    endloop
  endfacet
  facet normal 0 -1 0
    outer loop
      vertex 23.3 0 10
      vertex -1 0 10
      vertex 16.4365 0 6.73434
    endloop
  endfacet
  facet normal 0 -1 0
    outer loop
      vertex 23.3 0 10
      vertex 18.4753 0 6.07188
      vertex 23.3 0 0
    endloop
  endfacet
  facet normal 0 -1 0
    outer loop
      vertex 18.4753 0 6.07188
      vertex 18.8236 0 5
      vertex 23.3 0 0
    endloop
  endfacet
  facet normal 0 -1 0
    outer loop
      vertex 18.8236 0 5
      vertex 18.4753 0 3.92812
      vertex 23.3 0 0
    endloop
  endfacet
  facet normal 0 -1 0
    outer loop
      vertex 18.4753 0 3.92812
      vertex 17.5635 0 3.26566
      vertex 23.3 0 0
    endloop
  endfacet
  facet normal 0 -1 0
    outer loop
      vertex 15.5247 0 3.92812
      vertex -1 0 10
      vertex 16.4365 0 3.26566
    endloop
  endfacet
  facet normal 0 -1 0
    outer loop
      vertex 16.4365 0 6.73434
      vertex 17.5635 0 6.73434
      vertex 23.3 0 10
    endloop
  endfacet
  facet normal 0 -1 0
    outer loop
      vertex 17.5635 0 6.73434
      vertex 18.4753 0 6.07188
      vertex 23.3 0 10
    endloop
  endfacet
  facet normal 1 0 0
    outer loop
      vertex 23.3 0 10
      vertex 23.3 0 0
      vertex 23.3 4.05 0
    endloop
  endfacet
  facet normal 1 0 0
    outer loop
      vertex 23.3 4.05 10
      vertex 23.3 0 10
      vertex 23.3 4.05 0
    endloop
  endfacet
  facet normal 0 1 0
    outer loop
      vertex 16.4365 4.05 3.26566
      vertex 23.3 4.05 0
      vertex 10.2253 4.05 0
    endloop
  endfacet
  facet normal 0 1 0
    outer loop
      vertex 18.4753 4.05 3.92812
      vertex 23.3 4.05 0
      vertex 17.5635 4.05 3.26566
    endloop
  endfacet
  facet normal 0 1 0
    outer loop
      vertex 10.2253 4.05 10
      vertex 15.5247 4.05 3.92812
      vertex 10.2253 4.05 0
    endloop
  endfacet
  facet normal 0 1 0
    outer loop
      vertex 15.5247 4.05 3.92812
      vertex 16.4365 4.05 3.26566
      vertex 10.2253 4.05 0
    endloop
  endfacet
  facet normal 0 1 0
    outer loop
      vertex 23.3 4.05 10
      vertex 23.3 4.05 0
      vertex 18.4753 4.05 3.92812
    endloop
  endfacet
  facet normal 0 1 0
    outer loop
      vertex 23.3 4.05 10
      vertex 18.4753 4.05 3.92812
      vertex 18.8236 4.05 5
    endloop
  endfacet
  facet normal 0 1 0
    outer loop
      vertex 23.3 4.05 10
      vertex 18.8236 4.05 5
      vertex 18.4753 4.05 6.07188
    endloop
  endfacet
  facet normal 0 1 0
    outer loop
      vertex 23.3 4.05 10
      vertex 18.4753 4.05 6.07188
      vertex 17.5635 4.05 6.73434
    endloop
  endfacet
  facet normal 0 1 0
    outer loop
      vertex 23.3 4.05 10
      vertex 17.5635 4.05 6.73434
      vertex 10.2253 4.05 10
    endloop
  endfacet
  facet normal 0 1 0
    outer loop
      vertex 15.5247 4.05 6.07188
      vertex 10.2253 4.05 10
      vertex 16.4365 4.05 6.73434
    endloop
  endfacet
  facet normal 0 1 0
    outer loop
      vertex 16.4365 4.05 6.73434
      vertex 10.2253 4.05 10
      vertex 17.5635 4.05 6.73434
    endloop
  endfacet
  facet normal 0 1 0
    outer loop
      vertex 15.1764 4.05 5
      vertex 10.2253 4.05 10
      vertex 15.5247 4.05 6.07188
    endloop
  endfacet
  facet normal 0 1 0
    outer loop
      vertex 10.2253 4.05 10
      vertex 15.1764 4.05 5
      vertex 15.5247 4.05 3.92812
    endloop
  endfacet
  facet normal 0 1 0
    outer loop
      vertex 17.5635 4.05 3.26566
      vertex 23.3 4.05 0
      vertex 16.4365 4.05 3.26566
    endloop
  endfacet
  facet normal -0.642788 0.766044 0
    outer loop
      vertex 10.2253 4.05 10
      vertex 10.2253 4.05 0
      vertex 10.05 3.90289 10
    endloop
  endfacet
  facet normal -0.642788 0.766044 0
    outer loop
      vertex 10.05 3.90289 10
      vertex 10.2253 4.05 0
      vertex 10.05 3.90289 0
    endloop
  endfacet
  facet normal -0.34202 0.939693 0
    outer loop
      vertex 10.05 3.90289 10
      vertex 10.05 3.90289 0
      vertex 8.58142 3.36836 10
    endloop
  endfacet
  facet normal -0.34202 0.939693 0
    outer loop
      vertex 8.58142 3.36836 10
      vertex 10.05 3.90289 0
      vertex 8.58142 3.36836 0
    endloop
  endfacet
  facet normal 0 1 0
    outer loop
      vertex 8.58142 3.36836 10
      vertex 8.58142 3.36836 0
      vertex 7.01858 3.36836 10
    endloop
  endfacet
  facet normal 0 1 0
    outer loop
      vertex 7.01858 3.36836 10
      vertex 8.58142 3.36836 0
      vertex 7.01858 3.36836 0
    endloop
  endfacet
  facet normal 0.34202 0.939693 0
    outer loop
      vertex 7.01858 3.36836 10
      vertex 7.01858 3.36836 0
      vertex 5.55 3.90289 10
    endloop
  endfacet
  facet normal 0.34202 0.939693 0
    outer loop
      vertex 5.55 3.90289 10
      vertex 7.01858 3.36836 0
      vertex 5.55 3.90289 0
    endloop
  endfacet
  facet normal 0.642788 0.766044 0
    outer loop
      vertex 5.55 3.90289 10
      vertex 5.55 3.90289 0
      vertex 4.3528 4.90746 10
    endloop
  endfacet
  facet normal 0.642788 0.766044 0
    outer loop
      vertex 4.3528 4.90746 10
      vertex 5.55 3.90289 0
      vertex 4.3528 4.90746 0
    endloop
  endfacet
  facet normal 0.866025 0.5 0
    outer loop
      vertex 3.57138 6.26091 10
      vertex 4.3528 4.90746 10
      vertex 4.3528 4.90746 0
    endloop
  endfacet
  facet normal 0.866025 0.5 0
    outer loop
      vertex 3.57138 6.26091 0
      vertex 3.57138 6.26091 10
      vertex 4.3528 4.90746 0
    endloop
  endfacet
  facet normal 0.984808 0.173648 0
    outer loop
      vertex 3.3 7.8 10
      vertex 3.57138 6.26091 10
      vertex 3.57138 6.26091 0
    endloop
  endfacet
  facet normal 0.984808 0.173648 0
    outer loop
      vertex 3.3 7.8 0
      vertex 3.3 7.8 10
      vertex 3.57138 6.26091 0
    endloop
  endfacet
  facet normal 0.984808 -0.173648 0
    outer loop
      vertex 3.57138 9.33909 0
      vertex 3.57138 9.33909 10
      vertex 3.3 7.8 10
    endloop
  endfacet
  facet normal 0.984808 -0.173648 0
    outer loop
      vertex 3.3 7.8 0
      vertex 3.57138 9.33909 0
      vertex 3.3 7.8 10
    endloop
  endfacet
  facet normal 0.866025 -0.5 0
    outer loop
      vertex 4.3528 10.6925 0
      vertex 4.3528 10.6925 10
      vertex 3.57138 9.33909 10
    endloop
  endfacet
  facet normal 0.866025 -0.5 0
    outer loop
      vertex 3.57138 9.33909 0
      vertex 4.3528 10.6925 0
      vertex 3.57138 9.33909 10
    endloop
  endfacet
  facet normal 0.642788 -0.766044 0
    outer loop
      vertex 5.55 11.6971 0
      vertex 5.55 11.6971 10
      vertex 4.3528 10.6925 10
    endloop
  endfacet
  facet normal 0.642788 -0.766044 0
    outer loop
      vertex 4.3528 10.6925 0
      vertex 5.55 11.6971 0
      vertex 4.3528 10.6925 10
    endloop
  endfacet
  facet normal 0.34202 -0.939693 0
    outer loop
      vertex 7.01858 12.2316 0
      vertex 7.01858 12.2316 10
      vertex 5.55 11.6971 10
    endloop
  endfacet
  facet normal 0.34202 -0.939693 0
    outer loop
      vertex 5.55 11.6971 0
      vertex 7.01858 12.2316 0
      vertex 5.55 11.6971 10
    endloop
  endfacet
  facet normal 0 -1 0
    outer loop
      vertex 8.58142 12.2316 0
      vertex 8.58142 12.2316 10
      vertex 7.01858 12.2316 10
    endloop
  endfacet
  facet normal 0 -1 0
    outer loop
      vertex 7.01858 12.2316 0
      vertex 8.58142 12.2316 0
      vertex 7.01858 12.2316 10
    endloop
  endfacet
  facet normal -0.34202 -0.939693 0
    outer loop
      vertex 10.05 11.6971 0
      vertex 10.05 11.6971 10
      vertex 8.58142 12.2316 10
    endloop
  endfacet
  facet normal -0.34202 -0.939693 0
    outer loop
      vertex 8.58142 12.2316 0
      vertex 10.05 11.6971 0
      vertex 8.58142 12.2316 10
    endloop
  endfacet
  facet normal -0.642788 -0.766044 0
    outer loop
      vertex 10.2253 11.55 0
      vertex 10.2253 11.55 10
      vertex 10.05 11.6971 10
    endloop
  endfacet
  facet normal -0.642788 -0.766044 0
    outer loop
      vertex 10.05 11.6971 0
      vertex 10.2253 11.55 0
      vertex 10.05 11.6971 10
    endloop
  endfacet
  facet normal 0 -1 0
    outer loop
      vertex 16.4365 11.55 6.73434
      vertex 23.3 11.55 10
      vertex 10.2253 11.55 10
    endloop
  endfacet
  facet normal 0 -1 0
    outer loop
      vertex 16.4365 11.55 6.73434
      vertex 17.5635 11.55 6.73434
      vertex 23.3 11.55 10
    endloop
  endfacet
  facet normal 0 -1 0
    outer loop
      vertex 10.2253 11.55 0
      vertex 15.1764 11.55 5
      vertex 10.2253 11.55 10
    endloop
  endfacet
  facet normal 0 -1 0
    outer loop
      vertex 15.5247 11.55 6.07188
      vertex 16.4365 11.55 6.73434
      vertex 10.2253 11.55 10
    endloop
  endfacet
  facet normal 0 -1 0
    outer loop
      vertex 18.4753 11.55 6.07188
      vertex 18.8236 11.55 5
      vertex 23.3 11.55 0
    endloop
  endfacet
  facet normal 0 -1 0
    outer loop
      vertex 18.4753 11.55 6.07188
      vertex 23.3 11.55 10
      vertex 17.5635 11.55 6.73434
    endloop
  endfacet
  facet normal 0 -1 0
    outer loop
      vertex 23.3 11.55 0
      vertex 23.3 11.55 10
      vertex 18.4753 11.55 6.07188
    endloop
  endfacet
  facet normal 0 -1 0
    outer loop
      vertex 23.3 11.55 0
      vertex 18.8236 11.55 5
      vertex 18.4753 11.55 3.92812
    endloop
  endfacet
  facet normal 0 -1 0
    outer loop
      vertex 10.2253 11.55 0
      vertex 23.3 11.55 0
      vertex 17.5635 11.55 3.26566
    endloop
  endfacet
  facet normal 0 -1 0
    outer loop
      vertex 10.2253 11.55 0
      vertex 17.5635 11.55 3.26566
      vertex 16.4365 11.55 3.26566
    endloop
  endfacet
  facet normal 0 -1 0
    outer loop
      vertex 10.2253 11.55 0
      vertex 15.5247 11.55 3.92812
      vertex 15.1764 11.55 5
    endloop
  endfacet
  facet normal 0 -1 0
    outer loop
      vertex 10.2253 11.55 0
      vertex 16.4365 11.55 3.26566
      vertex 15.5247 11.55 3.92812
    endloop
  endfacet
  facet normal 0 -1 0
    outer loop
      vertex 15.1764 11.55 5
      vertex 15.5247 11.55 6.07188
      vertex 10.2253 11.55 10
    endloop
  endfacet
  facet normal 0 -1 0
    outer loop
      vertex 18.4753 11.55 3.92812
      vertex 17.5635 11.55 3.26566
      vertex 23.3 11.55 0
    endloop
  endfacet
  facet normal 1 0 0
    outer loop
      vertex 23.3 11.55 10
      vertex 23.3 11.55 0
      vertex 23.3 15.6 0
    endloop
  endfacet
  facet normal 1 0 0
    outer loop
      vertex 23.3 15.6 10
      vertex 23.3 11.55 10
      vertex 23.3 15.6 0
    endloop
  endfacet
  facet normal 0 1 0
    outer loop
      vertex 22.77 15.6 5
      vertex 23.3 15.6 0
      vertex 19.885 15.6 0.003033
    endloop
  endfacet
  facet normal 0 1 0
    outer loop
      vertex 19.885 15.6 9.99697
      vertex 7.8 15.6 10
      vertex 23.3 15.6 10
    endloop
  endfacet
  facet normal 0 1 0
    outer loop
      vertex 7.8 15.6 0
      vertex 7.8 15.6 10
      vertex 11.23 15.6 5
    endloop
  endfacet
  facet normal 0 1 0
    outer loop
      vertex 7.8 15.6 0
      vertex 11.23 15.6 5
      vertex 14.115 15.6 0.003033
    endloop
  endfacet
  facet normal 0 1 0
    outer loop
      vertex 7.8 15.6 0
      vertex 14.115 15.6 0.003033
      vertex 23.3 15.6 0
    endloop
  endfacet
  facet normal 0 1 0
    outer loop
      vertex 14.115 15.6 0.003033
      vertex 19.885 15.6 0.003033
      vertex 23.3 15.6 0
    endloop
  endfacet
  facet normal 0 1 0
    outer loop
      vertex 23.3 15.6 0
      vertex 22.77 15.6 5
      vertex 23.3 15.6 10
    endloop
  endfacet
  facet normal 0 1 0
    outer loop
      vertex 14.115 15.6 9.99697
      vertex 7.8 15.6 10
      vertex 19.885 15.6 9.99697
    endloop
  endfacet
  facet normal 0 1 0
    outer loop
      vertex 22.77 15.6 5
      vertex 19.885 15.6 9.99697
      vertex 23.3 15.6 10
    endloop
  endfacet
  facet normal 0 1 0
    outer loop
      vertex 11.23 15.6 5
      vertex 7.8 15.6 10
      vertex 14.115 15.6 9.99697
    endloop
  endfacet
  facet normal -0.156434 0.987688 0
    outer loop
      vertex 5.38967 15.2182 0
      vertex 5.38967 15.2182 10
      vertex 7.8 15.6 0
    endloop
  endfacet
  facet normal -0.156434 0.987688 0
    outer loop
      vertex 7.8 15.6 0
      vertex 5.38967 15.2182 10
      vertex 7.8 15.6 10
    endloop
  endfacet
  facet normal -0.45399 0.891007 0
    outer loop
      vertex 3.21528 14.1103 0
      vertex 3.21528 14.1103 10
      vertex 5.38967 15.2182 0
    endloop
  endfacet
  facet normal -0.45399 0.891007 0
    outer loop
      vertex 5.38967 15.2182 0
      vertex 3.21528 14.1103 10
      vertex 5.38967 15.2182 10
    endloop
  endfacet
  facet normal -0.707107 0.707107 0
    outer loop
      vertex 1.48967 12.3847 0
      vertex 1.48967 12.3847 10
      vertex 3.21528 14.1103 0
    endloop
  endfacet
  facet normal -0.707107 0.707107 0
    outer loop
      vertex 3.21528 14.1103 0
      vertex 1.48967 12.3847 10
      vertex 3.21528 14.1103 10
    endloop
  endfacet
  facet normal -0.891007 0.45399 0
    outer loop
      vertex 0.381759 10.2103 0
      vertex 0.381759 10.2103 10
      vertex 1.48967 12.3847 0
    endloop
  endfacet
  facet normal -0.891007 0.45399 0
    outer loop
      vertex 1.48967 12.3847 0
      vertex 0.381759 10.2103 10
      vertex 1.48967 12.3847 10
    endloop
  endfacet
  facet normal -0.987688 0.156434 0
    outer loop
      vertex 0 7.8 0
      vertex 0 7.8 10
      vertex 0.381759 10.2103 0
    endloop
  endfacet
  facet normal -0.987688 0.156434 0
    outer loop
      vertex 0.381759 10.2103 0
      vertex 0 7.8 10
      vertex 0.381759 10.2103 10
    endloop
  endfacet
  facet normal -0.987688 -0.156434 0
    outer loop
      vertex 0.126707 7 7.84627
      vertex 0 7.8 10
      vertex 0.126707 7 2.15373
    endloop
  endfacet
  facet normal -0.987688 -0.156434 0
    outer loop
      vertex 0 7.8 0
      vertex 0.381759 5.38967 0
      vertex 0.126707 7 2.15373
    endloop
  endfacet
  facet normal -0.987688 -0.156434 0
    outer loop
      vertex 0 7.8 0
      vertex 0.126707 7 2.15373
      vertex 0 7.8 10
    endloop
  endfacet
  facet normal -0.987688 -0.156434 0
    outer loop
      vertex 0 7.8 10
      vertex 0.126707 7 7.84627
      vertex 0.381759 5.38967 7.4045
    endloop
  endfacet
  facet normal -0.987688 -0.156434 0
    outer loop
      vertex 0 7.8 10
      vertex 0.381759 5.38967 7.4045
      vertex 0.381759 5.38967 10
    endloop
  endfacet
  facet normal -0.987688 -0.156434 0
    outer loop
      vertex 0.126707 7 2.15373
      vertex 0.381759 5.38967 0
      vertex 0.381759 5.38967 2.5955
    endloop
  endfacet
  facet normal 0 1 -2.22045e-16
    outer loop
      vertex -5.68771 7 2.0768
      vertex -6.885 7 0.003033
      vertex -7.37543 7 5
    endloop
  endfacet
  facet normal 0 1 -2.22045e-16
    outer loop
      vertex -2.31229 7 7.9232
      vertex -6.885 7 9.99697
      vertex -1.115 7 9.99697
    endloop
  endfacet
  facet normal 0 1 -2.22045e-16
    outer loop
      vertex -0.624574 7 5
      vertex 0.126707 7 7.84627
      vertex 0.126707 7 2.15373
    endloop
  endfacet
  facet normal 0 1 -2.22045e-16
    outer loop
      vertex -6.885 7 0.003033
      vertex 0.126707 7 2.15373
      vertex -1.115 7 0.003033
    endloop
  endfacet
  facet normal 0 1 -2.22045e-16
    outer loop
      vertex -9.77 7 5
      vertex -6.885 7 9.99697
      vertex -7.37543 7 5
    endloop
  endfacet
  facet normal 0 1 -2.22045e-16
    outer loop
      vertex -9.77 7 5
      vertex -7.37543 7 5
      vertex -6.885 7 0.003033
    endloop
  endfacet
  facet normal 0 1 -2.22045e-16
    outer loop
      vertex -2.31229 7 2.0768
      vertex -6.885 7 0.003033
      vertex -5.68771 7 2.0768
    endloop
  endfacet
  facet normal 0 1 -2.22045e-16
    outer loop
      vertex -2.31229 7 7.9232
      vertex 0.126707 7 7.84627
      vertex -0.624574 7 5
    endloop
  endfacet
  facet normal 0 1 -2.22045e-16
    outer loop
      vertex -2.31229 7 7.9232
      vertex -1.115 7 9.99697
      vertex 0.126707 7 7.84627
    endloop
  endfacet
  facet normal 0 1 -2.22045e-16
    outer loop
      vertex -6.885 7 0.003033
      vertex -2.31229 7 2.0768
      vertex 0.126707 7 2.15373
    endloop
  endfacet
  facet normal 0 1 -2.22045e-16
    outer loop
      vertex -2.31229 7 2.0768
      vertex -0.624574 7 5
      vertex 0.126707 7 2.15373
    endloop
  endfacet
  facet normal 0 1 -2.22045e-16
    outer loop
      vertex -5.68771 7 7.9232
      vertex -6.885 7 9.99697
      vertex -2.31229 7 7.9232
    endloop
  endfacet
  facet normal 0 1 -2.22045e-16
    outer loop
      vertex -7.37543 7 5
      vertex -6.885 7 9.99697
      vertex -5.68771 7 7.9232
    endloop
  endfacet
  facet normal 0 1 -2.22045e-16
    outer loop
      vertex -47.5635 4 6.73434
      vertex -48.6877 4 7.92321
      vertex -46.4365 4 6.73434
    endloop
  endfacet
  facet normal 0 1 -2.22045e-16
    outer loop
      vertex -45.5247 4 3.92812
      vertex -43.6246 4 5
      vertex -45.3123 4 2.0768
    endloop
  endfacet
  facet normal 0 1 -2.22045e-16
    outer loop
      vertex -47.5635 4 3.26566
      vertex -45.3123 4 2.0768
      vertex -48.6877 4 2.0768
    endloop
  endfacet
  facet normal 0 1 -2.22045e-16
    outer loop
      vertex -48.8236 4 5
      vertex -48.6877 4 2.0768
      vertex -50.3754 4 5
    endloop
  endfacet
  facet normal 0 1 -2.22045e-16
    outer loop
      vertex -45.5247 4 3.92812
      vertex -45.3123 4 2.0768
      vertex -46.4365 4 3.26566
    endloop
  endfacet
  facet normal 0 1 -2.22045e-16
    outer loop
      vertex -46.4365 4 3.26566
      vertex -45.3123 4 2.0768
      vertex -47.5635 4 3.26566
    endloop
  endfacet
  facet normal 0 1 -2.22045e-16
    outer loop
      vertex -48.4753 4 3.92812
      vertex -47.5635 4 3.26566
      vertex -48.6877 4 2.0768
    endloop
  endfacet
  facet normal 0 1 -2.22045e-16
    outer loop
      vertex -45.1764 4 5
      vertex -43.6246 4 5
      vertex -45.5247 4 3.92812
    endloop
  endfacet
  facet normal 0 1 -2.22045e-16
    outer loop
      vertex -46.4365 4 6.73434
      vertex -43.6246 4 5
      vertex -45.5247 4 6.07188
    endloop
  endfacet
  facet normal 0 1 -2.22045e-16
    outer loop
      vertex -45.5247 4 6.07188
      vertex -43.6246 4 5
      vertex -45.1764 4 5
    endloop
  endfacet
  facet normal 0 1 -2.22045e-16
    outer loop
      vertex -45.3123 4 7.92321
      vertex -43.6246 4 5
      vertex -46.4365 4 6.73434
    endloop
  endfacet
  facet normal 0 1 -2.22045e-16
    outer loop
      vertex -45.3123 4 7.92321
      vertex -46.4365 4 6.73434
      vertex -48.6877 4 7.92321
    endloop
  endfacet
  facet normal 0 1 -2.22045e-16
    outer loop
      vertex -48.4753 4 6.07188
      vertex -48.6877 4 7.92321
      vertex -47.5635 4 6.73434
    endloop
  endfacet
  facet normal 0 1 -2.22045e-16
    outer loop
      vertex -48.8236 4 5
      vertex -48.6877 4 7.92321
      vertex -48.4753 4 6.07188
    endloop
  endfacet
  facet normal 0 1 -2.22045e-16
    outer loop
      vertex -48.6877 4 7.92321
      vertex -48.8236 4 5
      vertex -50.3754 4 5
    endloop
  endfacet
  facet normal 0 1 -2.22045e-16
    outer loop
      vertex -48.4753 4 3.92812
      vertex -48.6877 4 2.0768
      vertex -48.8236 4 5
    endloop
  endfacet
  facet normal 0.951057 6.86155e-17 0.309017
    outer loop
      vertex -48.4753 -3 3.92812
      vertex -48.4753 4 3.92812
      vertex -48.8236 4 5
    endloop
  endfacet
  facet normal 0.951057 6.86155e-17 0.309017
    outer loop
      vertex -48.8236 -3 5
      vertex -48.4753 -3 3.92812
      vertex -48.8236 4 5
    endloop
  endfacet
  facet normal 0.587786 1.79638e-16 0.809017
    outer loop
      vertex -47.5635 -3 3.26566
      vertex -47.5635 4 3.26566
      vertex -48.4753 4 3.92812
    endloop
  endfacet
  facet normal 0.587786 1.79638e-16 0.809017
    outer loop
      vertex -48.4753 -3 3.92812
      vertex -47.5635 -3 3.26566
      vertex -48.4753 4 3.92812
    endloop
  endfacet
  facet normal 0 2.22045e-16 1
    outer loop
      vertex -46.4365 -3 3.26566
      vertex -46.4365 4 3.26566
      vertex -47.5635 4 3.26566
    endloop
  endfacet
  facet normal 0 2.22045e-16 1
    outer loop
      vertex -47.5635 -3 3.26566
      vertex -46.4365 -3 3.26566
      vertex -47.5635 4 3.26566
    endloop
  endfacet
  facet normal -0.587786 1.79638e-16 0.809017
    outer loop
      vertex -45.5247 -3 3.92812
      vertex -45.5247 4 3.92812
      vertex -46.4365 4 3.26566
    endloop
  endfacet
  facet normal -0.587786 1.79638e-16 0.809017
    outer loop
      vertex -46.4365 -3 3.26566
      vertex -45.5247 -3 3.92812
      vertex -46.4365 4 3.26566
    endloop
  endfacet
  facet normal -0.951057 6.86155e-17 0.309017
    outer loop
      vertex -45.1764 4 5
      vertex -45.5247 4 3.92812
      vertex -45.1764 -3 5
    endloop
  endfacet
  facet normal -0.951057 6.86155e-17 0.309017
    outer loop
      vertex -45.1764 -3 5
      vertex -45.5247 4 3.92812
      vertex -45.5247 -3 3.92812
    endloop
  endfacet
  facet normal 0 1 -2.22045e-16
    outer loop
      vertex -47.5635 -3 6.73434
      vertex -46.4365 -3 6.73434
      vertex -48.4753 -3 6.07188
    endloop
  endfacet
  facet normal 0 1 -2.22045e-16
    outer loop
      vertex -48.4753 -3 6.07188
      vertex -46.4365 -3 6.73434
      vertex -45.5247 -3 6.07188
    endloop
  endfacet
  facet normal 0 1 -2.22045e-16
    outer loop
      vertex -48.4753 -3 6.07188
      vertex -45.5247 -3 6.07188
      vertex -45.1764 -3 5
    endloop
  endfacet
  facet normal 0 1 -2.22045e-16
    outer loop
      vertex -48.4753 -3 6.07188
      vertex -45.1764 -3 5
      vertex -48.8236 -3 5
    endloop
  endfacet
  facet normal -0.951057 -6.86155e-17 -0.309017
    outer loop
      vertex -45.1764 4 5
      vertex -45.1764 -3 5
      vertex -45.5247 4 6.07188
    endloop
  endfacet
  facet normal -0.951057 -6.86155e-17 -0.309017
    outer loop
      vertex -45.5247 4 6.07188
      vertex -45.1764 -3 5
      vertex -45.5247 -3 6.07188
    endloop
  endfacet
  facet normal 0.951057 -6.86155e-17 -0.309017
    outer loop
      vertex -48.8236 4 5
      vertex -48.4753 4 6.07188
      vertex -48.4753 -3 6.07188
    endloop
  endfacet
  facet normal 0.951057 -6.86155e-17 -0.309017
    outer loop
      vertex -48.8236 -3 5
      vertex -48.8236 4 5
      vertex -48.4753 -3 6.07188
    endloop
  endfacet
  facet normal 0.951057 6.86155e-17 0.309017
    outer loop
      vertex -5.47531 -3 3.92812
      vertex -5.47531 4 3.92812
      vertex -5.82359 4 5
    endloop
  endfacet
  facet normal 0.951057 6.86155e-17 0.309017
    outer loop
      vertex -5.82359 -3 5
      vertex -5.47531 -3 3.92812
      vertex -5.82359 4 5
    endloop
  endfacet
  facet normal 0.587786 1.79638e-16 0.809017
    outer loop
      vertex -4.56352 -3 3.26566
      vertex -4.56352 4 3.26566
      vertex -5.47531 4 3.92812
    endloop
  endfacet
  facet normal 0.587786 1.79638e-16 0.809017
    outer loop
      vertex -5.47531 -3 3.92812
      vertex -4.56352 -3 3.26566
      vertex -5.47531 4 3.92812
    endloop
  endfacet
  facet normal 0 2.22045e-16 1
    outer loop
      vertex -3.43648 -3 3.26566
      vertex -3.43648 4 3.26566
      vertex -4.56352 4 3.26566
    endloop
  endfacet
  facet normal 0 2.22045e-16 1
    outer loop
      vertex -4.56352 -3 3.26566
      vertex -3.43648 -3 3.26566
      vertex -4.56352 4 3.26566
    endloop
  endfacet
  facet normal -0.587786 1.79638e-16 0.809017
    outer loop
      vertex -2.52469 -3 3.92812
      vertex -2.52469 4 3.92812
      vertex -3.43648 4 3.26566
    endloop
  endfacet
  facet normal -0.587786 1.79638e-16 0.809017
    outer loop
      vertex -3.43648 -3 3.26566
      vertex -2.52469 -3 3.92812
      vertex -3.43648 4 3.26566
    endloop
  endfacet
  facet normal -0.951057 6.86155e-17 0.309017
    outer loop
      vertex -2.17641 4 5
      vertex -2.52469 4 3.92812
      vertex -2.17641 -3 5
    endloop
  endfacet
  facet normal -0.951057 6.86155e-17 0.309017
    outer loop
      vertex -2.17641 -3 5
      vertex -2.52469 4 3.92812
      vertex -2.52469 -3 3.92812
    endloop
  endfacet
  facet normal 0 1 -2.22045e-16
    outer loop
      vertex -4.56352 -3 6.73434
      vertex -3.43648 -3 6.73434
      vertex -5.47531 -3 6.07188
    endloop
  endfacet
  facet normal 0 1 -2.22045e-16
    outer loop
      vertex -5.47531 -3 6.07188
      vertex -3.43648 -3 6.73434
      vertex -2.52469 -3 6.07188
    endloop
  endfacet
  facet normal 0 1 -2.22045e-16
    outer loop
      vertex -5.47531 -3 6.07188
      vertex -2.52469 -3 6.07188
      vertex -2.17641 -3 5
    endloop
  endfacet
  facet normal 0 1 -2.22045e-16
    outer loop
      vertex -5.47531 -3 6.07188
      vertex -2.17641 -3 5
      vertex -5.82359 -3 5
    endloop
  endfacet
  facet normal -0.951057 -6.86155e-17 -0.309017
    outer loop
      vertex -2.17641 4 5
      vertex -2.17641 -3 5
      vertex -2.52469 4 6.07188
    endloop
  endfacet
  facet normal -0.951057 -6.86155e-17 -0.309017
    outer loop
      vertex -2.52469 4 6.07188
      vertex -2.17641 -3 5
      vertex -2.52469 -3 6.07188
    endloop
  endfacet
  facet normal 0.951057 -6.86155e-17 -0.309017
    outer loop
      vertex -5.82359 4 5
      vertex -5.47531 4 6.07188
      vertex -5.47531 -3 6.07188
    endloop
  endfacet
  facet normal 0.951057 -6.86155e-17 -0.309017
    outer loop
      vertex -5.82359 -3 5
      vertex -5.82359 4 5
      vertex -5.47531 -3 6.07188
    endloop
  endfacet
  facet normal 0.587786 1.79638e-16 0.809017
    outer loop
      vertex 16.4365 0 3.26566
      vertex 16.4365 4.05 3.26566
      vertex 15.5247 4.05 3.92812
    endloop
  endfacet
  facet normal 0.587786 1.79638e-16 0.809017
    outer loop
      vertex 15.5247 0 3.92812
      vertex 16.4365 0 3.26566
      vertex 15.5247 4.05 3.92812
    endloop
  endfacet
  facet normal 0.951057 6.86155e-17 0.309017
    outer loop
      vertex 15.5247 0 3.92812
      vertex 15.5247 4.05 3.92812
      vertex 15.1764 4.05 5
    endloop
  endfacet
  facet normal 0.951057 6.86155e-17 0.309017
    outer loop
      vertex 15.1764 0 5
      vertex 15.5247 0 3.92812
      vertex 15.1764 4.05 5
    endloop
  endfacet
  facet normal 0 2.22045e-16 1
    outer loop
      vertex 17.5635 0 3.26566
      vertex 17.5635 4.05 3.26566
      vertex 16.4365 4.05 3.26566
    endloop
  endfacet
  facet normal 0 2.22045e-16 1
    outer loop
      vertex 16.4365 0 3.26566
      vertex 17.5635 0 3.26566
      vertex 16.4365 4.05 3.26566
    endloop
  endfacet
  facet normal -0.587786 1.79638e-16 0.809017
    outer loop
      vertex 18.4753 0 3.92812
      vertex 18.4753 4.05 3.92812
      vertex 17.5635 4.05 3.26566
    endloop
  endfacet
  facet normal -0.587786 1.79638e-16 0.809017
    outer loop
      vertex 17.5635 0 3.26566
      vertex 18.4753 0 3.92812
      vertex 17.5635 4.05 3.26566
    endloop
  endfacet
  facet normal -0.951057 6.86155e-17 0.309017
    outer loop
      vertex 18.8236 4.05 5
      vertex 18.4753 4.05 3.92812
      vertex 18.8236 0 5
    endloop
  endfacet
  facet normal -0.951057 6.86155e-17 0.309017
    outer loop
      vertex 18.8236 0 5
      vertex 18.4753 4.05 3.92812
      vertex 18.4753 0 3.92812
    endloop
  endfacet
  facet normal -0.951057 -6.86155e-17 -0.309017
    outer loop
      vertex 18.8236 4.05 5
      vertex 18.8236 0 5
      vertex 18.4753 4.05 6.07188
    endloop
  endfacet
  facet normal -0.951057 -6.86155e-17 -0.309017
    outer loop
      vertex 18.4753 4.05 6.07188
      vertex 18.8236 0 5
      vertex 18.4753 0 6.07188
    endloop
  endfacet
  facet normal -0.587786 -1.79638e-16 -0.809017
    outer loop
      vertex 18.4753 4.05 6.07188
      vertex 18.4753 0 6.07188
      vertex 17.5635 4.05 6.73434
    endloop
  endfacet
  facet normal -0.587786 -1.79638e-16 -0.809017
    outer loop
      vertex 17.5635 4.05 6.73434
      vertex 18.4753 0 6.07188
      vertex 17.5635 0 6.73434
    endloop
  endfacet
  facet normal 0 -2.22045e-16 -1
    outer loop
      vertex 17.5635 4.05 6.73434
      vertex 17.5635 0 6.73434
      vertex 16.4365 4.05 6.73434
    endloop
  endfacet
  facet normal 0 -2.22045e-16 -1
    outer loop
      vertex 16.4365 4.05 6.73434
      vertex 17.5635 0 6.73434
      vertex 16.4365 0 6.73434
    endloop
  endfacet
  facet normal 0.587786 -1.79638e-16 -0.809017
    outer loop
      vertex 16.4365 4.05 6.73434
      vertex 16.4365 0 6.73434
      vertex 15.5247 4.05 6.07188
    endloop
  endfacet
  facet normal 0.587786 -1.79638e-16 -0.809017
    outer loop
      vertex 15.5247 4.05 6.07188
      vertex 16.4365 0 6.73434
      vertex 15.5247 0 6.07188
    endloop
  endfacet
  facet normal 0.951057 -6.86155e-17 -0.309017
    outer loop
      vertex 15.1764 4.05 5
      vertex 15.5247 4.05 6.07188
      vertex 15.5247 0 6.07188
    endloop
  endfacet
  facet normal 0.951057 -6.86155e-17 -0.309017
    outer loop
      vertex 15.1764 0 5
      vertex 15.1764 4.05 5
      vertex 15.5247 0 6.07188
    endloop
  endfacet
  facet normal 0.951057 -6.86155e-17 -0.309017
    outer loop
      vertex 15.1764 14.5 5
      vertex 15.5247 14.5 6.07188
      vertex 15.5247 11.55 6.07188
    endloop
  endfacet
  facet normal 0.951057 -6.86155e-17 -0.309017
    outer loop
      vertex 15.1764 11.55 5
      vertex 15.1764 14.5 5
      vertex 15.5247 11.55 6.07188
    endloop
  endfacet
  facet normal 0.951057 6.86155e-17 0.309017
    outer loop
      vertex 15.5247 11.55 3.92812
      vertex 15.5247 14.5 3.92812
      vertex 15.1764 14.5 5
    endloop
  endfacet
  facet normal 0.951057 6.86155e-17 0.309017
    outer loop
      vertex 15.1764 11.55 5
      vertex 15.5247 11.55 3.92812
      vertex 15.1764 14.5 5
    endloop
  endfacet
  facet normal 0.587786 1.79638e-16 0.809017
    outer loop
      vertex 16.4365 11.55 3.26566
      vertex 16.4365 14.5 3.26566
      vertex 15.5247 14.5 3.92812
    endloop
  endfacet
  facet normal 0.587786 1.79638e-16 0.809017
    outer loop
      vertex 15.5247 11.55 3.92812
      vertex 16.4365 11.55 3.26566
      vertex 15.5247 14.5 3.92812
    endloop
  endfacet
  facet normal 0 2.22045e-16 1
    outer loop
      vertex 17.5635 11.55 3.26566
      vertex 17.5635 14.5 3.26566
      vertex 16.4365 14.5 3.26566
    endloop
  endfacet
  facet normal 0 2.22045e-16 1
    outer loop
      vertex 16.4365 11.55 3.26566
      vertex 17.5635 11.55 3.26566
      vertex 16.4365 14.5 3.26566
    endloop
  endfacet
  facet normal -0.587786 1.79638e-16 0.809017
    outer loop
      vertex 18.4753 11.55 3.92812
      vertex 18.4753 14.5 3.92812
      vertex 17.5635 14.5 3.26566
    endloop
  endfacet
  facet normal -0.587786 1.79638e-16 0.809017
    outer loop
      vertex 17.5635 11.55 3.26566
      vertex 18.4753 11.55 3.92812
      vertex 17.5635 14.5 3.26566
    endloop
  endfacet
  facet normal -0.951057 6.86155e-17 0.309017
    outer loop
      vertex 18.8236 14.5 5
      vertex 18.4753 14.5 3.92812
      vertex 18.8236 11.55 5
    endloop
  endfacet
  facet normal -0.951057 6.86155e-17 0.309017
    outer loop
      vertex 18.8236 11.55 5
      vertex 18.4753 14.5 3.92812
      vertex 18.4753 11.55 3.92812
    endloop
  endfacet
  facet normal -0.951057 -6.86155e-17 -0.309017
    outer loop
      vertex 18.8236 14.5 5
      vertex 18.8236 11.55 5
      vertex 18.4753 14.5 6.07188
    endloop
  endfacet
  facet normal -0.951057 -6.86155e-17 -0.309017
    outer loop
      vertex 18.4753 14.5 6.07188
      vertex 18.8236 11.55 5
      vertex 18.4753 11.55 6.07188
    endloop
  endfacet
  facet normal -0.587786 -1.79638e-16 -0.809017
    outer loop
      vertex 18.4753 14.5 6.07188
      vertex 18.4753 11.55 6.07188
      vertex 17.5635 14.5 6.73434
    endloop
  endfacet
  facet normal -0.587786 -1.79638e-16 -0.809017
    outer loop
      vertex 17.5635 14.5 6.73434
      vertex 18.4753 11.55 6.07188
      vertex 17.5635 11.55 6.73434
    endloop
  endfacet
  facet normal 0 -2.22045e-16 -1
    outer loop
      vertex 17.5635 14.5 6.73434
      vertex 17.5635 11.55 6.73434
      vertex 16.4365 14.5 6.73434
    endloop
  endfacet
  facet normal 0 -2.22045e-16 -1
    outer loop
      vertex 16.4365 14.5 6.73434
      vertex 17.5635 11.55 6.73434
      vertex 16.4365 11.55 6.73434
    endloop
  endfacet
  facet normal 0.587786 -1.79638e-16 -0.809017
    outer loop
      vertex 16.4365 14.5 6.73434
      vertex 16.4365 11.55 6.73434
      vertex 15.5247 14.5 6.07188
    endloop
  endfacet
  facet normal 0.587786 -1.79638e-16 -0.809017
    outer loop
      vertex 15.5247 14.5 6.07188
      vertex 16.4365 11.55 6.73434
      vertex 15.5247 11.55 6.07188
    endloop
  endfacet
  facet normal -0.866025 1.11022e-16 0.5
    outer loop
      vertex 11.23 15.6 5
      vertex 14.115 15.6 9.99697
      vertex 11.23 17.5 5
    endloop
  endfacet
  facet normal -0.866025 1.11022e-16 0.5
    outer loop
      vertex 11.23 17.5 5
      vertex 14.115 15.6 9.99697
      vertex 14.115 17.5 9.99697
    endloop
  endfacet
  facet normal -0.866025 -1.11022e-16 -0.5
    outer loop
      vertex 11.23 15.6 5
      vertex 11.23 17.5 5
      vertex 14.115 15.6 0.003033
    endloop
  endfacet
  facet normal -0.866025 -1.11022e-16 -0.5
    outer loop
      vertex 14.115 15.6 0.003033
      vertex 11.23 17.5 5
      vertex 14.115 17.5 0.003033
    endloop
  endfacet
  facet normal 0 2.22045e-16 1
    outer loop
      vertex 14.115 17.5 9.99697
      vertex 14.115 15.6 9.99697
      vertex 19.885 15.6 9.99697
    endloop
  endfacet
  facet normal 0 2.22045e-16 1
    outer loop
      vertex 19.885 17.5 9.99697
      vertex 14.115 17.5 9.99697
      vertex 19.885 15.6 9.99697
    endloop
  endfacet
  facet normal 0.866025 1.11022e-16 0.5
    outer loop
      vertex 19.885 17.5 9.99697
      vertex 19.885 15.6 9.99697
      vertex 22.77 15.6 5
    endloop
  endfacet
  facet normal 0.866025 1.11022e-16 0.5
    outer loop
      vertex 22.77 17.5 5
      vertex 19.885 17.5 9.99697
      vertex 22.77 15.6 5
    endloop
  endfacet
  facet normal 0.866025 -1.11022e-16 -0.5
    outer loop
      vertex 22.77 15.6 5
      vertex 19.885 15.6 0.003033
      vertex 19.885 17.5 0.003033
    endloop
  endfacet
  facet normal 0.866025 -1.11022e-16 -0.5
    outer loop
      vertex 22.77 17.5 5
      vertex 22.77 15.6 5
      vertex 19.885 17.5 0.003033
    endloop
  endfacet
  facet normal 0 -2.22045e-16 -1
    outer loop
      vertex 14.115 15.6 0.003033
      vertex 14.115 17.5 0.003033
      vertex 19.885 15.6 0.003033
    endloop
  endfacet
  facet normal 0 -2.22045e-16 -1
    outer loop
      vertex 19.885 15.6 0.003033
      vertex 14.115 17.5 0.003033
      vertex 19.885 17.5 0.003033
    endloop
  endfacet
  facet normal 0.866025 -1.11022e-16 -0.5
    outer loop
      vertex -7.37543 7 5
      vertex -5.68771 7 7.9232
      vertex -5.68771 4 7.92321
    endloop
  endfacet
  facet normal 0.866025 -1.11022e-16 -0.5
    outer loop
      vertex -7.37543 4 5
      vertex -7.37543 7 5
      vertex -5.68771 4 7.92321
    endloop
  endfacet
  facet normal 0.866025 1.11022e-16 0.5
    outer loop
      vertex -5.68771 4 2.0768
      vertex -5.68771 7 2.0768
      vertex -7.37543 7 5
    endloop
  endfacet
  facet normal 0.866025 1.11022e-16 0.5
    outer loop
      vertex -7.37543 4 5
      vertex -5.68771 4 2.0768
      vertex -7.37543 7 5
    endloop
  endfacet
  facet normal 0 -2.22045e-16 -1
    outer loop
      vertex -2.31229 7 7.9232
      vertex -2.31229 4 7.92321
      vertex -5.68771 7 7.9232
    endloop
  endfacet
  facet normal 0 -2.22045e-16 -1
    outer loop
      vertex -5.68771 7 7.9232
      vertex -2.31229 4 7.92321
      vertex -5.68771 4 7.92321
    endloop
  endfacet
  facet normal -0.866025 -1.11022e-16 -0.5
    outer loop
      vertex -0.624574 7 5
      vertex -0.624574 4 5
      vertex -2.31229 7 7.9232
    endloop
  endfacet
  facet normal -0.866025 -1.11022e-16 -0.5
    outer loop
      vertex -2.31229 7 7.9232
      vertex -0.624574 4 5
      vertex -2.31229 4 7.92321
    endloop
  endfacet
  facet normal -0.866025 1.11022e-16 0.5
    outer loop
      vertex -0.624574 7 5
      vertex -2.31229 7 2.0768
      vertex -0.624574 4 5
    endloop
  endfacet
  facet normal -0.866025 1.11022e-16 0.5
    outer loop
      vertex -0.624574 4 5
      vertex -2.31229 7 2.0768
      vertex -2.31229 4 2.0768
    endloop
  endfacet
  facet normal 0 2.22045e-16 1
    outer loop
      vertex -2.31229 4 2.0768
      vertex -2.31229 7 2.0768
      vertex -5.68771 7 2.0768
    endloop
  endfacet
  facet normal 0 2.22045e-16 1
    outer loop
      vertex -5.68771 4 2.0768
      vertex -2.31229 4 2.0768
      vertex -5.68771 7 2.0768
    endloop
  endfacet
  facet normal 0.587786 -1.79638e-16 -0.809017
    outer loop
      vertex -47.5635 4 6.73434
      vertex -47.5635 -3 6.73434
      vertex -48.4753 4 6.07188
    endloop
  endfacet
  facet normal 0.587786 -1.79638e-16 -0.809017
    outer loop
      vertex -48.4753 4 6.07188
      vertex -47.5635 -3 6.73434
      vertex -48.4753 -3 6.07188
    endloop
  endfacet
  facet normal 0 -2.22045e-16 -1
    outer loop
      vertex -46.4365 4 6.73434
      vertex -46.4365 -3 6.73434
      vertex -47.5635 4 6.73434
    endloop
  endfacet
  facet normal 0 -2.22045e-16 -1
    outer loop
      vertex -47.5635 4 6.73434
      vertex -46.4365 -3 6.73434
      vertex -47.5635 -3 6.73434
    endloop
  endfacet
  facet normal -0.587786 -1.79638e-16 -0.809017
    outer loop
      vertex -45.5247 4 6.07188
      vertex -45.5247 -3 6.07188
      vertex -46.4365 4 6.73434
    endloop
  endfacet
  facet normal -0.587786 -1.79638e-16 -0.809017
    outer loop
      vertex -46.4365 4 6.73434
      vertex -45.5247 -3 6.07188
      vertex -46.4365 -3 6.73434
    endloop
  endfacet
  facet normal 0 1 -2.22045e-16
    outer loop
      vertex -4.56352 4 6.73434
      vertex -5.68771 4 7.92321
      vertex -3.43648 4 6.73434
    endloop
  endfacet
  facet normal 0 1 -2.22045e-16
    outer loop
      vertex -2.52469 4 3.92812
      vertex -0.624574 4 5
      vertex -2.31229 4 2.0768
    endloop
  endfacet
  facet normal 0 1 -2.22045e-16
    outer loop
      vertex -4.56352 4 3.26566
      vertex -2.31229 4 2.0768
      vertex -5.68771 4 2.0768
    endloop
  endfacet
  facet normal 0 1 -2.22045e-16
    outer loop
      vertex -5.82359 4 5
      vertex -5.68771 4 2.0768
      vertex -7.37543 4 5
    endloop
  endfacet
  facet normal 0 1 -2.22045e-16
    outer loop
      vertex -2.52469 4 3.92812
      vertex -2.31229 4 2.0768
      vertex -3.43648 4 3.26566
    endloop
  endfacet
  facet normal 0 1 -2.22045e-16
    outer loop
      vertex -3.43648 4 3.26566
      vertex -2.31229 4 2.0768
      vertex -4.56352 4 3.26566
    endloop
  endfacet
  facet normal 0 1 -2.22045e-16
    outer loop
      vertex -5.47531 4 3.92812
      vertex -4.56352 4 3.26566
      vertex -5.68771 4 2.0768
    endloop
  endfacet
  facet normal 0 1 -2.22045e-16
    outer loop
      vertex -2.17641 4 5
      vertex -0.624574 4 5
      vertex -2.52469 4 3.92812
    endloop
  endfacet
  facet normal 0 1 -2.22045e-16
    outer loop
      vertex -3.43648 4 6.73434
      vertex -0.624574 4 5
      vertex -2.52469 4 6.07188
    endloop
  endfacet
  facet normal 0 1 -2.22045e-16
    outer loop
      vertex -2.52469 4 6.07188
      vertex -0.624574 4 5
      vertex -2.17641 4 5
    endloop
  endfacet
  facet normal 0 1 -2.22045e-16
    outer loop
      vertex -2.31229 4 7.92321
      vertex -0.624574 4 5
      vertex -3.43648 4 6.73434
    endloop
  endfacet
  facet normal 0 1 -2.22045e-16
    outer loop
      vertex -2.31229 4 7.92321
      vertex -3.43648 4 6.73434
      vertex -5.68771 4 7.92321
    endloop
  endfacet
  facet normal 0 1 -2.22045e-16
    outer loop
      vertex -5.47531 4 6.07188
      vertex -5.68771 4 7.92321
      vertex -4.56352 4 6.73434
    endloop
  endfacet
  facet normal 0 1 -2.22045e-16
    outer loop
      vertex -5.82359 4 5
      vertex -5.68771 4 7.92321
      vertex -5.47531 4 6.07188
    endloop
  endfacet
  facet normal 0 1 -2.22045e-16
    outer loop
      vertex -5.68771 4 7.92321
      vertex -5.82359 4 5
      vertex -7.37543 4 5
    endloop
  endfacet
  facet normal 0 1 -2.22045e-16
    outer loop
      vertex -5.47531 4 3.92812
      vertex -5.68771 4 2.0768
      vertex -5.82359 4 5
    endloop
  endfacet
  facet normal 0.587786 -1.79638e-16 -0.809017
    outer loop
      vertex -4.56352 4 6.73434
      vertex -4.56352 -3 6.73434
      vertex -5.47531 4 6.07188
    endloop
  endfacet
  facet normal 0.587786 -1.79638e-16 -0.809017
    outer loop
      vertex -5.47531 4 6.07188
      vertex -4.56352 -3 6.73434
      vertex -5.47531 -3 6.07188
    endloop
  endfacet
  facet normal -0.587786 -1.79638e-16 -0.809017
    outer loop
      vertex -2.52469 4 6.07188
      vertex -2.52469 -3 6.07188
      vertex -3.43648 4 6.73434
    endloop
  endfacet
  facet normal -0.587786 -1.79638e-16 -0.809017
    outer loop
      vertex -3.43648 4 6.73434
      vertex -2.52469 -3 6.07188
      vertex -3.43648 -3 6.73434
    endloop
  endfacet
  facet normal 0 -2.22045e-16 -1
    outer loop
      vertex -3.43648 4 6.73434
      vertex -3.43648 -3 6.73434
      vertex -4.56352 4 6.73434
    endloop
  endfacet
  facet normal 0 -2.22045e-16 -1
    outer loop
      vertex -4.56352 4 6.73434
      vertex -3.43648 -3 6.73434
      vertex -4.56352 -3 6.73434
    endloop
  endfacet
  facet normal 0 1 -2.22045e-16
    outer loop
      vertex 16.4365 14.5 6.73434
      vertex 15.3123 14.5 7.92321
      vertex 17.5635 14.5 6.73434
    endloop
  endfacet
  facet normal 0 1 -2.22045e-16
    outer loop
      vertex 18.4753 14.5 3.92812
      vertex 20.3754 14.5 5
      vertex 18.6877 14.5 2.0768
    endloop
  endfacet
  facet normal 0 1 -2.22045e-16
    outer loop
      vertex 16.4365 14.5 3.26566
      vertex 18.6877 14.5 2.0768
      vertex 15.3123 14.5 2.0768
    endloop
  endfacet
  facet normal 0 1 -2.22045e-16
    outer loop
      vertex 15.1764 14.5 5
      vertex 15.3123 14.5 2.0768
      vertex 13.6246 14.5 5
    endloop
  endfacet
  facet normal 0 1 -2.22045e-16
    outer loop
      vertex 18.4753 14.5 3.92812
      vertex 18.6877 14.5 2.0768
      vertex 17.5635 14.5 3.26566
    endloop
  endfacet
  facet normal 0 1 -2.22045e-16
    outer loop
      vertex 17.5635 14.5 3.26566
      vertex 18.6877 14.5 2.0768
      vertex 16.4365 14.5 3.26566
    endloop
  endfacet
  facet normal 0 1 -2.22045e-16
    outer loop
      vertex 15.5247 14.5 3.92812
      vertex 16.4365 14.5 3.26566
      vertex 15.3123 14.5 2.0768
    endloop
  endfacet
  facet normal 0 1 -2.22045e-16
    outer loop
      vertex 18.8236 14.5 5
      vertex 20.3754 14.5 5
      vertex 18.4753 14.5 3.92812
    endloop
  endfacet
  facet normal 0 1 -2.22045e-16
    outer loop
      vertex 17.5635 14.5 6.73434
      vertex 20.3754 14.5 5
      vertex 18.4753 14.5 6.07188
    endloop
  endfacet
  facet normal 0 1 -2.22045e-16
    outer loop
      vertex 18.4753 14.5 6.07188
      vertex 20.3754 14.5 5
      vertex 18.8236 14.5 5
    endloop
  endfacet
  facet normal 0 1 -2.22045e-16
    outer loop
      vertex 18.6877 14.5 7.92321
      vertex 20.3754 14.5 5
      vertex 17.5635 14.5 6.73434
    endloop
  endfacet
  facet normal 0 1 -2.22045e-16
    outer loop
      vertex 18.6877 14.5 7.92321
      vertex 17.5635 14.5 6.73434
      vertex 15.3123 14.5 7.92321
    endloop
  endfacet
  facet normal 0 1 -2.22045e-16
    outer loop
      vertex 15.5247 14.5 6.07188
      vertex 15.3123 14.5 7.92321
      vertex 16.4365 14.5 6.73434
    endloop
  endfacet
  facet normal 0 1 -2.22045e-16
    outer loop
      vertex 15.1764 14.5 5
      vertex 15.3123 14.5 7.92321
      vertex 15.5247 14.5 6.07188
    endloop
  endfacet
  facet normal 0 1 -2.22045e-16
    outer loop
      vertex 15.3123 14.5 7.92321
      vertex 15.1764 14.5 5
      vertex 13.6246 14.5 5
    endloop
  endfacet
  facet normal 0 1 -2.22045e-16
    outer loop
      vertex 15.5247 14.5 3.92812
      vertex 15.3123 14.5 2.0768
      vertex 15.1764 14.5 5
    endloop
  endfacet
  facet normal 0 1 -2.22045e-16
    outer loop
      vertex 15.3123 17.5 2.0768
      vertex 14.115 17.5 0.003033
      vertex 13.6246 17.5 5
    endloop
  endfacet
  facet normal 0 1 -2.22045e-16
    outer loop
      vertex 18.6877 17.5 7.9232
      vertex 14.115 17.5 9.99697
      vertex 19.885 17.5 9.99697
    endloop
  endfacet
  facet normal 0 1 -2.22045e-16
    outer loop
      vertex 20.3754 17.5 5
      vertex 19.885 17.5 9.99697
      vertex 22.77 17.5 5
    endloop
  endfacet
  facet normal 0 1 -2.22045e-16
    outer loop
      vertex 18.6877 17.5 2.0768
      vertex 22.77 17.5 5
      vertex 19.885 17.5 0.003033
    endloop
  endfacet
  facet normal 0 1 -2.22045e-16
    outer loop
      vertex 11.23 17.5 5
      vertex 14.115 17.5 9.99697
      vertex 13.6246 17.5 5
    endloop
  endfacet
  facet normal 0 1 -2.22045e-16
    outer loop
      vertex 11.23 17.5 5
      vertex 13.6246 17.5 5
      vertex 14.115 17.5 0.003033
    endloop
  endfacet
  facet normal 0 1 -2.22045e-16
    outer loop
      vertex 18.6877 17.5 2.0768
      vertex 14.115 17.5 0.003033
      vertex 15.3123 17.5 2.0768
    endloop
  endfacet
  facet normal 0 1 -2.22045e-16
    outer loop
      vertex 20.3754 17.5 5
      vertex 22.77 17.5 5
      vertex 18.6877 17.5 2.0768
    endloop
  endfacet
  facet normal 0 1 -2.22045e-16
    outer loop
      vertex 14.115 17.5 0.003033
      vertex 18.6877 17.5 2.0768
      vertex 19.885 17.5 0.003033
    endloop
  endfacet
  facet normal 0 1 -2.22045e-16
    outer loop
      vertex 18.6877 17.5 7.9232
      vertex 19.885 17.5 9.99697
      vertex 20.3754 17.5 5
    endloop
  endfacet
  facet normal 0 1 -2.22045e-16
    outer loop
      vertex 15.3123 17.5 7.9232
      vertex 14.115 17.5 9.99697
      vertex 18.6877 17.5 7.9232
    endloop
  endfacet
  facet normal 0 1 -2.22045e-16
    outer loop
      vertex 13.6246 17.5 5
      vertex 14.115 17.5 9.99697
      vertex 15.3123 17.5 7.9232
    endloop
  endfacet
  facet normal 0 -2.22045e-16 -1
    outer loop
      vertex 18.6877 17.5 7.9232
      vertex 18.6877 14.5 7.92321
      vertex 15.3123 17.5 7.9232
    endloop
  endfacet
  facet normal 0 -2.22045e-16 -1
    outer loop
      vertex 15.3123 17.5 7.9232
      vertex 18.6877 14.5 7.92321
      vertex 15.3123 14.5 7.92321
    endloop
  endfacet
  facet normal 0.866025 -1.11022e-16 -0.5
    outer loop
      vertex 13.6246 17.5 5
      vertex 15.3123 17.5 7.9232
      vertex 15.3123 14.5 7.92321
    endloop
  endfacet
  facet normal 0.866025 -1.11022e-16 -0.5
    outer loop
      vertex 13.6246 14.5 5
      vertex 13.6246 17.5 5
      vertex 15.3123 14.5 7.92321
    endloop
  endfacet
  facet normal 0.866025 1.11022e-16 0.5
    outer loop
      vertex 15.3123 14.5 2.0768
      vertex 15.3123 17.5 2.0768
      vertex 13.6246 17.5 5
    endloop
  endfacet
  facet normal 0.866025 1.11022e-16 0.5
    outer loop
      vertex 13.6246 14.5 5
      vertex 15.3123 14.5 2.0768
      vertex 13.6246 17.5 5
    endloop
  endfacet
  facet normal 0 2.22045e-16 1
    outer loop
      vertex 18.6877 14.5 2.0768
      vertex 18.6877 17.5 2.0768
      vertex 15.3123 17.5 2.0768
    endloop
  endfacet
  facet normal 0 2.22045e-16 1
    outer loop
      vertex 15.3123 14.5 2.0768
      vertex 18.6877 14.5 2.0768
      vertex 15.3123 17.5 2.0768
    endloop
  endfacet
  facet normal -0.866025 1.11022e-16 0.5
    outer loop
      vertex 20.3754 17.5 5
      vertex 18.6877 17.5 2.0768
      vertex 20.3754 14.5 5
    endloop
  endfacet
  facet normal -0.866025 1.11022e-16 0.5
    outer loop
      vertex 20.3754 14.5 5
      vertex 18.6877 17.5 2.0768
      vertex 18.6877 14.5 2.0768
    endloop
  endfacet
  facet normal -0.866025 -1.11022e-16 -0.5
    outer loop
      vertex 20.3754 17.5 5
      vertex 20.3754 14.5 5
      vertex 18.6877 17.5 7.9232
    endloop
  endfacet
  facet normal -0.866025 -1.11022e-16 -0.5
    outer loop
      vertex 18.6877 17.5 7.9232
      vertex 20.3754 14.5 5
      vertex 18.6877 14.5 7.92321
    endloop
  endfacet
endsolid OpenSCAD_Model
